<?xml version="1.0" encoding="UTF-8" standalone="no"?>
<!-- Created with Serif DrawPlus 11, 0, 3, 23 (Feb 25, 14:12:55) (http://www.serif.com) -->
<svg version="1.1" xmlns="http://www.w3.org/2000/svg" xmlns:xlink="http://www.w3.org/1999/xlink" xmlns:inkscape="http://www.inkscape.org/namespaces/inkscape" width="432.139" height="425.808">
	<g id="dp_group001" transform="matrix(1,0,0,1,-130.215,-571.783)">
		<g id="dp_group002">
			<text id="dp_text001" transform="matrix(1,1.46616e-015,-1.46617e-015,1,301.539,788.956)" xml:space="preserve" fill="#5407c0" font-family="Arial" font-size="20" font-weight="700" x="0" y="0">P</text>
			<text id="dp_text002" transform="matrix(1,1.46616e-015,-1.46617e-015,1,301.539,788.956)" xml:space="preserve" fill="#5407c0" font-family="Arial" font-size="12" font-weight="700" font-style="italic" x="13.492" y="0"> </text>
			<path id="dp_path005" fill="#5407c0" fill-rule="evenodd" d="M 299.627,781.236 L 287.921,781.236 L 287.921,779.212 L 299.627,779.212 Z "/>
		</g>
		<g id="dp_group006">
			<path id="dp_path007" fill="black" fill-rule="evenodd" d="M 271.791,988.616 C 270.589,987.099 269.573,985.324 268.743,983.291 C 267.911,981.257 267.496,979.151 267.496,976.971 C 267.496,975.052 267.805,973.209 268.427,971.451 C 269.153,969.409 270.275,967.376 271.791,965.351 L 273.359,965.351 C 272.379,967.029 271.731,968.229 271.415,968.947 C 270.921,970.06 270.531,971.223 270.248,972.432 C 269.899,973.941 269.725,975.459 269.725,976.984 C 269.725,980.864 270.937,984.744 273.359,988.616 Z "/>
			<path id="dp_path008" fill="black" fill-rule="evenodd" d="M 314.819,975.673 L 303.113,975.673 L 303.113,973.649 L 314.819,973.649 Z "/>
			<path id="dp_path009" fill="black" fill-rule="evenodd" d="M 356.767,975.673 L 345.061,975.673 L 345.061,973.649 L 356.767,973.649 Z "/>
			<path id="dp_path010" fill="black" fill-rule="evenodd" d="M 381.832,988.616 L 380.263,988.616 C 382.684,984.744 383.896,980.864 383.896,976.984 C 383.896,975.467 383.723,973.961 383.373,972.469 C 383.097,971.257 382.713,970.097 382.22,968.983 C 381.904,968.256 381.252,967.045 380.263,965.351 L 381.832,965.351 C 383.347,967.376 384.468,969.409 385.195,971.451 C 385.816,973.209 386.125,975.052 386.125,976.971 C 386.125,979.151 385.709,981.257 384.875,983.291 C 384.039,985.324 383.025,987.099 381.832,988.616 Z "/>
			<text id="dp_text003" transform="matrix(1,0,0,1,172.24,984.402)" xml:space="preserve" fill="black" font-family="Arial" font-size="20" font-weight="400" font-style="italic" x="0" y="0">ig</text>
			<text id="dp_text004" transform="matrix(1,0,0,1,172.24,984.402)" xml:space="preserve" fill="black" font-family="Arial" font-size="20" font-weight="400" font-style="italic" x="15.7547" y="0"> </text>
			<g id="dp_group013">
				<text id="dp_text005" transform="matrix(1,1.46616e-015,-1.46617e-015,1,319.43,983.505)" xml:space="preserve" fill="#0c10e9" font-family="Arial" font-size="20" font-weight="700" x="0" y="0">P</text>
				<text id="dp_text006" transform="matrix(1,1.46616e-015,-1.46617e-015,1,319.43,983.505)" xml:space="preserve" fill="#0c10e9" font-family="Arial" font-size="12" font-weight="700" font-style="italic" x="13.492" y="0"> </text>
				<text id="dp_text007" transform="matrix(1,0,0,1,332.251,993.424)" xml:space="preserve" fill="#0c10e9" font-family="Arial" font-size="17" font-weight="400" x="0" y="0">B </text>
			</g>
			<g id="dp_group017">
				<text id="dp_text008" transform="matrix(1,1.46616e-015,-1.46617e-015,1,276.892,983.505)" xml:space="preserve" fill="#0c10e9" font-family="Arial" font-size="20" font-weight="700" x="0" y="0">P</text>
				<text id="dp_text009" transform="matrix(1,1.46616e-015,-1.46617e-015,1,276.892,983.505)" xml:space="preserve" fill="#0c10e9" font-family="Arial" font-size="12" font-weight="700" font-style="italic" x="13.492" y="0"> </text>
				<text id="dp_text010" transform="matrix(1,0,0,1,289.714,993.424)" xml:space="preserve" fill="#0c10e9" font-family="Arial" font-size="17" font-weight="400" x="0" y="0">A </text>
			</g>
			<text id="dp_text011" transform="matrix(1,0,0,1,189.487,985.395)" xml:space="preserve" fill="black" font-family="Arial" font-size="25" font-weight="400" x="0" y="0">(2</text>
			<text id="dp_text012" transform="matrix(1,0,0,1,189.487,985.395)" xml:space="preserve" fill="black" font-family="Universal Math 1" font-size="25" font-weight="400" font-style="italic" x="22.0653" y="0">   </text>
			<text id="dp_text013" transform="matrix(1,0,0,1,189.487,985.395)" xml:space="preserve" fill="black" font-family="Arial" font-size="25" font-weight="400" x="40.6973" y="0">) </text>
			<text id="dp_text014" transform="matrix(1,0,0,1,234.153,971.639)" xml:space="preserve" fill="black" font-family="Arial" font-size="21" font-weight="400" x="0" y="0">4 </text>
			<text id="dp_text015" transform="matrix(1,1.46616e-015,-1.46617e-015,1,361.968,983.505)" xml:space="preserve" fill="#5407c0" font-family="Arial" font-size="20" font-weight="700" x="0" y="0">P</text>
			<text id="dp_text016" transform="matrix(1,1.46616e-015,-1.46617e-015,1,361.968,983.505)" xml:space="preserve" fill="#5407c0" font-family="Arial" font-size="12" font-weight="700" font-style="italic" x="13.492" y="0"> </text>
			<path id="dp_path027" fill="black" fill-rule="evenodd" d="M 219.148,977.076 C 219.016,977.076 218.896,977.08 218.787,977.085 C 218.677,977.092 218.588,977.096 218.523,977.096 C 217.764,977.096 217.192,977.273 216.808,977.628 C 216.425,977.984 216.077,978.591 215.771,979.449 L 215.068,979.449 L 215.161,979.177 C 215.429,978.384 215.715,977.716 216.016,977.171 C 216.317,976.623 216.663,976.181 217.048,975.843 C 217.436,975.504 217.883,975.259 218.388,975.111 C 218.892,974.961 219.473,974.887 220.135,974.887 L 231.775,974.887 L 231.032,977.076 L 226.92,977.076 C 226.883,977.141 226.853,977.208 226.831,977.273 L 226.629,977.868 C 226.4,978.543 226.231,979.187 226.121,979.799 C 226.013,980.407 225.923,980.977 225.851,981.505 C 225.779,982.033 225.72,982.513 225.673,982.94 C 225.625,983.369 225.549,983.741 225.444,984.055 C 225.023,985.292 224.389,985.911 223.544,985.911 C 223.147,985.911 222.887,985.757 222.767,985.452 C 222.648,985.147 222.681,984.724 222.865,984.179 C 222.979,983.848 223.159,983.46 223.411,983.015 C 223.66,982.568 223.935,982.067 224.232,981.505 C 224.531,980.944 224.843,980.327 225.173,979.649 C 225.501,978.972 225.801,978.237 226.069,977.447 L 226.197,977.076 L 221.532,977.076 L 221.261,977.868 C 221.032,978.543 220.863,979.187 220.753,979.799 C 220.647,980.407 220.556,980.977 220.483,981.505 C 220.411,982.033 220.353,982.513 220.305,982.94 C 220.259,983.369 220.181,983.741 220.076,984.055 C 219.656,985.292 219.021,985.911 218.177,985.911 C 217.779,985.911 217.519,985.757 217.399,985.452 C 217.281,985.147 217.315,984.724 217.499,984.179 C 217.612,983.848 217.791,983.46 218.043,983.015 C 218.293,982.568 218.568,982.067 218.865,981.505 C 219.164,980.944 219.476,980.327 219.807,979.649 C 220.135,978.972 220.433,978.237 220.701,977.447 L 220.829,977.076 Z "/>
			<path id="dp_path028" fill="black" fill-rule="evenodd" d="M 257.657,975.019 C 257.164,974.623 256.723,974.269 256.332,973.964 C 255.94,973.659 255.623,973.353 255.381,973.048 C 255.137,972.74 254.98,972.415 254.908,972.067 C 254.836,971.72 254.885,971.3 255.053,970.801 C 255.317,970.025 255.788,969.399 256.463,968.917 C 257.137,968.439 257.92,968.199 258.812,968.199 C 259.423,968.199 260.005,968.335 260.556,968.605 C 261.108,968.877 261.58,969.284 261.975,969.829 C 262.164,970.093 262.321,970.359 262.447,970.623 C 262.571,970.887 262.665,971.131 262.732,971.353 C 262.796,971.576 262.84,971.765 262.86,971.923 C 262.88,972.08 262.885,972.175 262.875,972.208 C 262.789,972.456 262.675,972.579 262.525,972.579 C 262.409,972.579 262.303,972.529 262.204,972.431 C 262.107,972.332 261.989,972.2 261.857,972.035 C 261.723,971.869 261.561,971.675 261.372,971.452 C 261.184,971.229 260.936,970.985 260.631,970.721 C 260.131,970.292 259.629,969.975 259.121,969.768 C 258.613,969.561 258.145,969.459 257.716,969.459 C 257.253,969.459 256.859,969.561 256.533,969.768 C 256.207,969.975 255.981,970.259 255.857,970.624 C 255.761,970.905 255.756,971.149 255.844,971.355 C 255.931,971.561 256.089,971.764 256.319,971.964 C 256.547,972.163 256.832,972.369 257.173,972.584 C 257.511,972.799 257.883,973.063 258.289,973.376 C 259.033,973.956 259.659,974.505 260.168,975.025 C 260.676,975.548 261.056,976.088 261.312,976.651 C 261.565,977.213 261.693,977.808 261.696,978.437 C 261.696,979.065 261.568,979.759 261.309,980.521 C 261.044,981.297 260.679,982.001 260.208,982.628 C 259.739,983.259 259.197,983.803 258.587,984.265 C 257.973,984.728 257.317,985.085 256.613,985.333 C 255.909,985.58 255.201,985.704 254.491,985.704 C 253.764,985.704 253.137,985.58 252.611,985.333 C 252.083,985.085 251.667,984.729 251.361,984.265 C 251.056,983.803 250.883,983.259 250.84,982.631 C 250.796,982.003 250.908,981.299 251.172,980.523 C 251.648,979.117 252.449,977.957 253.572,977.04 C 254.697,976.121 256.023,975.556 257.548,975.341 Z M 257.773,976.043 C 256.917,976.043 256.136,976.415 255.431,977.157 C 254.727,977.899 254.117,979.023 253.608,980.523 C 252.592,983.509 252.968,985.003 254.728,985.003 C 256.477,985.003 257.856,983.509 258.872,980.523 C 259.888,977.536 259.521,976.043 257.773,976.043 Z "/>
			<path id="dp_path029" fill="black" fill-rule="evenodd" d="M 170.929,978.096 L 161.369,978.096 L 161.369,976.444 L 170.929,976.444 Z "/>
		</g>
		<g id="dp_group030">
			<path id="dp_path031" fill="none" fill-rule="evenodd" stroke="#fb9a10" stroke-width="2" d="M 239.056,835.312 L 194.823,876.851"/>
			<g id="dp_group032">
				<g id="dp_group033">
					<path id="dp_path034" fill="#fb9a10" fill-rule="evenodd" d="M 241.364,834.517 L 239.995,833.06 L 237.256,830.144 L 233.389,840.633 L 244.101,837.433 Z "/>
					<path id="dp_path035" fill="#fb9a10" d="M 278.148,797.229 L 239.995,833.059 L 241.363,834.517 L 279.516,798.688 Z "/>
				</g>
			</g>
		</g>
		<g id="dp_group036">
			<path id="dp_path037" fill="none" fill-rule="evenodd" stroke="#da0404" stroke-width="2" d="M 357.856,789.521 L 438.891,780.871"/>
			<g id="dp_group038">
				<g id="dp_group039">
					<path id="dp_path040" fill="#da0404" fill-rule="evenodd" d="M 357.191,788.585 L 357.404,790.573 L 357.828,794.551 L 367.241,788.519 L 356.767,784.608 Z "/>
					<path id="dp_path041" fill="#da0404" d="M 278.941,798.951 L 357.404,790.575 L 357.191,788.585 L 278.728,796.961 Z "/>
				</g>
			</g>
		</g>
		<g id="dp_group042">
			<path id="dp_path043" fill="none" fill-rule="evenodd" stroke="#fb9a10" stroke-width="2" d="M 227.807,750.217 L 278.835,798.136"/>
			<g id="dp_group044">
				<g id="dp_group045">
					<path id="dp_path046" fill="#fb9a10" fill-rule="evenodd" d="M 233.308,754.009 L 231.939,755.467 L 229.2,758.383 L 239.913,761.584 L 236.045,751.093 Z "/>
					<path id="dp_path047" fill="#fb9a10" d="M 189.409,715.531 L 231.939,755.468 L 233.307,754.009 L 190.777,714.072 Z "/>
				</g>
			</g>
		</g>
		<text id="dp_text017" transform="matrix(1,0,0,1,175.122,895.132)" xml:space="preserve" fill="black" font-family="Arial" font-size="20" font-weight="400" x="0" y="0">B</text>
		<text id="dp_text018" transform="matrix(1,0,0,1,175.122,895.132)" xml:space="preserve" fill="black" font-family="Arial" font-size="12" font-weight="400" x="13.4907" y="0"> </text>
		<text id="dp_text019" transform="matrix(1,0,0,1,172.918,708.202)" xml:space="preserve" fill="black" font-family="Arial" font-size="20" font-weight="400" x="0" y="0">A</text>
		<text id="dp_text020" transform="matrix(1,0,0,1,172.918,708.202)" xml:space="preserve" fill="black" font-family="Arial" font-size="12" font-weight="400" x="13.4907" y="0"> </text>
		<g id="dp_group052">
			<g id="dp_group053">
				<path id="dp_path054" fill="black" fill-rule="evenodd" d="M 162.023,934.229 L 162.023,932.229 L 164.023,928.229 L 155.023,933.229 L 164.023,938.229 Z "/>
				<path id="dp_path055" fill="black" fill-rule="evenodd" d="M 554.683,932.228 L 554.683,934.228 L 552.683,938.228 L 561.683,933.228 L 552.683,928.228 Z "/>
				<path id="dp_path056" fill="black" d="M 162.023,934.228 L 554.683,934.228 L 554.683,932.228 L 162.023,932.228 Z "/>
			</g>
		</g>
		<g id="dp_group057">
			<g id="dp_group058">
				<path id="dp_path059" fill="black" fill-rule="evenodd" d="M 156.021,926.227 L 154.021,926.227 L 150.021,924.227 L 155.021,933.227 L 160.021,924.227 Z "/>
				<path id="dp_path060" fill="black" fill-rule="evenodd" d="M 154.02,653.905 L 156.02,653.905 L 160.02,655.905 L 155.02,646.905 L 150.02,655.905 Z "/>
				<path id="dp_path061" fill="black" d="M 156.02,926.227 L 156.02,653.905 L 154.02,653.905 L 154.02,926.227 Z "/>
			</g>
		</g>
		<path id="dp_path062" fill="none" fill-rule="evenodd" stroke="#9b9b9b" stroke-width="1.33333" d="M 155.02,646.903 L 561.681,646.903"/>
		<path id="dp_path063" fill="none" fill-rule="evenodd" stroke="#9b9b9b" stroke-width="1.33333" d="M 561.685,933.227 L 561.685,646.903"/>
		<text id="dp_text021" transform="matrix(1,1.46617e-015,-1.46617e-015,1,130.215,809.296)" xml:space="preserve" fill="black" font-family="Arial" font-size="25" font-weight="700" x="0" y="0">x</text>
		<text id="dp_text022" transform="matrix(1,1.46617e-015,-1.46617e-015,1,130.215,809.296)" xml:space="preserve" fill="black" font-family="Arial" font-size="15" font-weight="700" x="13.8093" y="0"> </text>
		<path id="dp_path066" fill="black" fill-rule="evenodd" d="M 361.773,818.193 L 355.932,818.193 L 355.932,817.62 L 357.793,817.62 L 357.793,804.383 L 355.932,804.383 L 355.932,803.809 L 361.773,803.809 L 361.773,804.383 L 359.952,804.383 L 359.952,817.62 L 361.773,817.62 Z "/>
		<text id="dp_text023" transform="matrix(1,0,0,1,177.317,605.447)" xml:space="preserve" fill="#da0404" font-family="Arial" font-size="20" font-weight="400" x="0" y="0">Prop</text>
		<text id="dp_text024" transform="matrix(1,0,0,1,177.317,605.447)" xml:space="preserve" fill="#da0404" font-family="Arial" font-size="20" font-weight="400" font-style="italic" x="42.7827" y="0"> </text>
		<text id="dp_text025" transform="matrix(1,1.46617e-015,-1.46617e-015,1,550.354,966.496)" xml:space="preserve" fill="black" font-family="Arial" font-size="25" font-weight="400" font-style="italic" x="0" y="0">t</text>
		<text id="dp_text026" transform="matrix(1,1.46617e-015,-1.46617e-015,1,550.354,966.496)" xml:space="preserve" fill="black" font-family="Arial" font-size="15" font-weight="400" font-style="italic" x="6.872" y="0"> </text>
		<g id="dp_group071">
			<g id="dp_group072">
				<g id="dp_group073">
					<path id="dp_path074" fill="#fb9a10" fill-rule="evenodd" d="M 473.255,738.028 L 474.805,739.292 L 477.905,741.82 L 480.351,730.911 L 470.156,735.5 Z "/>
					<path id="dp_path075" fill="#fb9a10" d="M 473.256,738.028 L 439.66,779.221 L 441.209,780.485 L 474.805,739.292 Z "/>
				</g>
			</g>
			<path id="dp_path076" fill="none" fill-rule="evenodd" stroke="#fb9a10" stroke-width="2" d="M 508.376,696.545 L 472.399,740.659"/>
		</g>
		<g id="dp_group077">
			<g id="dp_group078">
				<g id="dp_group079">
					<path id="dp_path080" fill="#fb9a10" fill-rule="evenodd" d="M 482.881,834.005 L 484.365,832.663 L 487.331,829.979 L 476.915,825.919 L 479.916,836.688 Z "/>
					<path id="dp_path081" fill="#fb9a10" d="M 482.883,834.004 L 520.183,875.223 L 521.665,873.881 L 484.365,832.663 Z "/>
				</g>
			</g>
			<path id="dp_path082" fill="none" fill-rule="evenodd" stroke="#fb9a10" stroke-width="2" d="M 437.668,782.549 L 483.619,833.327"/>
		</g>
		<text id="dp_text027" transform="matrix(1,1.06165e-015,-1.06859e-015,1,514.313,686.612)" xml:space="preserve" fill="black" font-family="Arial" font-size="20" font-weight="400" x="0" y="0">C</text>
		<text id="dp_text028" transform="matrix(1,1.06165e-015,-1.06859e-015,1,514.313,686.612)" xml:space="preserve" fill="black" font-family="Arial" font-size="12" font-weight="400" x="14.624" y="0"> </text>
		<text id="dp_text029" transform="matrix(1,0,0,1,528.937,891.22)" xml:space="preserve" fill="black" font-family="Arial" font-size="20" font-weight="400" x="0" y="0">D</text>
		<text id="dp_text030" transform="matrix(1,0,0,1,528.937,891.22)" xml:space="preserve" fill="black" font-family="Arial" font-size="12" font-weight="400" x="14.6227" y="0"> </text>
		<g id="dp_group087">
			<text id="dp_text031" transform="matrix(1,1.46616e-015,-1.46617e-015,1,454.07,848.787)" xml:space="preserve" fill="#0c10e9" font-family="Arial" font-size="20" font-weight="700" x="0" y="0">P</text>
			<text id="dp_text032" transform="matrix(1,1.46616e-015,-1.46617e-015,1,454.07,848.787)" xml:space="preserve" fill="#0c10e9" font-family="Arial" font-size="12" font-weight="700" font-style="italic" x="13.492" y="0"> </text>
			<text id="dp_text033" transform="matrix(1,0,0,1,466.892,858.706)" xml:space="preserve" fill="#0c10e9" font-family="Arial" font-size="17" font-weight="400" x="0" y="0">D </text>
		</g>
		<path id="dp_path091" fill="black" fill-rule="evenodd" stroke="none" stroke-width="1.33333" d="M 278.52,793.153 C 281.277,793.153 283.512,795.388 283.512,798.144 C 283.512,800.9 281.277,803.135 278.52,803.135 C 275.763,803.135 273.528,800.9 273.528,798.144 C 273.528,795.388 275.763,793.153 278.52,793.153 Z "/>
		<path id="dp_path092" fill="black" fill-rule="evenodd" stroke="none" stroke-width="1.33333" d="M 439.156,776.247 C 441.913,776.247 444.148,778.481 444.148,781.237 C 444.148,783.993 441.913,786.228 439.156,786.228 C 436.399,786.228 434.164,783.993 434.164,781.237 C 434.164,778.481 436.399,776.247 439.156,776.247 Z "/>
		<g id="dp_group093">
			<text id="dp_text034" transform="matrix(1,1.46616e-015,-1.46617e-015,1,231.846,740.791)" xml:space="preserve" fill="#0c10e9" font-family="Arial" font-size="20" font-weight="700" x="0" y="0">P</text>
			<text id="dp_text035" transform="matrix(1,1.46616e-015,-1.46617e-015,1,231.846,740.791)" xml:space="preserve" fill="#0c10e9" font-family="Arial" font-size="12" font-weight="700" font-style="italic" x="13.492" y="0"> </text>
			<text id="dp_text036" transform="matrix(1,0,0,1,244.667,750.709)" xml:space="preserve" fill="#0c10e9" font-family="Arial" font-size="17" font-weight="400" x="0" y="0">A </text>
		</g>
		<g id="dp_group097">
			<path id="dp_path098" fill="#0c10e9" fill-rule="evenodd" d="M 502.579,742.32 L 490.875,742.32 L 490.875,740.296 L 502.579,740.296 Z "/>
			<text id="dp_text037" transform="matrix(1,0,0,1,514.312,759.959)" xml:space="preserve" fill="#0c10e9" font-family="Arial" font-size="17" font-weight="400" x="0" y="0">C </text>
			<text id="dp_text038" transform="matrix(1,1.46616e-015,-1.46617e-015,1,503.491,750.04)" xml:space="preserve" fill="#0c10e9" font-family="Arial" font-size="20" font-weight="700" x="0" y="0">P</text>
			<text id="dp_text039" transform="matrix(1,1.46616e-015,-1.46617e-015,1,503.491,750.04)" xml:space="preserve" fill="#0c10e9" font-family="Arial" font-size="12" font-weight="700" font-style="italic" x="13.492" y="0"> </text>
		</g>
		<text id="dp_text040" transform="matrix(1,1.46616e-015,-1.46617e-015,1,414.315,809.648)" xml:space="preserve" fill="#5407c0" font-family="Arial" font-size="20" font-weight="700" x="0" y="0">P</text>
		<text id="dp_text041" transform="matrix(1,1.46616e-015,-1.46617e-015,1,414.315,809.648)" xml:space="preserve" fill="#5407c0" font-family="Arial" font-size="12" font-weight="700" font-style="italic" x="13.492" y="0"> </text>
		<g id="dp_group104">
			<g id="dp_group105">
				<path id="dp_path106" fill="#717171" fill-rule="evenodd" d="M 280.031,813.884 L 281.363,813.921 L 283.992,815.327 L 280.825,809.237 L 277.328,815.144 Z M 280.715,813.236 L 282.696,813.957 L 280.788,810.571 L 278.697,813.848 Z "/>
				<path id="dp_path107" fill="#717171" d="M 277.56,953.04 L 277.648,949.841 L 276.315,949.804 L 276.227,953.003 Z M 277.736,946.643 L 277.824,943.444 L 276.491,943.407 L 276.403,946.605 Z M 277.912,940.245 L 278,937.047 L 276.667,937.009 L 276.579,940.208 Z M 278.088,933.848 L 278.176,930.649 L 276.843,930.612 L 276.755,933.811 Z M 278.264,927.451 L 278.352,924.252 L 277.019,924.215 L 276.931,927.413 Z M 278.439,921.053 L 278.527,917.855 L 277.193,917.817 L 277.105,921.016 Z M 278.613,914.656 L 278.701,911.457 L 277.368,911.42 L 277.28,914.619 Z M 278.788,908.259 L 278.876,905.06 L 277.543,905.023 L 277.455,908.221 Z M 278.963,901.861 L 279.051,898.663 L 277.717,898.625 L 277.629,901.824 Z M 279.137,895.464 L 279.225,892.265 L 277.892,892.228 L 277.804,895.427 Z M 279.312,889.067 L 279.4,885.868 L 278.067,885.831 L 277.979,889.029 Z M 279.487,882.669 L 279.575,879.471 L 278.241,879.433 L 278.153,882.632 Z M 279.661,876.272 L 279.749,873.073 L 278.416,873.036 L 278.328,876.235 Z M 279.836,869.875 L 279.924,866.676 L 278.591,866.639 L 278.503,869.837 Z M 280.011,863.477 L 280.099,860.279 L 278.765,860.241 L 278.677,863.44 Z M 280.185,857.08 L 280.273,853.881 L 278.94,853.844 L 278.852,857.043 Z M 280.36,850.683 L 280.448,847.484 L 279.115,847.447 L 279.027,850.645 Z M 280.535,844.285 L 280.623,841.087 L 279.289,841.049 L 279.201,844.248 Z M 280.709,837.888 L 280.797,834.689 L 279.464,834.652 L 279.376,837.851 Z M 280.884,831.491 L 280.972,828.292 L 279.639,828.255 L 279.551,831.453 Z M 281.059,825.093 L 281.147,821.895 L 279.813,821.857 L 279.725,825.056 Z M 281.233,818.696 L 281.321,815.497 L 279.988,815.46 L 279.9,818.659 Z "/>
			</g>
		</g>
		<g id="dp_group108">
			<g id="dp_group109">
				<path id="dp_path110" fill="#717171" fill-rule="evenodd" d="M 359.355,774.605 L 358.372,775.507 L 355.504,776.324 L 362.015,778.497 L 360.42,771.821 Z M 359.313,775.547 L 357.388,776.407 L 361.115,777.513 L 360.337,773.705 Z "/>
				<path id="dp_path111" fill="#717171" d="M 214.52,618.484 L 216.681,620.844 L 217.665,619.943 L 215.504,617.583 Z M 218.843,623.204 L 221.004,625.564 L 221.988,624.663 L 219.827,622.303 Z M 223.165,627.924 L 225.327,630.284 L 226.311,629.383 L 224.149,627.023 Z M 227.488,632.644 L 229.649,635.004 L 230.633,634.103 L 228.472,631.743 Z M 231.811,637.364 L 233.972,639.724 L 234.956,638.823 L 232.795,636.463 Z M 236.133,642.084 L 238.295,644.444 L 239.279,643.543 L 237.117,641.183 Z M 240.456,646.804 L 242.617,649.164 L 243.601,648.263 L 241.44,645.903 Z M 244.779,651.524 L 246.94,653.884 L 247.924,652.983 L 245.763,650.623 Z M 249.101,656.244 L 251.263,658.604 L 252.247,657.703 L 250.085,655.343 Z M 253.424,660.964 L 255.585,663.324 L 256.569,662.423 L 254.408,660.063 Z M 257.747,665.684 L 259.908,668.044 L 260.892,667.143 L 258.731,664.783 Z M 262.069,670.404 L 264.231,672.764 L 265.215,671.863 L 263.053,669.503 Z M 266.392,675.124 L 268.553,677.484 L 269.537,676.583 L 267.376,674.223 Z M 270.715,679.844 L 272.876,682.203 L 273.86,681.301 L 271.699,678.943 Z M 275.037,684.561 L 277.199,686.92 L 278.183,686.019 L 276.021,683.66 Z M 279.36,689.279 L 281.521,691.637 L 282.505,690.736 L 280.344,688.377 Z M 283.683,693.996 L 285.844,696.355 L 286.828,695.453 L 284.667,693.095 Z M 288.005,698.715 L 290.167,701.073 L 291.151,700.172 L 288.989,697.813 Z M 292.328,703.432 L 294.489,705.791 L 295.473,704.889 L 293.312,702.531 Z M 296.651,708.149 L 298.812,710.508 L 299.796,709.607 L 297.635,707.248 Z M 300.973,712.868 L 303.135,715.227 L 304.119,714.325 L 301.957,711.967 Z M 305.296,717.585 L 307.457,719.944 L 308.441,719.043 L 306.28,716.684 Z M 309.619,722.303 L 311.78,724.661 L 312.764,723.76 L 310.603,721.401 Z M 313.941,727.02 L 316.103,729.379 L 317.087,728.477 L 314.925,726.119 Z M 318.264,731.737 L 320.425,734.096 L 321.409,733.195 L 319.248,730.836 Z M 322.587,736.455 L 324.748,738.813 L 325.732,737.912 L 323.571,735.553 Z M 326.909,741.172 L 329.071,743.531 L 330.055,742.629 L 327.893,740.271 Z M 331.232,745.891 L 333.393,748.249 L 334.377,747.348 L 332.216,744.989 Z M 335.555,750.608 L 337.716,752.967 L 338.7,752.065 L 336.539,749.707 Z M 339.877,755.325 L 342.039,757.684 L 343.023,756.783 L 340.861,754.424 Z M 344.2,760.043 L 346.361,762.401 L 347.345,761.5 L 345.184,759.141 Z M 348.523,764.76 L 350.685,767.119 L 351.669,766.217 L 349.507,763.859 Z M 352.847,769.479 L 355.009,771.837 L 355.993,770.936 L 353.831,768.577 Z M 357.171,774.197 L 358.371,775.507 L 359.355,774.605 L 358.155,773.296 Z "/>
			</g>
		</g>
		<g id="dp_group112">
			<g id="dp_group113">
				<path id="dp_path114" fill="#717171" fill-rule="evenodd" d="M 439.639,765.551 L 438.307,765.511 L 435.681,764.095 L 438.828,770.195 L 442.345,764.301 Z M 438.952,766.197 L 436.973,765.469 L 438.869,768.863 L 440.972,765.592 Z "/>
				<path id="dp_path115" fill="#717171" d="M 442.868,617.496 L 442.769,620.695 L 444.103,620.735 L 444.201,617.536 Z M 442.671,623.893 L 442.572,627.092 L 443.905,627.132 L 444.004,623.933 Z M 442.473,630.291 L 442.375,633.489 L 443.708,633.529 L 443.807,630.331 Z M 442.276,636.688 L 442.177,639.887 L 443.511,639.927 L 443.609,636.728 Z M 442.079,643.085 L 441.98,646.284 L 443.313,646.324 L 443.412,643.125 Z M 441.881,649.483 L 441.783,652.681 L 443.116,652.721 L 443.215,649.523 Z M 441.684,655.88 L 441.585,659.079 L 442.919,659.119 L 443.017,655.92 Z M 441.487,662.277 L 441.388,665.476 L 442.721,665.516 L 442.82,662.317 Z M 441.289,668.675 L 441.191,671.873 L 442.524,671.913 L 442.623,668.715 Z M 441.092,675.072 L 440.993,678.271 L 442.327,678.311 L 442.425,675.112 Z M 440.895,681.469 L 440.796,684.668 L 442.129,684.708 L 442.228,681.509 Z M 440.697,687.867 L 440.599,691.065 L 441.932,691.105 L 442.031,687.907 Z M 440.5,694.264 L 440.401,697.463 L 441.735,697.503 L 441.833,694.304 Z M 440.303,700.661 L 440.204,703.86 L 441.537,703.9 L 441.636,700.701 Z M 440.105,707.059 L 440.007,710.257 L 441.34,710.297 L 441.439,707.099 Z M 439.908,713.456 L 439.809,716.655 L 441.143,716.695 L 441.241,713.496 Z M 439.711,719.853 L 439.612,723.052 L 440.945,723.092 L 441.044,719.893 Z M 439.513,726.251 L 439.415,729.449 L 440.748,729.489 L 440.847,726.291 Z M 439.316,732.648 L 439.217,735.847 L 440.551,735.887 L 440.649,732.688 Z M 439.119,739.045 L 439.02,742.244 L 440.353,742.284 L 440.452,739.085 Z M 438.921,745.443 L 438.823,748.641 L 440.156,748.681 L 440.255,745.483 Z M 438.724,751.84 L 438.627,755.039 L 439.96,755.079 L 440.057,751.88 Z M 438.528,758.237 L 438.431,761.436 L 439.764,761.476 L 439.861,758.277 Z M 438.332,764.635 L 438.305,765.511 L 439.639,765.551 L 439.665,764.675 Z "/>
			</g>
		</g>
		<g id="dp_group116">
			<text id="dp_text042" transform="matrix(1,0,0,1,347.241,605.562)" xml:space="preserve" fill="black" font-family="Arial" font-size="20" font-weight="400" font-style="italic" x="0" y="0">ig</text>
			<text id="dp_text043" transform="matrix(1,0,0,1,347.241,605.562)" xml:space="preserve" fill="black" font-family="Arial" font-size="20" font-weight="400" font-style="italic" x="15.7547" y="0"> </text>
			<text id="dp_text044" transform="matrix(1,0,0,1,364.488,606.555)" xml:space="preserve" fill="black" font-family="Arial" font-size="25" font-weight="400" x="0" y="0">(2</text>
			<text id="dp_text045" transform="matrix(1,0,0,1,364.488,606.555)" xml:space="preserve" fill="black" font-family="Universal Math 1" font-size="25" font-weight="400" font-style="italic" x="22.0653" y="0">   </text>
			<text id="dp_text046" transform="matrix(1,0,0,1,364.488,606.555)" xml:space="preserve" fill="black" font-family="Arial" font-size="25" font-weight="400" x="40.6973" y="0">) </text>
			<text id="dp_text047" transform="matrix(1,0,0,1,409.155,592.799)" xml:space="preserve" fill="black" font-family="Arial" font-size="21" font-weight="400" x="0" y="0">4 </text>
			<path id="dp_path123" fill="black" fill-rule="evenodd" d="M 394.149,598.236 C 394.017,598.236 393.897,598.24 393.788,598.245 C 393.679,598.252 393.589,598.256 393.524,598.256 C 392.765,598.256 392.193,598.433 391.809,598.788 C 391.427,599.144 391.079,599.751 390.772,600.609 L 390.069,600.609 L 390.163,600.337 C 390.431,599.544 390.716,598.876 391.017,598.331 C 391.319,597.783 391.664,597.341 392.049,597.003 C 392.437,596.664 392.884,596.419 393.389,596.271 C 393.893,596.121 394.475,596.047 395.136,596.047 L 406.776,596.047 L 406.033,598.236 L 401.921,598.236 C 401.884,598.301 401.855,598.368 401.832,598.433 L 401.631,599.028 C 401.401,599.703 401.232,600.347 401.123,600.959 C 401.015,601.567 400.924,602.137 400.852,602.665 C 400.78,603.193 400.721,603.673 400.675,604.1 C 400.627,604.529 400.551,604.901 400.445,605.215 C 400.024,606.452 399.391,607.071 398.545,607.071 C 398.148,607.071 397.888,606.917 397.768,606.612 C 397.649,606.307 397.683,605.884 397.867,605.339 C 397.98,605.008 398.16,604.62 398.412,604.175 C 398.661,603.728 398.936,603.227 399.233,602.665 C 399.532,602.104 399.844,601.487 400.175,600.809 C 400.503,600.132 400.803,599.397 401.071,598.607 L 401.199,598.236 L 396.533,598.236 L 396.263,599.028 C 396.033,599.703 395.864,600.347 395.755,600.959 C 395.648,601.567 395.557,602.137 395.484,602.665 C 395.412,603.193 395.355,603.673 395.307,604.1 C 395.26,604.529 395.183,604.901 395.077,605.215 C 394.657,606.452 394.023,607.071 393.179,607.071 C 392.78,607.071 392.52,606.917 392.4,606.612 C 392.283,606.307 392.316,605.884 392.5,605.339 C 392.613,605.008 392.792,604.62 393.044,604.175 C 393.295,603.728 393.569,603.227 393.867,602.665 C 394.165,602.104 394.477,601.487 394.808,600.809 C 395.136,600.132 395.435,599.397 395.703,598.607 L 395.831,598.236 Z "/>
			<path id="dp_path124" fill="black" fill-rule="evenodd" d="M 432.659,596.179 C 432.165,595.783 431.724,595.429 431.333,595.124 C 430.941,594.819 430.624,594.513 430.383,594.208 C 430.139,593.9 429.981,593.575 429.909,593.227 C 429.837,592.88 429.887,592.46 430.055,591.961 C 430.319,591.185 430.789,590.559 431.464,590.077 C 432.139,589.599 432.921,589.359 433.813,589.359 C 434.424,589.359 435.007,589.495 435.557,589.765 C 436.109,590.037 436.581,590.444 436.976,590.989 C 437.165,591.253 437.323,591.519 437.448,591.783 C 437.572,592.047 437.667,592.291 437.733,592.513 C 437.797,592.736 437.841,592.925 437.861,593.083 C 437.881,593.24 437.887,593.335 437.876,593.368 C 437.791,593.616 437.676,593.739 437.527,593.739 C 437.411,593.739 437.304,593.689 437.205,593.591 C 437.108,593.492 436.991,593.36 436.859,593.195 C 436.724,593.029 436.563,592.835 436.373,592.612 C 436.185,592.389 435.937,592.145 435.632,591.881 C 435.132,591.452 434.631,591.135 434.123,590.928 C 433.615,590.721 433.147,590.619 432.717,590.619 C 432.255,590.619 431.86,590.721 431.535,590.928 C 431.208,591.135 430.983,591.419 430.859,591.784 C 430.763,592.065 430.757,592.309 430.845,592.515 C 430.932,592.721 431.091,592.924 431.32,593.124 C 431.548,593.323 431.833,593.529 432.175,593.744 C 432.512,593.959 432.884,594.223 433.291,594.536 C 434.035,595.116 434.66,595.665 435.169,596.185 C 435.677,596.708 436.057,597.248 436.313,597.811 C 436.567,598.373 436.695,598.968 436.697,599.597 C 436.697,600.225 436.569,600.919 436.311,601.681 C 436.045,602.457 435.68,603.161 435.209,603.788 C 434.74,604.419 434.199,604.963 433.588,605.425 C 432.975,605.888 432.319,606.245 431.615,606.493 C 430.911,606.74 430.203,606.864 429.492,606.864 C 428.765,606.864 428.139,606.74 427.612,606.493 C 427.084,606.245 426.668,605.889 426.363,605.425 C 426.057,604.963 425.884,604.419 425.841,603.791 C 425.797,603.163 425.909,602.459 426.173,601.683 C 426.649,600.277 427.451,599.117 428.573,598.2 C 429.699,597.281 431.024,596.716 432.549,596.501 Z M 432.775,597.203 C 431.919,597.203 431.137,597.575 430.432,598.317 C 429.728,599.059 429.119,600.183 428.609,601.683 C 427.593,604.669 427.969,606.163 429.729,606.163 C 431.479,606.163 432.857,604.669 433.873,601.683 C 434.889,598.696 434.523,597.203 432.775,597.203 Z "/>
			<path id="dp_path125" fill="black" fill-rule="evenodd" d="M 345.931,599.256 L 336.371,599.256 L 336.371,597.604 L 345.931,597.604 Z "/>
			<path id="dp_path126" fill="black" fill-rule="evenodd" d="M 446.716,609.359 C 445.515,607.841 444.499,606.067 443.668,604.033 C 442.836,602 442.421,599.893 442.421,597.713 C 442.421,595.795 442.731,593.952 443.352,592.193 C 444.079,590.152 445.2,588.119 446.716,586.093 L 448.284,586.093 C 447.304,587.772 446.656,588.972 446.34,589.689 C 445.847,590.803 445.456,591.965 445.173,593.175 C 444.824,594.684 444.651,596.201 444.651,597.727 C 444.651,601.607 445.863,605.487 448.284,609.359 Z "/>
			<path id="dp_path127" fill="black" fill-rule="evenodd" d="M 475.999,601.267 L 475.999,596.395 L 471.168,596.395 L 471.168,594.372 L 475.999,594.372 L 475.999,589.541 L 478.063,589.541 L 478.063,594.372 L 482.893,594.372 L 482.893,596.395 L 478.063,596.395 L 478.063,601.267 Z "/>
			<path id="dp_path128" fill="black" fill-rule="evenodd" d="M 524.821,596.416 L 513.116,596.416 L 513.116,594.392 L 524.821,594.392 Z "/>
			<path id="dp_path129" fill="black" fill-rule="evenodd" d="M 556.757,609.359 L 555.188,609.359 C 557.609,605.487 558.821,601.607 558.821,597.727 C 558.821,596.209 558.648,594.704 558.299,593.212 C 558.023,592 557.639,590.84 557.145,589.725 C 556.829,588.999 556.177,587.788 555.188,586.093 L 556.757,586.093 C 558.272,588.119 559.393,590.152 560.12,592.193 C 560.741,593.952 561.051,595.795 561.051,597.713 C 561.051,599.893 560.635,602 559.8,604.033 C 558.964,606.067 557.951,607.841 556.757,609.359 Z "/>
			<text id="dp_text048" transform="matrix(1,1.46616e-015,-1.46617e-015,1,451.893,604.248)" xml:space="preserve" fill="#5407c0" font-family="Arial" font-size="20" font-weight="700" x="0" y="0">P</text>
			<text id="dp_text049" transform="matrix(1,1.46616e-015,-1.46617e-015,1,451.893,604.248)" xml:space="preserve" fill="#5407c0" font-family="Arial" font-size="12" font-weight="700" font-style="italic" x="13.492" y="0"> </text>
			<g id="dp_group132">
				<text id="dp_text050" transform="matrix(1,1.46616e-015,-1.46617e-015,1,528.818,604.248)" xml:space="preserve" fill="#0c10e9" font-family="Arial" font-size="20" font-weight="700" x="0" y="0">P</text>
				<text id="dp_text051" transform="matrix(1,1.46616e-015,-1.46617e-015,1,528.818,604.248)" xml:space="preserve" fill="#0c10e9" font-family="Arial" font-size="12" font-weight="700" font-style="italic" x="13.492" y="0"> </text>
				<text id="dp_text052" transform="matrix(1,0,0,1,541.639,614.167)" xml:space="preserve" fill="#0c10e9" font-family="Arial" font-size="17" font-weight="400" x="0" y="0">C </text>
			</g>
			<g id="dp_group136">
				<text id="dp_text053" transform="matrix(1,1.46616e-015,-1.46617e-015,1,486.355,604.248)" xml:space="preserve" fill="#0c10e9" font-family="Arial" font-size="20" font-weight="700" x="0" y="0">P</text>
				<text id="dp_text054" transform="matrix(1,1.46616e-015,-1.46617e-015,1,486.355,604.248)" xml:space="preserve" fill="#0c10e9" font-family="Arial" font-size="12" font-weight="700" font-style="italic" x="13.492" y="0"> </text>
				<text id="dp_text055" transform="matrix(1,0,0,1,499.176,614.167)" xml:space="preserve" fill="#0c10e9" font-family="Arial" font-size="17" font-weight="400" x="0" y="0">D </text>
			</g>
		</g>
		<g id="dp_group140">
			<path id="dp_path141" fill="#0c10e9" fill-rule="evenodd" d="M 210.211,808.156 L 198.507,808.156 L 198.507,806.132 L 210.211,806.132 Z "/>
			<text id="dp_text056" transform="matrix(1,0,0,1,221.944,825.795)" xml:space="preserve" fill="#0c10e9" font-family="Arial" font-size="17" font-weight="400" x="0" y="0">B </text>
			<text id="dp_text057" transform="matrix(1,1.46616e-015,-1.46617e-015,1,211.123,815.876)" xml:space="preserve" fill="#0c10e9" font-family="Arial" font-size="20" font-weight="700" x="0" y="0">P</text>
			<text id="dp_text058" transform="matrix(1,1.46616e-015,-1.46617e-015,1,211.123,815.876)" xml:space="preserve" fill="#0c10e9" font-family="Arial" font-size="12" font-weight="700" font-style="italic" x="13.492" y="0"> </text>
		</g>
	</g>
</svg>