<?xml version="1.0" encoding="UTF-8" standalone="no"?>
<!-- Created with Inkscape (http://www.inkscape.org/) -->
<svg
   xmlns:svg="http://www.w3.org/2000/svg"
   xmlns="http://www.w3.org/2000/svg"
   version="1.0"
   width="640"
   height="420"
   id="svg2">
  <defs
     id="defs4" />
  <g
     transform="translate(-24.850539,-135.94876)"
     id="layer1">
    <path
       d="M 306.41325,277.83864 C 305.97315,278.07401 305.53302,278.30939 305.09376,278.5434 C 304.65448,278.77743 304.21606,279.01008 303.7793,279.24001 C 303.34254,279.46994 302.90748,279.69716 302.47491,279.92032 C 302.04235,280.14348 301.61227,280.36258 301.18552,280.57634 C 300.75874,280.79009 300.33531,280.99847 299.91594,281.20024 C 299.49657,281.40204 299.0813,281.59717 298.67086,281.78449 C 298.26041,281.97182 297.85482,282.15127 297.45477,282.32177 C 297.05472,282.49226 296.66023,282.65374 296.27196,282.80516 C 295.88369,282.95658 295.50165,283.09788 295.12645,283.22814 C 294.75124,283.35838 294.38292,283.47747 294.02199,283.58461 C 293.66107,283.69171 293.3076,283.78676 292.96205,283.86897 C 292.61651,283.95118 292.27894,284.02048 291.94974,284.0762 C 291.62056,284.13191 291.29981,284.17399 290.98783,284.20182 C 290.67586,284.22966 290.37272,284.24318 290.0787,284.24194 C 289.78466,284.2407 289.49982,284.22461 289.22434,284.19333 C 288.94887,284.16204 288.68283,284.11547 288.42637,284.05341 C 288.1699,283.99132 287.92308,283.91366 287.68595,283.82027 C 287.4488,283.72689 287.22143,283.61772 287.0038,283.49274 C 286.78618,283.36776 286.57836,283.2269 286.38027,283.07028 C 286.18217,282.91368 285.99388,282.7412 285.8152,282.55313 C 285.63654,282.36506 285.46756,282.16128 285.30805,281.94216 C 285.14856,281.72303 284.99859,281.48849 284.85785,281.23898 C 284.71711,280.98948 284.58567,280.72492 284.46315,280.44589 C 284.34064,280.16687 284.22712,279.87329 284.12215,279.56585 C 284.01718,279.2584 283.92082,278.937 283.83259,278.60243 C 283.74437,278.26787 283.66433,277.92005 283.59192,277.55989 C 283.51949,277.19972 283.45477,276.82711 283.39712,276.44304 C 283.33948,276.05893 283.28895,275.66331 283.2449,275.25721 C 283.20086,274.85107 283.16334,274.4344 283.13164,274.00828 C 283.09993,273.58217 283.07409,273.14656 283.0534,272.70262 C 283.03269,272.25871 283.01715,271.80642 283.00601,271.34702 C 282.99487,270.88759 282.98816,270.421 282.98508,269.94853 C 282.98201,269.47607 282.98258,268.99768 282.98599,268.51469 C 282.98942,268.03169 282.99568,267.54408 283.00399,267.05318 C 283.01227,266.56227 283.02263,266.06808 283.03414,265.57194 C 283.0457,265.07579 283.05843,264.57769 283.07155,264.07903 C 283.08465,263.58034 283.0981,263.0811 283.11108,262.58262 C 283.12407,262.08412 283.13657,261.58642 283.14773,261.09085 C 283.15893,260.5953 283.16877,260.10187 283.17649,259.61194 C 283.18418,259.122 283.18974,258.63557 283.19232,258.1539 C 283.19492,257.67225 283.19454,257.19541 283.19041,256.72464 C 283.18629,256.25388 283.17837,255.78921 283.16599,255.33185 C 283.15357,254.87448 283.13663,254.42448 283.11444,253.98294 C 283.09228,253.5414 283.06482,253.10839 283.03146,252.68498 C 282.99809,252.26156 282.95875,251.84781 282.91286,251.44469 C 282.86695,251.04159 282.81446,250.64919 282.75477,250.26837 C 282.69511,249.88758 282.62821,249.51845 282.55363,249.16181 C 282.47902,248.80518 282.39669,248.4611 282.30612,248.1303 C 282.21557,247.79949 282.1168,247.48203 282.00938,247.17854 C 281.90197,246.87507 281.7859,246.5856 281.66083,246.31072 C 281.53577,246.03581 281.40168,245.77556 281.2583,245.53031 C 281.11494,245.28506 280.96223,245.05492 280.80003,244.84016 C 280.63784,244.62542 280.46607,244.42615 280.28467,244.24253 C 280.10326,244.05888 279.91214,243.89098 279.71128,243.73885 C 279.51042,243.58673 279.29977,243.45044 279.07937,243.32998 C 278.85896,243.20949 278.62875,243.10488 278.38887,243.01596 C 278.14899,242.92704 277.89936,242.85391 277.64016,242.79625 C 277.38099,242.73857 277.11219,242.69648 276.83405,242.6695 C 276.55591,242.64254 276.26838,242.63079 275.97177,242.63374 C 275.67516,242.6367 275.36944,242.65441 275.05497,242.68628 C 274.74051,242.71815 274.41726,242.76424 274.0857,242.82381 C 273.75413,242.88338 273.41418,242.9565 273.0664,243.04236 C 272.71861,243.12819 272.36292,243.22685 271.9999,243.33734 C 271.6369,243.44785 271.26649,243.57029 270.88937,243.70368 C 270.51224,243.83704 270.12833,243.98139 269.7383,244.13566 C 269.34827,244.2899 268.95208,244.45414 268.55048,244.62715 C 268.14887,244.80017 267.74177,244.98206 267.32997,245.17159 C 266.91818,245.36108 266.50165,245.5583 266.08112,245.76192 C 265.66061,245.96557 265.2361,246.17566 264.80842,246.3909 C 264.38073,246.60617 263.94985,246.82659 263.51659,247.05088 C 263.08332,247.27517 262.64767,247.50332 262.21043,247.734 C 261.77325,247.96467 261.33446,248.19789 260.89497,248.43227 C 260.45547,248.66664 260.01525,248.90219 259.57516,249.13753 C 259.13506,249.3729 258.69508,249.60807 258.25608,249.84165 C 257.81707,250.07526 257.379,250.30728 256.94275,250.53642 C 256.50649,250.76556 256.07205,250.99175 255.6402,251.21374 C 255.20836,251.43572 254.77914,251.65344 254.35336,251.86563 C 253.92754,252.07784 253.50518,252.28448 253.08699,252.48435 C 252.6688,252.6842 252.25482,252.87726 251.84577,253.06231 C 251.43673,253.24738 251.03264,253.42441 250.63419,253.59231 C 250.23573,253.76023 249.84295,253.91894 249.45646,254.06747 C 249.06998,254.21599 248.68983,254.35424 248.31658,254.4813 C 247.94336,254.60834 247.57709,254.72413 247.2183,254.8278 C 246.85951,254.93145 246.50825,255.02293 246.16499,255.10143 C 245.82171,255.17998 245.48649,255.24546 245.15971,255.29729 C 244.83292,255.34908 244.51466,255.38715 244.20519,255.41089 C 243.89574,255.43464 243.59518,255.44399 243.30378,255.43852 C 243.01236,255.43305 242.73018,255.41265 242.45739,255.37702 C 242.18461,255.34137 241.9213,255.2904 241.66756,255.22388 C 241.41386,255.15738 241.16978,255.0752 240.93543,254.97733 C 240.70108,254.87944 240.4765,254.76574 240.26166,254.63624 C 240.04683,254.50676 239.8418,254.36135 239.64649,254.20023 C 239.45119,254.0391 239.26565,253.86214 239.08977,253.66959 C 238.91384,253.47704 238.74761,253.26884 238.59081,253.04534 C 238.43402,252.82185 238.28672,252.58295 238.14863,252.32916 C 238.01053,252.07538 237.88167,251.80661 237.76172,251.52345 C 237.64175,251.2403 237.53073,250.94266 237.42821,250.63126 C 237.32569,250.31984 237.23172,249.99459 237.14582,249.65627 C 237.05991,249.31795 236.98212,248.9665 236.91188,248.6028 C 236.84162,248.23912 236.77901,247.8631 236.72337,247.47575 C 236.66774,247.08841 236.61914,246.68965 236.57694,246.28052 C 236.53474,245.87144 236.49897,245.45191 236.46893,245.02312 C 236.43889,244.59431 236.41462,244.15618 236.39535,243.70991 C 236.37613,243.26361 236.36193,242.80914 236.35203,242.34771 C 236.34214,241.88628 236.33657,241.41786 236.33451,240.94372 C 236.33245,240.46959 236.33394,239.98974 236.33815,239.50543 C 236.34237,239.02117 236.34931,238.53246 236.3582,238.04063 C 236.36705,237.54882 236.37785,237.05388 236.3897,236.55723 C 236.40157,236.06056 236.41451,235.56213 236.42769,235.06331 C 236.44089,234.56449 236.4543,234.06528 236.46715,233.56705 C 236.47995,233.06881 236.49219,232.57158 236.50297,232.07663 C 236.51377,231.58173 236.5231,231.08914 236.53018,230.60023 C 236.53726,230.1113 236.54203,229.62607 236.54377,229.14583 C 236.5455,228.66556 236.54416,228.19031 236.53893,227.72129 C 236.53372,227.2523 236.52461,226.78957 236.5109,226.33434 C 236.49719,225.87907 236.47884,225.43135 236.45514,224.99227 C 236.43145,224.55317 236.40241,224.12278 236.3673,223.70215 C 236.33224,223.28151 236.29109,222.87068 236.24331,222.47065 C 236.1955,222.07058 236.14103,221.68139 236.07927,221.30393 C 236.01753,220.92648 235.9485,220.56083 235.87169,220.20779 C 235.79487,219.85472 235.71023,219.51436 235.61734,219.18739 C 235.52443,218.86037 235.42324,218.54686 235.31334,218.24737 C 235.20347,217.9479 235.08483,217.66255 234.9572,217.39184 C 234.82956,217.12111 234.69284,216.8651 234.54681,216.62416 C 234.40077,216.38323 234.24538,216.15746 234.08046,215.94711 C 233.91553,215.7368 233.74101,215.54199 233.55685,215.36283 C 233.37267,215.18367 233.17877,215.02028 232.97512,214.87266 C 232.77147,214.72506 232.55803,214.59329 232.33483,214.47734 C 232.11165,214.36137 231.87864,214.26129 231.63598,214.17687 C 231.39332,214.09243 231.14093,214.02375 230.87903,213.97051 C 230.61711,213.91728 230.34561,213.87955 230.06481,213.85692 C 229.78399,213.83427 229.49382,213.82679 229.19462,213.83395 C 228.89541,213.84109 228.58713,213.86294 228.27019,213.89884 C 227.95323,213.93474 227.62754,213.98479 227.2936,214.04821 C 226.95968,214.11161 226.61742,214.18847 226.26739,214.27797 C 225.91736,214.36743 225.55951,214.46958 225.1944,214.58347 C 224.82929,214.69736 224.45691,214.82305 224.07784,214.95953 C 223.6988,215.09601 223.31306,215.24333 222.92129,215.40041 C 222.52953,215.55747 222.1317,215.72436 221.72854,215.89988 C 221.3254,216.0754 220.91687,216.25961 220.50372,216.4513 C 220.09059,216.64299 219.67282,216.84218 219.25119,217.04763 C 218.82954,217.25309 218.40405,217.4648 217.97545,217.68152 C 217.54688,217.8982 217.1152,218.11991 216.68127,218.34528 C 216.24734,218.57062 215.81114,218.79967 215.37351,219.03105 C 214.93585,219.26244 214.49678,219.49614 214.0571,219.73081 C 213.61742,219.96551 213.17713,220.20115 212.73708,220.43643 C 212.29704,220.6717 211.85723,220.90656 211.4185,221.1397 C 210.97978,221.37283 210.54214,221.6042 210.10643,221.83246 C 209.67069,222.06074 209.23689,222.28591 208.80583,222.50664 C 208.37474,222.72738 207.9464,222.94369 207.5216,223.15427 C 207.09679,223.36486 206.67552,223.56971 206.25855,223.76762 C 205.84157,223.96551 205.42892,224.15643 205.02129,224.33917 C 204.61369,224.52192 204.21113,224.69647 203.8143,224.86175 C 203.41746,225.02702 203.02641,225.18295 202.64174,225.32851 C 202.25706,225.47409 201.87883,225.60926 201.50759,225.73309 C 201.13635,225.85692 200.77215,225.96932 200.41553,226.0695 C 200.05887,226.16967 199.70986,226.25754 199.36888,226.33232 C 199.02793,226.40713 198.69505,226.46878 198.37071,226.51668 C 198.04636,226.56456 197.73055,226.59859 197.42365,226.61823 C 197.11673,226.63786 196.81876,226.64303 196.52997,226.63329 C 196.2412,226.62358 195.96166,226.59884 195.6916,226.55883 C 195.42149,226.51882 195.16094,226.46342 194.90995,226.39242 C 194.65899,226.32146 194.4177,226.23481 194.18612,226.13243 C 193.95456,226.03005 193.73275,225.91182 193.52072,225.77781 C 193.30866,225.64379 193.10644,225.49389 192.91391,225.32824 C 192.7214,225.16262 192.53863,224.98115 192.36548,224.78416 C 192.19231,224.58716 192.02882,224.3745 191.87472,224.14665 C 191.72062,223.91876 191.57601,223.67556 191.44053,223.41751 C 191.30507,223.15949 191.17879,222.88651 191.06139,222.59925 C 190.94395,222.31198 190.83542,222.01032 190.73532,221.69499 C 190.63522,221.37964 190.54363,221.05054 190.46002,220.70849 C 190.37642,220.36646 190.30084,220.01141 190.23276,219.64422 C 190.16468,219.27703 190.10414,218.89766 190.05047,218.50708 C 189.99684,218.1165 189.95016,217.71466 189.90977,217.3026 C 189.86939,216.89056 189.83534,216.46825 189.80694,216.03681 C 189.7785,215.60538 189.75577,215.16477 189.73795,214.71617 C 189.72012,214.26758 189.70725,213.81096 189.69859,213.34757 C 189.6899,212.88417 189.68542,212.41395 189.68438,211.9382 C 189.6833,211.46246 189.68567,210.98119 189.69064,210.49567 C 189.69563,210.01015 189.70323,209.52037 189.71262,209.0277 C 189.72202,208.53503 189.73321,208.03944 189.74538,207.54229 C 189.75751,207.04516 189.77065,206.54644 189.78389,206.04754 C 189.79713,205.54865 189.81048,205.04955 189.82312,204.55164 C 189.83576,204.0537 189.84766,203.55696 189.85802,203.06273 C 189.86838,202.56849 189.87718,202.07679 189.88357,201.58895 C 189.89001,201.10111 189.89401,200.61714 189.89486,200.13834 C 189.89568,199.65953 189.89332,199.18593 189.88698,198.71872 C 189.88063,198.25154 189.87032,197.79081 189.85525,197.33774 C 189.84022,196.88465 189.82042,196.43923 189.79519,196.00266 C 189.76993,195.56607 189.73925,195.13834 189.70242,194.72052 C 189.66561,194.30269 189.62263,193.89483 189.57293,193.4979 C 189.52322,193.10097 189.46671,192.71502 189.4029,192.34093 C 189.33906,191.96684 189.26787,191.60471 189.1888,191.2553 C 189.10978,190.90586 189.0228,190.56925 188.92753,190.2461 C 188.83225,189.92296 188.72862,189.61338 188.61623,189.31794 C 188.50386,189.0225 188.38269,188.74128 188.25247,188.47475 C 188.12224,188.20823 187.98287,187.95649 187.83417,187.71987 C 187.68546,187.48327 187.52737,187.26189 187.3597,187.05597 C 187.19206,186.85005 187.01479,186.65971 186.82784,186.48505 C 186.64089,186.31038 186.4442,186.15151 186.23776,186.00842 C 186.03132,185.8653 185.81509,185.73809 185.58909,185.62666 C 185.36313,185.51519 185.12734,185.41963 184.88192,185.33969 C 184.63649,185.25974 184.38135,185.19553 184.11671,185.14669 C 183.85207,185.09788 183.57787,185.06452 183.2944,185.04618 C 183.01093,185.02784 182.71812,185.02463 182.41635,185.03594 C 182.11458,185.04727 181.80378,185.07322 181.48434,185.11313 C 181.16491,185.15306 180.83681,185.20701 180.5005,185.27426 C 180.1642,185.34147 179.81967,185.42204 179.46742,185.51511 C 179.11518,185.60818 178.75517,185.71381 178.38801,185.83103 C 178.02084,185.94826 177.64646,186.07718 177.26553,186.21672 C 176.88457,186.35627 176.49703,186.50651 176.10354,186.66635 C 175.71007,186.82621 175.31063,186.99569 174.90596,187.17368 C 174.50128,187.35165 174.09135,187.53815 173.67691,187.73194 C 173.26247,187.92575 172.84349,188.12689 172.42077,188.33409 C 171.99805,188.54131 171.57155,188.75461 171.14213,188.97272 C 170.71267,189.19081 170.28026,189.41372 169.84569,189.6401 C 169.41114,189.8665 168.97441,190.09638 168.53639,190.32839 C 168.09835,190.5604 167.65898,190.79456 167.21914,191.0295 C 166.7793,191.26443 166.339,191.50013 165.89903,191.73526 C 165.45907,191.9704 165.01947,192.20494 164.58107,192.43755 C 164.14268,192.67013 163.7055,192.90077 163.27033,193.12814 C 162.83516,193.3555 162.40204,193.57956 161.97177,193.79901 C 161.54148,194.01847 161.11406,194.23328 160.69027,194.44221 C 160.26649,194.65115 159.84636,194.85415 159.43063,195.05005 C 159.01491,195.2459 158.6036,195.43464 158.19745,195.61501 C 157.79128,195.79543 157.39028,195.96744 156.99511,196.13004 C 156.59995,196.29261 156.21062,196.4457 155.8278,196.58831 C 155.44497,196.7309 155.06866,196.86293 154.69943,196.98349 C 154.33023,197.10405 153.96813,197.21306 153.61367,197.30971 C 153.25921,197.40636 152.91244,197.49057 152.57378,197.56161 C 152.23514,197.63266 151.90465,197.69046 151.58273,197.73438 C 151.26084,197.77831 150.94753,197.80828 150.64319,197.82379 C 150.33881,197.83929 150.04345,197.84026 149.7573,197.82623 C 149.47118,197.81223 149.19433,197.78317 148.92695,197.73878 C 148.65957,197.69437 148.40172,197.63452 148.15352,197.55911 C 147.9053,197.48365 147.66679,197.39254 147.438,197.28561 C 147.20923,197.17873 146.9902,197.05597 146.78098,196.91743 C 146.57171,196.77888 146.37227,196.62446 146.18253,196.45432 C 145.99277,196.28419 145.8128,196.09825 145.64238,195.8968 C 145.47198,195.69536 145.31117,195.47832 145.15979,195.24609 C 145.00837,195.01385 144.86642,194.76634 144.73356,194.50405 C 144.60071,194.24178 144.47702,193.96464 144.36211,193.67329 C 144.24721,193.38194 144.14114,193.07628 144.04347,192.75704 C 143.94577,192.43779 143.85654,192.1049 143.77519,191.75916 C 143.69388,191.41344 143.62052,191.05478 143.55457,190.68416 C 143.48861,190.31351 143.43011,189.93079 143.37844,189.53704 C 143.32677,189.14326 143.28198,188.73837 143.24338,188.32342 C 143.20479,187.90847 143.17244,187.48341 143.14562,187.04939 C 143.1188,186.61536 143.09756,186.17233 143.08113,185.72146 C 143.06472,185.27061 143.05313,184.8119 143.04564,184.34657 C 143.03814,183.88128 143.03474,183.40931 143.03465,182.93203 C 143.03454,182.45474 143.03774,181.97207 143.04346,181.48536 C 143.04918,180.99866 143.05739,180.50791 143.06728,180.01442 C 143.07718,179.52093 143.08874,179.02474 143.10117,178.52716 C 143.11357,178.02961 143.12683,177.53067 143.14008,177.03176"
       id="path3299"
       style="fill:none;fill-opacity:1;stroke:#000000;stroke-width:4.22988701;stroke-linecap:round;stroke-linejoin:round;stroke-miterlimit:4;stroke-dasharray:none;stroke-opacity:1" />
    <path
       d="M 309.18284,284.07724 L 204.78037,378.2621"
       id="path3303"
       style="fill:#ff0000;fill-rule:evenodd;stroke:#ff0000;stroke-width:4.22988701;stroke-linecap:round;stroke-linejoin:miter;stroke-miterlimit:4;stroke-dasharray:none;stroke-opacity:1" />
    <path
       d="M 377.78894,275.4834 L 328.35486,304.02418 L 328.35486,246.94261 L 377.78894,275.4834 z"
       transform="matrix(0.19661,-0.1742675,-0.1564942,-0.1765581,231.71748,440.39756)"
       id="path3305"
       style="fill:#ff0000;fill-opacity:1;stroke:#ff0000;stroke-width:7.08661413;stroke-linecap:round;stroke-linejoin:miter;stroke-miterlimit:4;stroke-dasharray:none;stroke-opacity:1" />
    <path
       d="M 478.61321,277.6491 C 479.05331,277.88447 479.49344,278.11986 479.9327,278.35387 C 480.37199,278.58789 480.8104,278.82054 481.24716,279.05048 C 481.68392,279.28041 482.11898,279.50763 482.55156,279.73078 C 482.98411,279.95395 483.41419,280.17304 483.84094,280.3868 C 484.26772,280.60055 484.69115,280.80893 485.11052,281.0107 C 485.52989,281.21251 485.94516,281.40763 486.35561,281.59495 C 486.76605,281.78228 487.17164,281.96173 487.57169,282.13224 C 487.97174,282.30273 488.36623,282.4642 488.75451,282.61562 C 489.14277,282.76705 489.52481,282.90835 489.90002,283.03861 C 490.27522,283.16885 490.64354,283.28794 491.00447,283.39507 C 491.36539,283.50218 491.71887,283.59722 492.06441,283.67943 C 492.40996,283.76164 492.74752,283.83094 493.07672,283.88667 C 493.4059,283.94238 493.72665,283.98445 494.03863,284.01229 C 494.3506,284.04012 494.65374,284.05364 494.94776,284.0524 C 495.2418,284.05116 495.52665,284.03507 495.80212,284.00379 C 496.07759,283.9725 496.34363,283.92593 496.60009,283.86387 C 496.85656,283.80179 497.10338,283.72413 497.34052,283.63074 C 497.57766,283.53736 497.80503,283.42818 498.02266,283.30321 C 498.24028,283.17823 498.44811,283.03736 498.64619,282.88075 C 498.84429,282.72414 499.03258,282.55167 499.21126,282.3636 C 499.38992,282.17552 499.5589,281.97174 499.71841,281.75263 C 499.87791,281.5335 500.02787,281.29896 500.16861,281.04944 C 500.30935,280.79994 500.44079,280.53539 500.56331,280.25636 C 500.68582,279.97733 500.79935,279.68375 500.90431,279.37632 C 501.00928,279.06886 501.10564,278.74746 501.19388,278.41289 C 501.28209,278.07834 501.36214,277.73052 501.43454,277.37036 C 501.50697,277.01018 501.5717,276.63757 501.62934,276.2535 C 501.68698,275.8694 501.73751,275.47377 501.78156,275.06767 C 501.82561,274.66154 501.86313,274.24487 501.89483,273.81875 C 501.92653,273.39263 501.95237,272.95703 501.97307,272.51309 C 501.99377,272.06918 502.00931,271.61688 502.02045,271.15748 C 502.03159,270.69805 502.0383,270.23147 502.04138,269.759 C 502.04445,269.28653 502.04388,268.80814 502.04047,268.32515 C 502.03705,267.84216 502.03078,267.35455 502.02248,266.86364 C 502.01419,266.37274 502.00383,265.87855 501.99232,265.3824 C 501.98076,264.88626 501.96803,264.38816 501.95491,263.88949 C 501.94181,263.3908 501.92836,262.89156 501.91538,262.39308 C 501.90239,261.89458 501.88989,261.39688 501.87873,260.90132 C 501.86754,260.40576 501.85769,259.91233 501.84997,259.4224 C 501.84228,258.93246 501.83672,258.44603 501.83414,257.96436 C 501.83154,257.48271 501.83192,257.00588 501.83605,256.5351 C 501.84018,256.06435 501.8481,255.59967 501.86048,255.14231 C 501.8729,254.68494 501.88984,254.23494 501.91202,253.7934 C 501.93418,253.35186 501.96164,252.91885 501.995,252.49544 C 502.02837,252.07203 502.06771,251.65827 502.1136,251.25515 C 502.15951,250.85205 502.212,250.45965 502.27169,250.07883 C 502.33135,249.69804 502.39826,249.32891 502.47283,248.97228 C 502.54745,248.61564 502.62978,248.27156 502.72034,247.94076 C 502.81089,247.60995 502.90967,247.2925 503.01708,246.989 C 503.1245,246.68553 503.24057,246.39606 503.36563,246.12118 C 503.4907,245.84627 503.62478,245.58602 503.76816,245.34077 C 503.91152,245.09552 504.06423,244.86538 504.22643,244.65063 C 504.38863,244.43589 504.56039,244.23662 504.7418,244.05299 C 504.9232,243.86934 505.11432,243.70144 505.31519,243.54932 C 505.51604,243.39719 505.7267,243.2609 505.9471,243.14044 C 506.1675,243.01995 506.39771,242.91534 506.63759,242.82642 C 506.87748,242.7375 507.12711,242.66437 507.3863,242.60671 C 507.64547,242.54903 507.91427,242.50694 508.19241,242.47996 C 508.47055,242.453 508.75808,242.44125 509.05469,242.4442 C 509.35131,242.44716 509.65702,242.46487 509.97149,242.49675 C 510.28595,242.52861 510.6092,242.57471 510.94076,242.63427 C 511.27233,242.69384 511.61228,242.76696 511.96006,242.85282 C 512.30785,242.93865 512.66355,243.03731 513.02657,243.1478 C 513.38956,243.25831 513.75997,243.38075 514.13709,243.51414 C 514.51422,243.6475 514.89813,243.79185 515.28817,243.94612 C 515.67819,244.10036 516.07438,244.2646 516.47599,244.43761 C 516.8776,244.61064 517.28469,244.79252 517.69649,244.98205 C 518.10829,245.17154 518.52482,245.36876 518.94535,245.57238 C 519.36586,245.77603 519.79037,245.98612 520.21805,246.20136 C 520.64573,246.41663 521.07662,246.63706 521.50988,246.86134 C 521.94314,247.08563 522.37879,247.31379 522.81603,247.54446 C 523.25321,247.77514 523.69201,248.00835 524.1315,248.24273 C 524.571,248.4771 525.01121,248.71266 525.4513,248.94799 C 525.8914,249.18336 526.33138,249.41853 526.77038,249.65211 C 527.2094,249.88572 527.64746,250.11774 528.08371,250.34688 C 528.51998,250.57602 528.95442,250.80222 529.38627,251.0242 C 529.8181,251.24618 530.24732,251.4639 530.67311,251.67609 C 531.09892,251.8883 531.52129,252.09494 531.93948,252.29481 C 532.35767,252.49466 532.77164,252.68772 533.18069,252.87277 C 533.58974,253.05785 533.99383,253.23488 534.39227,253.40277 C 534.79074,253.57069 535.18351,253.72941 535.57001,253.87793 C 535.95648,254.02645 536.33664,254.1647 536.70988,254.29176 C 537.08311,254.4188 537.44937,254.53459 537.80817,254.63826 C 538.16696,254.74191 538.51821,254.83339 538.86148,254.91189 C 539.20476,254.99044 539.53998,255.05592 539.86675,255.10775 C 540.19355,255.15955 540.51181,255.19761 540.82128,255.22135 C 541.13072,255.2451 541.43129,255.25446 541.72269,255.24898 C 542.0141,255.24352 542.29629,255.22311 542.56908,255.18748 C 542.84186,255.15184 543.10517,255.10086 543.3589,255.03434 C 543.61261,254.96784 543.85669,254.88566 544.09103,254.78779 C 544.32539,254.6899 544.54997,254.57621 544.76481,254.4467 C 544.97964,254.31722 545.18466,254.17182 545.37998,254.01069 C 545.57528,253.84957 545.76081,253.67261 545.9367,253.48005 C 546.11262,253.2875 546.27885,253.0793 546.43565,252.8558 C 546.59245,252.63231 546.73974,252.39341 546.87783,252.13962 C 547.01594,251.88584 547.14479,251.61708 547.26474,251.33391 C 547.38472,251.05076 547.49573,250.75312 547.59826,250.44172 C 547.70077,250.1303 547.79475,249.80505 547.88065,249.46673 C 547.96655,249.12842 548.04435,248.77696 548.11459,248.41326 C 548.18484,248.04958 548.24746,247.67356 548.3031,247.28621 C 548.35873,246.89887 548.40733,246.50011 548.44952,246.09099 C 548.49172,245.6819 548.5275,245.26237 548.55754,244.83358 C 548.58758,244.40478 548.61185,243.96664 548.63111,243.52037 C 548.65034,243.07407 548.66454,242.6196 548.67444,242.15818 C 548.68433,241.69674 548.6899,241.22833 548.69196,240.75418 C 548.69402,240.28006 548.69253,239.8002 548.68832,239.31589 C 548.68409,238.83163 548.67715,238.34292 548.66827,237.85109 C 548.65942,237.35928 548.64862,236.86434 548.63677,236.36769 C 548.6249,235.87102 548.61196,235.37259 548.59878,234.87377 C 548.58557,234.37495 548.57217,233.87574 548.55931,233.37752 C 548.54651,232.87927 548.53428,232.38204 548.5235,231.8871 C 548.5127,231.39219 548.50337,230.8996 548.49629,230.41069 C 548.48921,229.92176 548.48444,229.43653 548.48269,228.95629 C 548.48097,228.47602 548.48231,228.00077 548.48754,227.53175 C 548.49274,227.06276 548.50186,226.60003 548.51556,226.1448 C 548.52928,225.68953 548.54763,225.24181 548.57132,224.80273 C 548.59502,224.36363 548.62406,223.93324 548.65917,223.51261 C 548.69422,223.09197 548.73538,222.68114 548.78315,222.28111 C 548.83096,221.88104 548.88544,221.49185 548.94719,221.11439 C 549.00894,220.73694 549.07797,220.37129 549.15477,220.01825 C 549.23159,219.66518 549.31624,219.32482 549.40912,218.99785 C 549.50203,218.67083 549.60323,218.35731 549.71313,218.05783 C 549.823,217.75836 549.94163,217.47301 550.06926,217.2023 C 550.19691,216.93157 550.33363,216.67556 550.47966,216.43462 C 550.6257,216.19369 550.78109,215.96792 550.94601,215.75757 C 551.11094,215.54726 551.28545,215.35244 551.46962,215.17329 C 551.6538,214.99413 551.84769,214.83074 552.05135,214.68312 C 552.255,214.53552 552.46843,214.40375 552.69164,214.28779 C 552.91482,214.17183 553.14783,214.07175 553.39048,213.98733 C 553.63315,213.90289 553.88553,213.83421 554.14744,213.78097 C 554.40936,213.72774 554.68086,213.69001 554.96166,213.66738 C 555.24248,213.64473 555.53265,213.63725 555.83185,213.64441 C 556.13105,213.65155 556.43934,213.6734 556.75628,213.7093 C 557.07324,213.7452 557.39892,213.79525 557.73287,213.85866 C 558.06679,213.92207 558.40904,213.99893 558.75908,214.08843 C 559.1091,214.17788 559.46696,214.28004 559.83207,214.39393 C 560.19718,214.50782 560.56956,214.63351 560.94862,214.76999 C 561.32766,214.90647 561.71341,215.05379 562.10518,215.21087 C 562.49694,215.36793 562.89476,215.53482 563.29793,215.71034 C 563.70107,215.88586 564.1096,216.07007 564.52275,216.26176 C 564.93587,216.45345 565.35365,216.65264 565.77527,216.85809 C 566.19693,217.06355 566.62242,217.27526 567.05102,217.49198 C 567.47959,217.70866 567.91126,217.93037 568.34519,218.15573 C 568.77913,218.38108 569.21532,218.61013 569.65295,218.84151 C 570.09061,219.0729 570.52969,219.3066 570.96936,219.54127 C 571.40905,219.77596 571.84934,220.01161 572.28938,220.24689 C 572.72943,220.48216 573.16923,220.71702 573.60797,220.95016 C 574.04668,221.18329 574.48433,221.41466 574.92004,221.64292 C 575.35578,221.8712 575.78958,222.09637 576.22064,222.3171 C 576.65172,222.53784 577.08007,222.75415 577.50487,222.96473 C 577.92968,223.17532 578.35095,223.38017 578.76792,223.57808 C 579.18489,223.77597 579.59754,223.96689 580.00517,224.14963 C 580.41278,224.33238 580.81534,224.50693 581.21217,224.67221 C 581.60901,224.83748 582.00006,224.99341 582.38472,225.13897 C 582.7694,225.28455 583.14764,225.41972 583.51888,225.54355 C 583.89012,225.66738 584.25431,225.77978 584.61094,225.87996 C 584.9676,225.98013 585.31661,226.068 585.65759,226.14278 C 585.99854,226.21759 586.33142,226.27924 586.65576,226.32714 C 586.98011,226.37502 587.29592,226.40905 587.60282,226.42869 C 587.90973,226.44832 588.20771,226.45349 588.4965,226.44375 C 588.78527,226.43404 589.06481,226.4093 589.33487,226.36929 C 589.60497,226.32928 589.86553,226.27388 590.11652,226.20288 C 590.36748,226.13192 590.60877,226.04527 590.84035,225.94289 C 591.07191,225.84051 591.29372,225.72228 591.50575,225.58827 C 591.71781,225.45425 591.92003,225.30435 592.11256,225.1387 C 592.30507,224.97308 592.48784,224.79161 592.66099,224.59462 C 592.83416,224.39762 592.99765,224.18496 593.15175,223.95711 C 593.30585,223.72922 593.45046,223.48602 593.58594,223.22797 C 593.7214,222.96995 593.84767,222.69697 593.96508,222.40971 C 594.08252,222.12244 594.19105,221.82078 594.29115,221.50545 C 594.39125,221.1901 594.48284,220.861 594.56645,220.51895 C 594.65005,220.17692 594.72563,219.82187 594.79371,219.45468 C 594.86179,219.08749 594.92233,218.70812 594.97599,218.31754 C 595.02963,217.92696 595.07631,217.52512 595.1167,217.11306 C 595.15708,216.70102 595.19113,216.27871 595.21953,215.84727 C 595.24796,215.41584 595.2707,214.97523 595.28852,214.52663 C 595.30635,214.07804 595.31921,213.62142 595.32788,213.15802 C 595.33657,212.69463 595.34105,212.22441 595.34209,211.74866 C 595.34317,211.27292 595.3408,210.79165 595.33583,210.30613 C 595.33084,209.82061 595.32324,209.33083 595.31385,208.83816 C 595.30445,208.34549 595.29326,207.8499 595.28109,207.35275 C 595.26896,206.85561 595.25582,206.3569 595.24258,205.85799 C 595.22934,205.35911 595.21599,204.86 595.20335,204.3621 C 595.19071,203.86416 595.17881,203.36742 595.16845,202.87319 C 595.15809,202.37895 595.14929,201.88725 595.1429,201.3994 C 595.13646,200.91156 595.13246,200.4276 595.13161,199.94879 C 595.13078,199.46999 595.13315,198.99639 595.13949,198.52918 C 595.14584,198.06199 595.15615,197.60126 595.17122,197.14819 C 595.18625,196.6951 595.20605,196.24968 595.23128,195.81312 C 595.25654,195.37652 595.28722,194.9488 595.32405,194.53097 C 595.36086,194.11314 595.40384,193.70529 595.45354,193.30836 C 595.50325,192.91142 595.55976,192.52547 595.62357,192.15139 C 595.68741,191.7773 595.7586,191.41517 595.83767,191.06575 C 595.91669,190.71632 596.00367,190.3797 596.09894,190.05656 C 596.19422,189.73342 596.29785,189.42384 596.41024,189.12839 C 596.52261,188.83295 596.64378,188.55173 596.774,188.2852 C 596.90423,188.01869 597.0436,187.76694 597.1923,187.53033 C 597.34101,187.29372 597.4991,187.07234 597.66677,186.86643 C 597.83441,186.66051 598.01168,186.47017 598.19863,186.29551 C 598.38558,186.12083 598.58227,185.96197 598.78871,185.81887 C 598.99515,185.67576 599.21138,185.54855 599.43737,185.43711 C 599.66334,185.32565 599.89913,185.23008 600.14455,185.15015 C 600.38998,185.07019 600.64512,185.00598 600.90976,184.95714 C 601.1744,184.90833 601.4486,184.87497 601.73207,184.85663 C 602.01554,184.8383 602.30835,184.83509 602.61012,184.8464 C 602.91189,184.85772 603.22269,184.88368 603.54213,184.92359 C 603.86156,184.96351 604.18966,185.01746 604.52597,185.08471 C 604.86227,185.15192 605.2068,185.2325 605.55905,185.32556 C 605.91129,185.41863 606.2713,185.52426 606.63847,185.64149 C 607.00563,185.75871 607.38001,185.88764 607.76094,186.02718 C 608.1419,186.16672 608.52944,186.31696 608.92293,186.4768 C 609.3164,186.63667 609.71584,186.80614 610.12051,186.98414 C 610.5252,187.1621 610.93512,187.3486 611.34956,187.54239 C 611.764,187.73621 612.18298,187.93734 612.6057,188.14455 C 613.02842,188.35176 613.45492,188.56507 613.88435,188.78318 C 614.3138,189.00127 614.74621,189.22418 615.18078,189.45056 C 615.61533,189.67696 616.05206,189.90683 616.49009,190.13884 C 616.92812,190.37085 617.36749,190.60501 617.80733,190.83995 C 618.24717,191.07489 618.68747,191.31059 619.12744,191.54572 C 619.5674,191.78085 620.007,192.01539 620.4454,192.248 C 620.88379,192.48059 621.32097,192.71123 621.75614,192.93859 C 622.19131,193.16595 622.62443,193.39002 623.05471,193.60946 C 623.48499,193.82892 623.91241,194.04373 624.3362,194.25266 C 624.75999,194.4616 625.18011,194.6646 625.59584,194.8605 C 626.01156,195.05636 626.42287,195.24509 626.82902,195.42547 C 627.23519,195.60588 627.63619,195.77789 628.03136,195.94049 C 628.42653,196.10306 628.81585,196.25616 629.19867,196.39877 C 629.5815,196.54136 629.95781,196.67339 630.32705,196.79395 C 630.69624,196.9145 631.05834,197.02351 631.4128,197.12017 C 631.76726,197.21681 632.11403,197.30102 632.45269,197.37207 C 632.79134,197.44311 633.12182,197.50092 633.44374,197.54483 C 633.76563,197.58877 634.07894,197.61874 634.38329,197.63424 C 634.68766,197.64974 634.98302,197.65071 635.26917,197.63668 C 635.5553,197.62269 635.83214,197.59363 636.09952,197.54924 C 636.3669,197.50483 636.62475,197.44498 636.87295,197.36956 C 637.12118,197.2941 637.35968,197.20299 637.58847,197.09606 C 637.81724,196.98918 638.03627,196.86643 638.2455,196.72789 C 638.45476,196.58933 638.6542,196.43491 638.84394,196.26477 C 639.0337,196.09464 639.21367,195.90871 639.38409,195.70725 C 639.55449,195.50582 639.7153,195.28877 639.86668,195.05655 C 640.0181,194.82431 640.16005,194.5768 640.29292,194.3145 C 640.42576,194.05223 640.54945,193.7751 640.66436,193.48374 C 640.77926,193.19239 640.88533,192.88673 640.983,192.56749 C 641.0807,192.24824 641.16994,191.91536 641.25128,191.56961 C 641.33259,191.22389 641.40596,190.86523 641.47191,190.49461 C 641.53787,190.12396 641.59636,189.74125 641.64803,189.34749 C 641.69971,188.95372 641.7445,188.54882 641.7831,188.13387 C 641.82169,187.71893 641.85404,187.29386 641.88085,186.85985 C 641.90767,186.42582 641.92892,185.98278 641.94534,185.53192 C 641.96176,185.08107 641.97334,184.62235 641.98083,184.15703 C 641.98833,183.69173 641.99173,183.21976 641.99183,182.74248 C 641.99193,182.26519 641.98873,181.78252 641.98301,181.29582 C 641.97729,180.80912 641.96909,180.31836 641.95919,179.82487 C 641.94929,179.33139 641.93773,178.8352 641.9253,178.33762 C 641.9129,177.84007 641.89964,177.34113 641.88639,176.84221"
       id="path3245"
       style="fill:none;fill-opacity:1;stroke:#000000;stroke-width:4.22988749;stroke-linecap:round;stroke-linejoin:round;stroke-miterlimit:4;stroke-dasharray:none;stroke-opacity:1" />
    <path
       d="M 475.84362,283.8877 L 580.24609,378.07258"
       id="path3281"
       style="fill:#ff0000;fill-rule:evenodd;stroke:#ff0000;stroke-width:4.22988749;stroke-linecap:round;stroke-linejoin:miter;stroke-miterlimit:4;stroke-dasharray:none;stroke-opacity:1" />
    <path
       d="M 377.78894,275.4834 L 328.35486,304.02418 L 328.35486,246.94261 L 377.78894,275.4834 z"
       transform="matrix(0.1950753,0.1759838,-0.1580355,0.1751799,506.9544,224.41923)"
       id="path3283"
       style="fill:#ff0000;fill-opacity:1;stroke:#ff0000;stroke-width:7.08661413;stroke-linecap:round;stroke-linejoin:miter;stroke-miterlimit:4;stroke-dasharray:none;stroke-opacity:1" />
    <g
       transform="matrix(0.5968841,0,0,0.5968841,198.28983,122.43034)"
       id="g3265">
      <path
         d="M 485.49902,268.85199 A 22.305626,22.305626 0 1 1 440.88776,268.85199 A 22.305626,22.305626 0 1 1 485.49902,268.85199 z"
         id="path3253"
         style="opacity:1;fill:none;fill-opacity:1;stroke:#ff0000;stroke-width:10.62992096;stroke-linecap:round;stroke-linejoin:round;stroke-miterlimit:4;stroke-dasharray:none;stroke-opacity:1" />
      <path
         d="M 457.45465,286.38089 C 452.11146,284.55993 447.88746,280.55154 445.83711,275.35646 C 444.53346,272.05318 444.53463,265.61535 445.83948,262.30858 C 447.04769,259.24678 449.41172,256.15348 452.11528,254.09674 C 461.29125,247.11606 474.56298,250.32051 479.86786,260.79761 C 481.63559,264.28888 482.15473,269.56527 481.11344,273.45756 C 478.33693,283.83641 467.4454,289.78576 457.45465,286.3809 L 457.45465,286.38089 z"
         id="path3255"
         style="opacity:1;fill:#000000;fill-opacity:1;stroke:#000000;stroke-width:2.84828758;stroke-linecap:round;stroke-linejoin:round;stroke-miterlimit:4;stroke-dasharray:none;stroke-opacity:1" />
    </g>
    <path
       d="M 318.08592,282.9038 L 458.69412,282.9038"
       id="path3257"
       style="fill:#ff0000;fill-rule:evenodd;stroke:#ff0000;stroke-width:4.22988701;stroke-linecap:butt;stroke-linejoin:miter;stroke-miterlimit:4;stroke-dasharray:none;stroke-opacity:1" />
    <path
       d="M 377.78894,275.4834 L 328.35486,304.02418 L 328.35486,246.94261 L 377.78894,275.4834 z"
       transform="matrix(0.2627254,0,0,0.2359305,301.35158,217.90887)"
       id="path3259"
       style="fill:#ff0000;fill-opacity:1;stroke:#ff0000;stroke-width:7.08661413;stroke-linecap:round;stroke-linejoin:miter;stroke-miterlimit:4;stroke-dasharray:none;stroke-opacity:1" />
    <g
       transform="matrix(0.5968841,0,0,0.5968841,32.414245,122.43034)"
       id="g3269">
      <path
         d="M 485.49902,268.85199 A 22.305626,22.305626 0 1 1 440.88776,268.85199 A 22.305626,22.305626 0 1 1 485.49902,268.85199 z"
         id="path3271"
         style="opacity:1;fill:none;fill-opacity:1;stroke:#ff0000;stroke-width:10.62992096;stroke-linecap:round;stroke-linejoin:round;stroke-miterlimit:4;stroke-dasharray:none;stroke-opacity:1" />
      <path
         d="M 457.45465,286.38089 C 452.11146,284.55993 447.88746,280.55154 445.83711,275.35646 C 444.53346,272.05318 444.53463,265.61535 445.83948,262.30858 C 447.04769,259.24678 449.41172,256.15348 452.11528,254.09674 C 461.29125,247.11606 474.56298,250.32051 479.86786,260.79761 C 481.63559,264.28888 482.15473,269.56527 481.11344,273.45756 C 478.33693,283.83641 467.4454,289.78576 457.45465,286.3809 L 457.45465,286.38089 z"
         id="path3273"
         style="opacity:1;fill:#000000;fill-opacity:1;stroke:#000000;stroke-width:2.84828758;stroke-linecap:round;stroke-linejoin:round;stroke-miterlimit:4;stroke-dasharray:none;stroke-opacity:1" />
    </g>
    <text
       x="224.81541"
       y="409.63675"
       id="text3313"
       xml:space="preserve"
       style="font-size:42.97565079px;font-style:normal;font-variant:normal;font-weight:normal;font-stretch:normal;text-align:justify;text-anchor:start;fill:#000000;fill-opacity:1;stroke:none;stroke-width:1px;stroke-linecap:butt;stroke-linejoin:miter;stroke-opacity:1;font-family:HelveticaNeue;-inkscape-font-specification:HelveticaNeue"><tspan
         x="224.81541"
         y="409.63675"
         id="tspan3315">e</tspan></text>
    <text
       x="251.23044"
       y="388.95642"
       id="text3317"
       xml:space="preserve"
       style="font-size:30.06002045px;font-style:normal;font-variant:normal;font-weight:normal;font-stretch:normal;text-align:justify;text-anchor:start;fill:#000000;fill-opacity:1;stroke:none;stroke-width:1px;stroke-linecap:butt;stroke-linejoin:miter;stroke-opacity:1;font-family:HelveticaNeue;-inkscape-font-specification:HelveticaNeue"><tspan
         x="251.23044"
         y="388.95642"
         id="tspan3319">-</tspan></text>
    <text
       x="552.70422"
       y="402.85962"
       id="text3321"
       xml:space="preserve"
       style="font-size:30.06002045px;font-style:normal;font-variant:normal;font-weight:normal;font-stretch:normal;text-align:justify;text-anchor:start;fill:#000000;fill-opacity:1;stroke:none;stroke-width:1px;stroke-linecap:butt;stroke-linejoin:miter;stroke-opacity:1;font-family:HelveticaNeue;-inkscape-font-specification:HelveticaNeue"><tspan
         x="552.70422"
         y="402.85962"
         id="tspan3323">+</tspan></text>
    <text
       x="209.66647"
       y="173.79422"
       id="text3325"
       xml:space="preserve"
       style="font-size:42.97565079px;font-style:normal;font-variant:normal;font-weight:normal;font-stretch:normal;text-align:justify;text-anchor:start;fill:#000000;fill-opacity:1;stroke:none;stroke-width:1px;stroke-linecap:butt;stroke-linejoin:miter;stroke-opacity:1;font-family:HelveticaNeue;-inkscape-font-specification:HelveticaNeue"><tspan
         x="209.66647"
         y="173.79422"
         id="tspan3327">γ</tspan></text>
    <text
       x="540.6853"
       y="179.21465"
       id="text3329"
       xml:space="preserve"
       style="font-size:42.97565079px;font-style:normal;font-variant:normal;font-weight:normal;font-stretch:normal;text-align:justify;text-anchor:start;fill:#000000;fill-opacity:1;stroke:none;stroke-width:1px;stroke-linecap:butt;stroke-linejoin:miter;stroke-opacity:1;font-family:HelveticaNeue;-inkscape-font-specification:HelveticaNeue"><tspan
         x="540.6853"
         y="179.21465"
         id="tspan3331">γ</tspan></text>
    <text
       x="529.31238"
       y="427.0798"
       id="text3333"
       xml:space="preserve"
       style="font-size:42.97565079px;font-style:normal;font-variant:normal;font-weight:normal;font-stretch:normal;text-align:justify;text-anchor:start;fill:#000000;fill-opacity:1;stroke:none;stroke-width:1px;stroke-linecap:butt;stroke-linejoin:miter;stroke-opacity:1;font-family:HelveticaNeue;-inkscape-font-specification:HelveticaNeue"><tspan
         x="529.31238"
         y="427.0798"
         id="tspan3335">e</tspan></text>
    <text
       x="50.397118"
       y="370.29126"
       id="text3337"
       xml:space="preserve"
       style="font-size:42.97565079px;font-style:normal;font-variant:normal;font-weight:normal;font-stretch:normal;text-align:justify;text-anchor:start;fill:#000000;fill-opacity:1;stroke:none;stroke-width:1px;stroke-linecap:butt;stroke-linejoin:miter;stroke-opacity:1;font-family:HelveticaNeue;-inkscape-font-specification:HelveticaNeue"><tspan
         x="50.397118"
         y="370.29126"
         id="tspan3339">time</tspan></text>
    <text
       x="250.63084"
       y="525.29321"
       id="text3341"
       xml:space="preserve"
       style="font-size:42.97565079px;font-style:normal;font-variant:normal;font-weight:normal;font-stretch:normal;text-align:justify;text-anchor:start;fill:#000000;fill-opacity:1;stroke:none;stroke-width:1px;stroke-linecap:butt;stroke-linejoin:miter;stroke-opacity:1;font-family:HelveticaNeue;-inkscape-font-specification:HelveticaNeue"><tspan
         x="250.63084"
         y="525.29321"
         id="tspan3343">space</tspan></text>
    <path
       d="M 90.627535,219.61772 L 82.639695,235.04022 L 88.127185,235.04022 L 88.127185,318.98995 L 93.150005,318.98995 L 93.150005,235.04022 L 98.615372,235.04022 L 90.627535,219.61772 z"
       id="path3347"
       style="fill:#000000;fill-opacity:1;fill-rule:evenodd;stroke:none;stroke-width:2;stroke-linecap:butt;stroke-linejoin:miter;stroke-miterlimit:4;stroke-dasharray:none;stroke-opacity:1" />
    <path
       d="M 489.31642,512.51115 L 473.89392,504.52331 L 473.89392,510.0108 L 389.94419,510.0108 L 389.94419,515.03362 L 473.89392,515.03362 L 473.89392,520.49899 L 489.31642,512.51115 z"
       id="path3363"
       style="fill:#000000;fill-opacity:1;fill-rule:evenodd;stroke:none;stroke-width:2;stroke-linecap:butt;stroke-linejoin:miter;stroke-miterlimit:4;stroke-dasharray:none;stroke-opacity:1" />
  </g>
</svg>
