<?xml version="1.0" encoding="UTF-8" standalone="no"?>
<svg
   xmlns:ns8="http://www.iki.fi/pav/software/textext/"
   xmlns:dc="http://purl.org/dc/elements/1.1/"
   xmlns:cc="http://creativecommons.org/ns#"
   xmlns:rdf="http://www.w3.org/1999/02/22-rdf-syntax-ns#"
   xmlns:svg="http://www.w3.org/2000/svg"
   xmlns="http://www.w3.org/2000/svg"
   xmlns:sodipodi="http://sodipodi.sourceforge.net/DTD/sodipodi-0.dtd"
   xmlns:inkscape="http://www.inkscape.org/namespaces/inkscape"
   width="123.11945mm"
   height="282.22223mm"
   viewBox="0 0 123.11945 282.22223"
   version="1.1"
   id="svg8"
   inkscape:version="1.0 (4035a4fb49, 2020-05-01)"
   sodipodi:docname="septiembre_cover.svg">
  <defs
     id="defs2" />
  <sodipodi:namedview
     inkscape:window-maximized="1"
     inkscape:window-y="-9"
     inkscape:window-x="-9"
     inkscape:window-height="991"
     inkscape:window-width="1920"
     showgrid="false"
     inkscape:document-rotation="0"
     inkscape:current-layer="selection"
     inkscape:document-units="mm"
     inkscape:cy="533.08907"
     inkscape:cx="-127.69643"
     inkscape:zoom="0.7"
     inkscape:pageshadow="2"
     inkscape:pageopacity="0.0"
     borderopacity="1.0"
     bordercolor="#666666"
     pagecolor="#ffffff"
     id="base">
    <sodipodi:guide
       id="guide34"
       orientation="0,465.33337"
       position="0,282.22222" />
    <sodipodi:guide
       id="guide36"
       orientation="1066.6667,0"
       position="123.11945,282.22222" />
    <sodipodi:guide
       id="guide38"
       orientation="0,-465.33337"
       position="123.11945,0" />
    <sodipodi:guide
       id="guide40"
       orientation="-1066.6667,0"
       position="0,0" />
  </sodipodi:namedview>
  <metadata
     id="metadata5">
    <rdf:RDF>
      <cc:Work
         rdf:about="">
        <dc:format>image/svg+xml</dc:format>
        <dc:type
           rdf:resource="http://purl.org/dc/dcmitype/StillImage" />
        <dc:title />
      </cc:Work>
    </rdf:RDF>
  </metadata>
  <g
     transform="translate(280.02997,-12.347219)"
     id="layer1"
     inkscape:groupmode="layer"
     inkscape:label="Capa 1">
    <text
       id="text26"
       y="23.338171"
       x="-280.11276"
       style="font-size:10.5833px;line-height:1.25;font-family:monospace;-inkscape-font-specification:monospace;text-align:start;text-anchor:start;display:inline;fill:#2d4413;fill-opacity:1;stroke-width:0.264583"
       xml:space="preserve"><tspan
         sodipodi:role="line"
         id="tspan28"
         style="font-style:normal;font-variant:normal;font-weight:bold;font-stretch:normal;font-size:14.1111px;font-family:Georgia;-inkscape-font-specification:'Georgia Bold';text-align:start;text-anchor:start;fill:#2d4413;fill-opacity:1;stroke-width:0.264583"
         y="23.338171"
         x="-280.11276">Ecuación</tspan><tspan
         id="tspan41"
         sodipodi:role="line"
         style="font-style:normal;font-variant:normal;font-weight:bold;font-stretch:normal;font-size:14.1111px;font-family:Georgia;-inkscape-font-specification:'Georgia Bold';text-align:start;text-anchor:start;fill:#2d4413;fill-opacity:1;stroke-width:0.264583"
         y="40.977047"
         x="-280.11276">de Dirac</tspan><tspan
         sodipodi:role="line"
         id="tspan32"
         style="font-style:normal;font-variant:normal;font-weight:normal;font-stretch:normal;font-family:Tahoma;-inkscape-font-specification:Tahoma;text-align:start;text-anchor:start;fill:#2d4413;fill-opacity:1;stroke-width:0.264583"
         y="55.301384"
         x="-280.11276" /></text>
    <g
       transform="matrix(1.05833,0,0,1.05833,-263.69574,66.052919)"
       ns8:version="1.0.1"
       ns8:texconverter="pdflatex"
       ns8:pdfconverter="inkscape"
       ns8:text="\\begin{equation*}\ni \\hbar \\gamma^\\mu \\partial_\\mu \\psi - mc\\psi =0\n\\end{equation*} "
       ns8:preamble="C:\\Users\\ramms\\AppData\\Roaming\\inkscape\\extensions\\textext\\default_packages.tex"
       ns8:scale="3.0"
       ns8:alignment="middle center"
       ns8:inkscapeversion="1.0"
       ns8:jacobian_sqrt="1.05833"
       style="stroke-width:0"
       id="g525">
      <defs
         id="id-edf8be89-2656-423d-b7ce-f500be6650fb"
         style="stroke-width:0">
        <g
           id="id-c24f7623-729d-4f6f-b8ad-4e1171003232"
           style="stroke-width:0">
          <symbol
             id="id-a2293e63-b5b9-4732-afed-495be24bfec8"
             overflow="visible"
             style="stroke-width:0">
            <path
               id="id-7a9e2a29-a242-459d-9ff7-0c2871984adb"
               d=""
               style="stroke:none;stroke-width:0" />
          </symbol>
          <symbol
             id="id-9d50a14a-fee6-41bb-a7ba-a425f8fbeeea"
             overflow="visible"
             style="stroke-width:0">
            <path
               id="id-28401001-83c9-4957-80df-0e40be4ca620"
               d="m 2.828125,-6.234375 c 0,-0.203125 -0.140625,-0.359375 -0.359375,-0.359375 -0.28125,0 -0.546875,0.265625 -0.546875,0.53125 0,0.1875 0.140625,0.359375 0.375,0.359375 0.234375,0 0.53125,-0.234375 0.53125,-0.53125 z m -0.75,3.75 c 0.109375,-0.28125 0.109375,-0.3125 0.21875,-0.578125 0.078125,-0.203125 0.125,-0.34375 0.125,-0.53125 0,-0.4375 -0.3125,-0.8125 -0.8125,-0.8125 -0.9375,0 -1.3125,1.453125 -1.3125,1.53125 0,0.109375 0.09375,0.109375 0.109375,0.109375 0.109375,0 0.109375,-0.03125 0.15625,-0.1875 0.28125,-0.9375 0.671875,-1.234375 1.015625,-1.234375 0.078125,0 0.25,0 0.25,0.3125 0,0.21875 -0.078125,0.421875 -0.109375,0.53125 -0.078125,0.25 -0.53125,1.40625 -0.6875,1.84375 -0.109375,0.25 -0.234375,0.578125 -0.234375,0.796875 0,0.46875 0.34375,0.8125 0.8125,0.8125 0.9375,0 1.3125,-1.4375 1.3125,-1.53125 0,-0.109375 -0.09375,-0.109375 -0.125,-0.109375 -0.09375,0 -0.09375,0.03125 -0.140625,0.1875 -0.1875,0.625 -0.515625,1.234375 -1.015625,1.234375 -0.171875,0 -0.25,-0.09375 -0.25,-0.328125 0,-0.25 0.0625,-0.390625 0.296875,-1 z m 0,0"
               style="stroke:none;stroke-width:0" />
          </symbol>
          <symbol
             id="id-7be1cdc6-dc3d-4448-b2f9-fa0cb7f4ccb7"
             overflow="visible"
             style="stroke-width:0">
            <path
               id="id-795ffd2e-71e3-42e2-a0be-53166178fa87"
               d="M 0.40625,-2.53125 C 0.796875,-3.671875 1.890625,-3.6875 2,-3.6875 c 1.5,0 1.609375,1.75 1.609375,2.53125 0,0.609375 -0.046875,0.78125 -0.125,0.984375 -0.21875,0.71875 -0.515625,1.875 -0.515625,2.140625 0,0.109375 0.046875,0.171875 0.125,0.171875 0.140625,0 0.21875,-0.21875 0.328125,-0.59375 C 3.65625,0.703125 3.75,0.140625 3.78125,-0.171875 c 0.03125,-0.125 0.046875,-0.25 0.09375,-0.390625 0.3125,-0.984375 0.953125,-2.46875 1.34375,-3.25 0.078125,-0.125 0.1875,-0.34375 0.1875,-0.390625 0,-0.09375 -0.09375,-0.09375 -0.109375,-0.09375 -0.03125,0 -0.09375,0 -0.125,0.0625 C 4.65625,-3.28125 4.25,-2.28125 3.859375,-1.28125 3.84375,-1.578125 3.84375,-2.34375 3.453125,-3.3125 3.203125,-3.921875 2.8125,-4.40625 2.125,-4.40625 c -1.25,0 -1.953125,1.515625 -1.953125,1.828125 0,0.09375 0.09375,0.09375 0.203125,0.09375 z m 0,0"
               style="stroke:none;stroke-width:0" />
          </symbol>
          <symbol
             id="id-2bcfaf1f-5e54-43f2-8057-2f2e2fe75424"
             overflow="visible"
             style="stroke-width:0">
            <path
               id="id-c4f1006d-63a5-4552-844a-a3d7c3357320"
               d="m 4.609375,-3.375 c -0.09375,-0.625 -0.5,-1.1875 -1.28125,-1.1875 -0.609375,0 -1.25,0.171875 -2.03125,0.9375 -0.828125,0.828125 -0.890625,1.765625 -0.890625,2.0625 0,0.625 0.4375,1.78125 1.828125,1.78125 2.375,0 3.40625,-3.34375 3.40625,-4.78125 0,-1.578125 -0.921875,-2.578125 -2.15625,-2.578125 -1.4375,0 -1.90625,1.296875 -1.90625,1.578125 0,0.140625 0.09375,0.34375 0.390625,0.34375 0.328125,0 0.53125,-0.296875 0.53125,-0.515625 0,-0.359375 -0.3125,-0.359375 -0.46875,-0.359375 0.4375,-0.734375 1.15625,-0.796875 1.4375,-0.796875 0.734375,0 1.421875,0.515625 1.421875,1.8125 0,0.390625 -0.0625,0.890625 -0.265625,1.703125 z m -2.34375,3.3125 c -1.09375,0 -1.09375,-1.03125 -1.09375,-1.125 0,-0.265625 0.25,-1.65625 0.65625,-2.265625 0.390625,-0.5625 0.890625,-0.890625 1.5,-0.890625 1.09375,0 1.109375,1.125 1.109375,1.328125 0,0.71875 -0.640625,2.953125 -2.171875,2.953125 z m 0,0"
               style="stroke:none;stroke-width:0" />
          </symbol>
          <symbol
             id="id-cb2a41de-18d7-4eeb-8513-236c35dcb160"
             overflow="visible"
             style="stroke-width:0">
            <path
               id="id-12ca0ea3-b678-4e7c-916c-26ef3333bc6d"
               d="m 4.8125,-6.65625 c 0,-0.046875 0.015625,-0.109375 0.015625,-0.15625 0,-0.09375 -0.0625,-0.109375 -0.109375,-0.109375 -0.109375,0 -0.109375,0.03125 -0.15625,0.203125 L 2.90625,-0.125 c -0.75,-0.09375 -1.125,-0.46875 -1.125,-1.125 0,-0.203125 0,-0.453125 0.53125,-1.84375 0.046875,-0.125 0.109375,-0.296875 0.109375,-0.5 0,-0.4375 -0.3125,-0.8125 -0.8125,-0.8125 -0.953125,0 -1.3125,1.453125 -1.3125,1.53125 0,0.109375 0.09375,0.109375 0.109375,0.109375 0.109375,0 0.109375,-0.03125 0.15625,-0.1875 0.28125,-0.9375 0.671875,-1.234375 1.015625,-1.234375 0.078125,0 0.25,0 0.25,0.3125 0,0.265625 -0.109375,0.515625 -0.234375,0.859375 C 1.109375,-1.75 1.109375,-1.5 1.109375,-1.328125 1.109375,-0.375 1.890625,0.03125 2.84375,0.09375 2.765625,0.453125 2.765625,0.46875 2.625,1 2.609375,1.109375 2.40625,1.90625 2.40625,1.9375 c 0,0.015625 0,0.109375 0.109375,0.109375 0.03125,0 0.078125,0 0.09375,-0.046875 0.03125,-0.015625 0.09375,-0.265625 0.125,-0.40625 l 0.375,-1.484375 c 0.375,0 1.25,0 2.1875,-1.0625 0.40625,-0.46875 0.609375,-0.90625 0.71875,-1.203125 0.09375,-0.25 0.3125,-1.109375 0.3125,-1.546875 0,-0.5625 -0.265625,-0.703125 -0.4375,-0.703125 -0.25,0 -0.5,0.265625 -0.5,0.484375 0,0.125 0.0625,0.1875 0.15625,0.265625 0.109375,0.109375 0.359375,0.359375 0.359375,0.84375 0,0.640625 -0.515625,1.453125 -0.875,1.8125 -0.875,0.890625 -1.515625,0.890625 -1.875,0.890625 z m 0,0"
               style="stroke:none;stroke-width:0" />
          </symbol>
          <symbol
             id="id-419a501d-56fa-4a2d-a9c8-c7c3c9c09010"
             overflow="visible"
             style="stroke-width:0">
            <path
               id="id-51502900-edc0-4d89-9473-1f0f3cd9e475"
               d="m 0.875,-0.59375 c -0.03125,0.15625 -0.09375,0.390625 -0.09375,0.4375 0,0.171875 0.140625,0.265625 0.296875,0.265625 0.125,0 0.296875,-0.078125 0.375,-0.28125 0,-0.015625 0.125,-0.484375 0.1875,-0.734375 l 0.21875,-0.890625 C 1.90625,-2.03125 1.96875,-2.25 2.03125,-2.46875 c 0.03125,-0.171875 0.109375,-0.46875 0.125,-0.5 0.140625,-0.3125 0.671875,-1.21875 1.625,-1.21875 0.453125,0 0.53125,0.375 0.53125,0.703125 0,0.25 -0.0625,0.53125 -0.140625,0.828125 L 3.890625,-1.5 3.6875,-0.75 c -0.03125,0.203125 -0.125,0.546875 -0.125,0.59375 0,0.171875 0.140625,0.265625 0.28125,0.265625 0.3125,0 0.375,-0.25 0.453125,-0.5625 0.140625,-0.5625 0.515625,-2.015625 0.59375,-2.40625 0.03125,-0.125 0.5625,-1.328125 1.65625,-1.328125 0.421875,0 0.53125,0.34375 0.53125,0.703125 0,0.5625 -0.421875,1.703125 -0.625,2.234375 -0.078125,0.234375 -0.125,0.34375 -0.125,0.546875 0,0.46875 0.34375,0.8125 0.8125,0.8125 0.9375,0 1.3125,-1.453125 1.3125,-1.53125 0,-0.109375 -0.09375,-0.109375 -0.125,-0.109375 -0.09375,0 -0.09375,0.03125 -0.140625,0.1875 -0.15625,0.53125 -0.46875,1.234375 -1.015625,1.234375 -0.171875,0 -0.25,-0.09375 -0.25,-0.328125 0,-0.25 0.09375,-0.484375 0.1875,-0.703125 0.1875,-0.53125 0.609375,-1.625 0.609375,-2.203125 0,-0.640625 -0.40625,-1.0625 -1.15625,-1.0625 -0.734375,0 -1.25,0.4375 -1.625,0.96875 0,-0.125 -0.03125,-0.46875 -0.3125,-0.703125 -0.25,-0.21875 -0.5625,-0.265625 -0.8125,-0.265625 -0.90625,0 -1.390625,0.640625 -1.5625,0.875 -0.046875,-0.578125 -0.46875,-0.875 -0.921875,-0.875 -0.453125,0 -0.640625,0.390625 -0.734375,0.5625 -0.171875,0.359375 -0.296875,0.9375 -0.296875,0.96875 0,0.109375 0.09375,0.109375 0.109375,0.109375 0.109375,0 0.109375,-0.015625 0.171875,-0.234375 0.171875,-0.703125 0.375,-1.1875 0.734375,-1.1875 0.15625,0 0.296875,0.078125 0.296875,0.453125 0,0.21875 -0.03125,0.328125 -0.15625,0.84375 z m 0,0"
               style="stroke:none;stroke-width:0" />
          </symbol>
          <symbol
             id="id-366b1422-fb09-45dd-8d87-82897573ac38"
             overflow="visible"
             style="stroke-width:0">
            <path
               id="id-acaa68a8-f5e2-4332-bf3e-0ddcb17d2cb9"
               d="m 3.953125,-3.78125 c -0.171875,0 -0.296875,0 -0.4375,0.125 -0.171875,0.15625 -0.1875,0.328125 -0.1875,0.390625 0,0.25 0.1875,0.359375 0.375,0.359375 0.28125,0 0.546875,-0.25 0.546875,-0.640625 0,-0.484375 -0.46875,-0.859375 -1.171875,-0.859375 -1.34375,0 -2.671875,1.421875 -2.671875,2.828125 0,0.90625 0.578125,1.6875 1.625,1.6875 1.421875,0 2.25,-1.0625 2.25,-1.171875 0,-0.0625 -0.046875,-0.140625 -0.109375,-0.140625 -0.0625,0 -0.078125,0.03125 -0.140625,0.109375 -0.78125,0.984375 -1.875,0.984375 -1.984375,0.984375 -0.625,0 -0.90625,-0.484375 -0.90625,-1.09375 0,-0.40625 0.203125,-1.375 0.546875,-1.984375 0.3125,-0.578125 0.859375,-1 1.40625,-1 0.328125,0 0.71875,0.125 0.859375,0.40625 z m 0,0"
               style="stroke:none;stroke-width:0" />
          </symbol>
          <symbol
             id="id-147a212b-c152-4ea0-b94d-651a1111433b"
             overflow="visible"
             style="stroke-width:0">
            <path
               id="id-5e0059d7-27d5-4ce2-887d-274cf67acc05"
               d=""
               style="stroke:none;stroke-width:0" />
          </symbol>
          <symbol
             id="id-32a13fd4-aba6-4fff-b2df-d80b52f222da"
             overflow="visible"
             style="stroke-width:0">
            <path
               id="id-6156b43c-0107-4ee6-b958-2ff316cd5e7a"
               d="M 2.546875,-5.484375 H 4.46875 c 0.171875,0 0.28125,0 0.28125,-0.125 0,-0.125 -0.109375,-0.125 -0.296875,-0.125 H 2.609375 C 2.671875,-5.984375 2.671875,-6 2.734375,-6.25 2.78125,-6.4375 2.875,-6.78125 2.875,-6.796875 c 0,-0.09375 -0.0625,-0.125 -0.140625,-0.125 -0.1875,0 -0.984375,0.078125 -1.21875,0.109375 -0.078125,0 -0.1875,0.015625 -0.1875,0.203125 C 1.328125,-6.5 1.421875,-6.5 1.5625,-6.5 c 0.484375,0 0.5,0.0625 0.5,0.171875 0,0.0625 -0.09375,0.390625 -0.140625,0.59375 h -0.5625 c -0.1875,0 -0.296875,0 -0.296875,0.125 0,0.125 0.078125,0.125 0.265625,0.125 h 0.53125 L 0.59375,-0.40625 C 0.546875,-0.25 0.546875,-0.234375 0.546875,-0.171875 c 0,0.21875 0.171875,0.28125 0.296875,0.28125 0.1875,0 0.328125,-0.140625 0.359375,-0.265625 0.015625,-0.046875 0.125,-0.5 0.1875,-0.75 L 1.625,-1.796875 C 1.65625,-1.9375 1.75,-2.328125 1.78125,-2.46875 c 0.046875,-0.15625 0.125,-0.46875 0.125,-0.5 0.09375,-0.171875 0.625,-1.21875 1.625,-1.21875 0.4375,0 0.53125,0.359375 0.53125,0.6875 0,0.625 -0.453125,1.828125 -0.640625,2.296875 C 3.375,-1.046875 3.3125,-0.90625 3.3125,-0.71875 c 0,0.515625 0.375,0.828125 0.828125,0.828125 0.953125,0 1.296875,-1.46875 1.296875,-1.53125 0,-0.109375 -0.078125,-0.109375 -0.109375,-0.109375 -0.109375,0 -0.109375,0.03125 -0.15625,0.1875 -0.28125,1.015625 -0.734375,1.234375 -1,1.234375 -0.1875,0 -0.25,-0.125 -0.25,-0.328125 0,-0.25 0.109375,-0.53125 0.171875,-0.703125 0.15625,-0.4375 0.609375,-1.625 0.609375,-2.1875 C 4.703125,-4.0625 4.25,-4.40625 3.5625,-4.40625 c -0.3125,0 -0.90625,0.0625 -1.484375,0.75 z m 0,0"
               style="stroke:none;stroke-width:0" />
          </symbol>
          <symbol
             id="id-2d0093c7-00f8-438b-a5e9-da96f5dc31c3"
             overflow="visible"
             style="stroke-width:0">
            <path
               id="id-5f2430a3-a73b-4e51-be52-8613b18e99f5"
               d=""
               style="stroke:none;stroke-width:0" />
          </symbol>
          <symbol
             id="id-baee28ec-ee9d-4a4c-880c-f46342fbe3c5"
             overflow="visible"
             style="stroke-width:0">
            <path
               id="id-dd481b08-8336-4903-bdd4-d4d684b38265"
               d="M 0.375,1.125 C 0.34375,1.21875 0.34375,1.265625 0.34375,1.265625 c 0,0.15625 0.125,0.21875 0.234375,0.21875 0.265625,0 0.3125,-0.21875 0.34375,-0.34375 0.015625,-0.03125 0.15625,-0.59375 0.3125,-1.265625 0.21875,0.140625 0.5,0.1875 0.75,0.1875 0.59375,0 0.984375,-0.484375 1,-0.5 0.140625,0.484375 0.625,0.5 0.71875,0.5 0.25,0 0.421875,-0.140625 0.5625,-0.359375 C 4.40625,-0.578125 4.5,-0.96875 4.5,-1 c 0,-0.09375 -0.09375,-0.09375 -0.109375,-0.09375 -0.09375,0 -0.109375,0.03125 -0.15625,0.21875 -0.078125,0.34375 -0.21875,0.75 -0.5,0.75 C 3.546875,-0.125 3.5,-0.28125 3.5,-0.46875 c 0,-0.109375 0.046875,-0.375 0.109375,-0.546875 0.046875,-0.1875 0.109375,-0.46875 0.140625,-0.625 l 0.171875,-0.625 C 3.953125,-2.4375 4.03125,-2.75 4.03125,-2.78125 4.03125,-2.921875 3.921875,-3 3.8125,-3 3.734375,-3 3.59375,-2.96875 3.515625,-2.84375 3.5,-2.796875 3.4375,-2.578125 3.40625,-2.4375 l -0.140625,0.578125 -0.21875,0.875 C 3,-0.8125 3,-0.796875 2.9375,-0.703125 2.71875,-0.390625 2.40625,-0.125 2.015625,-0.125 1.4375,-0.125 1.4375,-0.625 1.4375,-0.75 c 0,-0.171875 0.03125,-0.265625 0.125,-0.640625 0.0625,-0.3125 0.078125,-0.359375 0.15625,-0.625 L 1.8125,-2.40625 c 0.03125,-0.15625 0.109375,-0.421875 0.109375,-0.4375 0,-0.125 -0.109375,-0.234375 -0.25,-0.234375 -0.25,0 -0.3125,0.25 -0.328125,0.328125 z m 0,0"
               style="stroke:none;stroke-width:0" />
          </symbol>
          <symbol
             id="id-bc878f53-e832-42fa-b34e-209ad9db1512"
             overflow="visible"
             style="stroke-width:0">
            <path
               id="id-e54f868f-d7f9-4562-ad68-e4c784f295c4"
               d=""
               style="stroke:none;stroke-width:0" />
          </symbol>
          <symbol
             id="id-10f8a73a-fb83-4c73-9d3c-d657b3bbf688"
             overflow="visible"
             style="stroke-width:0">
            <path
               id="id-7a3a803b-54bf-401a-a128-cc901d466d10"
               d="m 6.5625,-2.296875 c 0.171875,0 0.359375,0 0.359375,-0.203125 0,-0.1875 -0.1875,-0.1875 -0.359375,-0.1875 H 1.171875 c -0.171875,0 -0.34375,0 -0.34375,0.1875 0,0.203125 0.171875,0.203125 0.34375,0.203125 z m 0,0"
               style="stroke:none;stroke-width:0" />
          </symbol>
          <symbol
             id="id-4b9eec82-a96f-450a-8ab6-e1bd26e3dbf0"
             overflow="visible"
             style="stroke-width:0">
            <path
               id="id-0dabd42a-c3d0-4405-aca0-d3e8368d15bb"
               d=""
               style="stroke:none;stroke-width:0" />
          </symbol>
          <symbol
             id="id-d8660e3b-2269-4c9f-aa10-196ff7577b70"
             overflow="visible"
             style="stroke-width:0">
            <path
               id="id-e15cc823-0984-4532-b696-fbaa20311963"
               d="m 6.84375,-3.265625 c 0.15625,0 0.34375,0 0.34375,-0.1875 C 7.1875,-3.65625 7,-3.65625 6.859375,-3.65625 h -5.96875 c -0.140625,0 -0.328125,0 -0.328125,0.203125 0,0.1875 0.1875,0.1875 0.328125,0.1875 z m 0.015625,1.9375 c 0.140625,0 0.328125,0 0.328125,-0.203125 0,-0.1875 -0.1875,-0.1875 -0.34375,-0.1875 H 0.890625 c -0.140625,0 -0.328125,0 -0.328125,0.1875 0,0.203125 0.1875,0.203125 0.328125,0.203125 z m 0,0"
               style="stroke:none;stroke-width:0" />
          </symbol>
          <symbol
             id="id-4580db63-1ce3-48d5-85eb-9d24ed25a318"
             overflow="visible"
             style="stroke-width:0">
            <path
               id="id-39a81ca7-05b0-4100-96c7-74c833c682e3"
               d="m 4.578125,-3.1875 c 0,-0.796875 -0.046875,-1.59375 -0.390625,-2.328125 -0.453125,-0.96875 -1.28125,-1.125 -1.6875,-1.125 -0.609375,0 -1.328125,0.265625 -1.75,1.1875 -0.3125,0.6875 -0.359375,1.46875 -0.359375,2.265625 0,0.75 0.03125,1.640625 0.453125,2.40625 0.421875,0.796875 1.15625,1 1.640625,1 0.53125,0 1.296875,-0.203125 1.734375,-1.15625 0.3125,-0.6875 0.359375,-1.46875 0.359375,-2.25 z M 2.484375,0 C 2.09375,0 1.5,-0.25 1.328125,-1.203125 1.21875,-1.796875 1.21875,-2.71875 1.21875,-3.3125 c 0,-0.640625 0,-1.296875 0.078125,-1.828125 0.1875,-1.1875 0.9375,-1.28125 1.1875,-1.28125 0.328125,0 0.984375,0.1875 1.171875,1.171875 0.109375,0.5625 0.109375,1.3125 0.109375,1.9375 0,0.75 0,1.421875 -0.109375,2.0625 C 3.5,-0.296875 2.9375,0 2.484375,0 Z m 0,0"
               style="stroke:none;stroke-width:0" />
          </symbol>
        </g>
      </defs>
      <g
         transform="translate(-262.074,-139.528)"
         id="id-8205d415-c73a-4835-9a0e-31df1ea451d8"
         style="stroke-width:0">
        <g
           id="id-4756380c-a76f-48d9-85cb-6193959ffdc0"
           style="fill:#000000;fill-opacity:1;stroke-width:0">
          <g
             transform="translate(261.777,146.72)"
             style="stroke-width:0"
             id="g475">
            <path
               id="id-13fd8800-0894-438b-b823-b78a0dfe07c4"
               d="m 2.828125,-6.234375 c 0,-0.203125 -0.140625,-0.359375 -0.359375,-0.359375 -0.28125,0 -0.546875,0.265625 -0.546875,0.53125 0,0.1875 0.140625,0.359375 0.375,0.359375 0.234375,0 0.53125,-0.234375 0.53125,-0.53125 z m -0.75,3.75 c 0.109375,-0.28125 0.109375,-0.3125 0.21875,-0.578125 0.078125,-0.203125 0.125,-0.34375 0.125,-0.53125 0,-0.4375 -0.3125,-0.8125 -0.8125,-0.8125 -0.9375,0 -1.3125,1.453125 -1.3125,1.53125 0,0.109375 0.09375,0.109375 0.109375,0.109375 0.109375,0 0.109375,-0.03125 0.15625,-0.1875 0.28125,-0.9375 0.671875,-1.234375 1.015625,-1.234375 0.078125,0 0.25,0 0.25,0.3125 0,0.21875 -0.078125,0.421875 -0.109375,0.53125 -0.078125,0.25 -0.53125,1.40625 -0.6875,1.84375 -0.109375,0.25 -0.234375,0.578125 -0.234375,0.796875 0,0.46875 0.34375,0.8125 0.8125,0.8125 0.9375,0 1.3125,-1.4375 1.3125,-1.53125 0,-0.109375 -0.09375,-0.109375 -0.125,-0.109375 -0.09375,0 -0.09375,0.03125 -0.140625,0.1875 -0.1875,0.625 -0.515625,1.234375 -1.015625,1.234375 -0.171875,0 -0.25,-0.09375 -0.25,-0.328125 0,-0.25 0.0625,-0.390625 0.296875,-1 z m 0,0"
               style="stroke:none;stroke-width:0" />
          </g>
        </g>
        <g
           id="id-3093ae06-f277-4d8b-adf5-7a832aa78ba7"
           style="fill:#000000;fill-opacity:1;stroke-width:0">
          <g
             transform="translate(265.209,146.72)"
             style="stroke-width:0"
             id="g479">
            <path
               id="id-c5b96836-265d-471e-b77c-5c0b11054592"
               d="M 2.546875,-5.484375 H 4.46875 c 0.171875,0 0.28125,0 0.28125,-0.125 0,-0.125 -0.109375,-0.125 -0.296875,-0.125 H 2.609375 C 2.671875,-5.984375 2.671875,-6 2.734375,-6.25 2.78125,-6.4375 2.875,-6.78125 2.875,-6.796875 c 0,-0.09375 -0.0625,-0.125 -0.140625,-0.125 -0.1875,0 -0.984375,0.078125 -1.21875,0.109375 -0.078125,0 -0.1875,0.015625 -0.1875,0.203125 C 1.328125,-6.5 1.421875,-6.5 1.5625,-6.5 c 0.484375,0 0.5,0.0625 0.5,0.171875 0,0.0625 -0.09375,0.390625 -0.140625,0.59375 h -0.5625 c -0.1875,0 -0.296875,0 -0.296875,0.125 0,0.125 0.078125,0.125 0.265625,0.125 h 0.53125 L 0.59375,-0.40625 C 0.546875,-0.25 0.546875,-0.234375 0.546875,-0.171875 c 0,0.21875 0.171875,0.28125 0.296875,0.28125 0.1875,0 0.328125,-0.140625 0.359375,-0.265625 0.015625,-0.046875 0.125,-0.5 0.1875,-0.75 L 1.625,-1.796875 C 1.65625,-1.9375 1.75,-2.328125 1.78125,-2.46875 c 0.046875,-0.15625 0.125,-0.46875 0.125,-0.5 0.09375,-0.171875 0.625,-1.21875 1.625,-1.21875 0.4375,0 0.53125,0.359375 0.53125,0.6875 0,0.625 -0.453125,1.828125 -0.640625,2.296875 C 3.375,-1.046875 3.3125,-0.90625 3.3125,-0.71875 c 0,0.515625 0.375,0.828125 0.828125,0.828125 0.953125,0 1.296875,-1.46875 1.296875,-1.53125 0,-0.109375 -0.078125,-0.109375 -0.109375,-0.109375 -0.109375,0 -0.109375,0.03125 -0.15625,0.1875 -0.28125,1.015625 -0.734375,1.234375 -1,1.234375 -0.1875,0 -0.25,-0.125 -0.25,-0.328125 0,-0.25 0.109375,-0.53125 0.171875,-0.703125 0.15625,-0.4375 0.609375,-1.625 0.609375,-2.1875 C 4.703125,-4.0625 4.25,-4.40625 3.5625,-4.40625 c -0.3125,0 -0.90625,0.0625 -1.484375,0.75 z m 0,0"
               style="stroke:none;stroke-width:0" />
          </g>
        </g>
        <g
           id="id-ff445f96-0c5b-4424-863a-631f35f73f3a"
           style="fill:#000000;fill-opacity:1;stroke-width:0">
          <g
             transform="translate(270.592,146.72)"
             style="stroke-width:0"
             id="g483">
            <path
               id="id-50c3c62b-4572-4ff0-81ec-8fc394df6d48"
               d="M 0.40625,-2.53125 C 0.796875,-3.671875 1.890625,-3.6875 2,-3.6875 c 1.5,0 1.609375,1.75 1.609375,2.53125 0,0.609375 -0.046875,0.78125 -0.125,0.984375 -0.21875,0.71875 -0.515625,1.875 -0.515625,2.140625 0,0.109375 0.046875,0.171875 0.125,0.171875 0.140625,0 0.21875,-0.21875 0.328125,-0.59375 C 3.65625,0.703125 3.75,0.140625 3.78125,-0.171875 c 0.03125,-0.125 0.046875,-0.25 0.09375,-0.390625 0.3125,-0.984375 0.953125,-2.46875 1.34375,-3.25 0.078125,-0.125 0.1875,-0.34375 0.1875,-0.390625 0,-0.09375 -0.09375,-0.09375 -0.109375,-0.09375 -0.03125,0 -0.09375,0 -0.125,0.0625 C 4.65625,-3.28125 4.25,-2.28125 3.859375,-1.28125 3.84375,-1.578125 3.84375,-2.34375 3.453125,-3.3125 3.203125,-3.921875 2.8125,-4.40625 2.125,-4.40625 c -1.25,0 -1.953125,1.515625 -1.953125,1.828125 0,0.09375 0.09375,0.09375 0.203125,0.09375 z m 0,0"
               style="stroke:none;stroke-width:0" />
          </g>
        </g>
        <g
           id="id-96365e24-b91f-4251-b915-7d30463fbfaa"
           style="fill:#000000;fill-opacity:1;stroke-width:0">
          <g
             transform="translate(276.303,142.606)"
             style="stroke-width:0"
             id="g487">
            <path
               id="id-f5087996-4e88-4737-9aad-77d461fdc606"
               d="M 0.375,1.125 C 0.34375,1.21875 0.34375,1.265625 0.34375,1.265625 c 0,0.15625 0.125,0.21875 0.234375,0.21875 0.265625,0 0.3125,-0.21875 0.34375,-0.34375 0.015625,-0.03125 0.15625,-0.59375 0.3125,-1.265625 0.21875,0.140625 0.5,0.1875 0.75,0.1875 0.59375,0 0.984375,-0.484375 1,-0.5 0.140625,0.484375 0.625,0.5 0.71875,0.5 0.25,0 0.421875,-0.140625 0.5625,-0.359375 C 4.40625,-0.578125 4.5,-0.96875 4.5,-1 c 0,-0.09375 -0.09375,-0.09375 -0.109375,-0.09375 -0.09375,0 -0.109375,0.03125 -0.15625,0.21875 -0.078125,0.34375 -0.21875,0.75 -0.5,0.75 C 3.546875,-0.125 3.5,-0.28125 3.5,-0.46875 c 0,-0.109375 0.046875,-0.375 0.109375,-0.546875 0.046875,-0.1875 0.109375,-0.46875 0.140625,-0.625 l 0.171875,-0.625 C 3.953125,-2.4375 4.03125,-2.75 4.03125,-2.78125 4.03125,-2.921875 3.921875,-3 3.8125,-3 3.734375,-3 3.59375,-2.96875 3.515625,-2.84375 3.5,-2.796875 3.4375,-2.578125 3.40625,-2.4375 l -0.140625,0.578125 -0.21875,0.875 C 3,-0.8125 3,-0.796875 2.9375,-0.703125 2.71875,-0.390625 2.40625,-0.125 2.015625,-0.125 1.4375,-0.125 1.4375,-0.625 1.4375,-0.75 c 0,-0.171875 0.03125,-0.265625 0.125,-0.640625 0.0625,-0.3125 0.078125,-0.359375 0.15625,-0.625 L 1.8125,-2.40625 c 0.03125,-0.15625 0.109375,-0.421875 0.109375,-0.4375 0,-0.125 -0.109375,-0.234375 -0.25,-0.234375 -0.25,0 -0.3125,0.25 -0.328125,0.328125 z m 0,0"
               style="stroke:none;stroke-width:0" />
          </g>
        </g>
        <g
           id="id-9647b88a-3e8f-4064-8ca1-42a718d399a8"
           style="fill:#000000;fill-opacity:1;stroke-width:0">
          <g
             transform="translate(281.645,146.72)"
             style="stroke-width:0"
             id="g491">
            <path
               id="id-f35e10ad-7867-42ef-a76c-7a43c14800cc"
               d="m 4.609375,-3.375 c -0.09375,-0.625 -0.5,-1.1875 -1.28125,-1.1875 -0.609375,0 -1.25,0.171875 -2.03125,0.9375 -0.828125,0.828125 -0.890625,1.765625 -0.890625,2.0625 0,0.625 0.4375,1.78125 1.828125,1.78125 2.375,0 3.40625,-3.34375 3.40625,-4.78125 0,-1.578125 -0.921875,-2.578125 -2.15625,-2.578125 -1.4375,0 -1.90625,1.296875 -1.90625,1.578125 0,0.140625 0.09375,0.34375 0.390625,0.34375 0.328125,0 0.53125,-0.296875 0.53125,-0.515625 0,-0.359375 -0.3125,-0.359375 -0.46875,-0.359375 0.4375,-0.734375 1.15625,-0.796875 1.4375,-0.796875 0.734375,0 1.421875,0.515625 1.421875,1.8125 0,0.390625 -0.0625,0.890625 -0.265625,1.703125 z m -2.34375,3.3125 c -1.09375,0 -1.09375,-1.03125 -1.09375,-1.125 0,-0.265625 0.25,-1.65625 0.65625,-2.265625 0.390625,-0.5625 0.890625,-0.890625 1.5,-0.890625 1.09375,0 1.109375,1.125 1.109375,1.328125 0,0.71875 -0.640625,2.953125 -2.171875,2.953125 z m 0,0"
               style="stroke:none;stroke-width:0" />
          </g>
        </g>
        <g
           id="id-e3538a8b-1491-4dac-a5f0-254862594ef8"
           style="fill:#000000;fill-opacity:1;stroke-width:0">
          <g
             transform="translate(286.935,148.214)"
             style="stroke-width:0"
             id="g495">
            <path
               id="id-34bac2be-226a-4410-8ff5-be192e5b3697"
               d="M 0.375,1.125 C 0.34375,1.21875 0.34375,1.265625 0.34375,1.265625 c 0,0.15625 0.125,0.21875 0.234375,0.21875 0.265625,0 0.3125,-0.21875 0.34375,-0.34375 0.015625,-0.03125 0.15625,-0.59375 0.3125,-1.265625 0.21875,0.140625 0.5,0.1875 0.75,0.1875 0.59375,0 0.984375,-0.484375 1,-0.5 0.140625,0.484375 0.625,0.5 0.71875,0.5 0.25,0 0.421875,-0.140625 0.5625,-0.359375 C 4.40625,-0.578125 4.5,-0.96875 4.5,-1 c 0,-0.09375 -0.09375,-0.09375 -0.109375,-0.09375 -0.09375,0 -0.109375,0.03125 -0.15625,0.21875 -0.078125,0.34375 -0.21875,0.75 -0.5,0.75 C 3.546875,-0.125 3.5,-0.28125 3.5,-0.46875 c 0,-0.109375 0.046875,-0.375 0.109375,-0.546875 0.046875,-0.1875 0.109375,-0.46875 0.140625,-0.625 l 0.171875,-0.625 C 3.953125,-2.4375 4.03125,-2.75 4.03125,-2.78125 4.03125,-2.921875 3.921875,-3 3.8125,-3 3.734375,-3 3.59375,-2.96875 3.515625,-2.84375 3.5,-2.796875 3.4375,-2.578125 3.40625,-2.4375 l -0.140625,0.578125 -0.21875,0.875 C 3,-0.8125 3,-0.796875 2.9375,-0.703125 2.71875,-0.390625 2.40625,-0.125 2.015625,-0.125 1.4375,-0.125 1.4375,-0.625 1.4375,-0.75 c 0,-0.171875 0.03125,-0.265625 0.125,-0.640625 0.0625,-0.3125 0.078125,-0.359375 0.15625,-0.625 L 1.8125,-2.40625 c 0.03125,-0.15625 0.109375,-0.421875 0.109375,-0.4375 0,-0.125 -0.109375,-0.234375 -0.25,-0.234375 -0.25,0 -0.3125,0.25 -0.328125,0.328125 z m 0,0"
               style="stroke:none;stroke-width:0" />
          </g>
        </g>
        <g
           id="id-8b0685c2-96c6-42a8-be50-0867a2f6d8df"
           style="fill:#000000;fill-opacity:1;stroke-width:0">
          <g
             transform="translate(292.277,146.72)"
             style="stroke-width:0"
             id="g499">
            <path
               id="id-daa8e07e-9f08-4fde-8691-2f1d97795227"
               d="m 4.8125,-6.65625 c 0,-0.046875 0.015625,-0.109375 0.015625,-0.15625 0,-0.09375 -0.0625,-0.109375 -0.109375,-0.109375 -0.109375,0 -0.109375,0.03125 -0.15625,0.203125 L 2.90625,-0.125 c -0.75,-0.09375 -1.125,-0.46875 -1.125,-1.125 0,-0.203125 0,-0.453125 0.53125,-1.84375 0.046875,-0.125 0.109375,-0.296875 0.109375,-0.5 0,-0.4375 -0.3125,-0.8125 -0.8125,-0.8125 -0.953125,0 -1.3125,1.453125 -1.3125,1.53125 0,0.109375 0.09375,0.109375 0.109375,0.109375 0.109375,0 0.109375,-0.03125 0.15625,-0.1875 0.28125,-0.9375 0.671875,-1.234375 1.015625,-1.234375 0.078125,0 0.25,0 0.25,0.3125 0,0.265625 -0.109375,0.515625 -0.234375,0.859375 C 1.109375,-1.75 1.109375,-1.5 1.109375,-1.328125 1.109375,-0.375 1.890625,0.03125 2.84375,0.09375 2.765625,0.453125 2.765625,0.46875 2.625,1 2.609375,1.109375 2.40625,1.90625 2.40625,1.9375 c 0,0.015625 0,0.109375 0.109375,0.109375 0.03125,0 0.078125,0 0.09375,-0.046875 0.03125,-0.015625 0.09375,-0.265625 0.125,-0.40625 l 0.375,-1.484375 c 0.375,0 1.25,0 2.1875,-1.0625 0.40625,-0.46875 0.609375,-0.90625 0.71875,-1.203125 0.09375,-0.25 0.3125,-1.109375 0.3125,-1.546875 0,-0.5625 -0.265625,-0.703125 -0.4375,-0.703125 -0.25,0 -0.5,0.265625 -0.5,0.484375 0,0.125 0.0625,0.1875 0.15625,0.265625 0.109375,0.109375 0.359375,0.359375 0.359375,0.84375 0,0.640625 -0.515625,1.453125 -0.875,1.8125 -0.875,0.890625 -1.515625,0.890625 -1.875,0.890625 z m 0,0"
               style="stroke:none;stroke-width:0" />
          </g>
        </g>
        <g
           id="id-126ee96c-b246-4ef4-9c1a-9abc88935538"
           style="fill:#000000;fill-opacity:1;stroke-width:0">
          <g
             transform="translate(301.338,146.72)"
             style="stroke-width:0"
             id="g503">
            <path
               id="id-5d53f041-65ae-44c3-8b38-5150fb3c549c"
               d="m 6.5625,-2.296875 c 0.171875,0 0.359375,0 0.359375,-0.203125 0,-0.1875 -0.1875,-0.1875 -0.359375,-0.1875 H 1.171875 c -0.171875,0 -0.34375,0 -0.34375,0.1875 0,0.203125 0.171875,0.203125 0.34375,0.203125 z m 0,0"
               style="stroke:none;stroke-width:0" />
          </g>
        </g>
        <g
           id="id-7a6c1510-b374-4802-86f8-aa2201edf5fc"
           style="fill:#000000;fill-opacity:1;stroke-width:0">
          <g
             transform="translate(311.3,146.72)"
             style="stroke-width:0"
             id="g507">
            <path
               id="id-6a5e3231-4f44-4fd0-b4b7-2beb78f701d1"
               d="m 0.875,-0.59375 c -0.03125,0.15625 -0.09375,0.390625 -0.09375,0.4375 0,0.171875 0.140625,0.265625 0.296875,0.265625 0.125,0 0.296875,-0.078125 0.375,-0.28125 0,-0.015625 0.125,-0.484375 0.1875,-0.734375 l 0.21875,-0.890625 C 1.90625,-2.03125 1.96875,-2.25 2.03125,-2.46875 c 0.03125,-0.171875 0.109375,-0.46875 0.125,-0.5 0.140625,-0.3125 0.671875,-1.21875 1.625,-1.21875 0.453125,0 0.53125,0.375 0.53125,0.703125 0,0.25 -0.0625,0.53125 -0.140625,0.828125 L 3.890625,-1.5 3.6875,-0.75 c -0.03125,0.203125 -0.125,0.546875 -0.125,0.59375 0,0.171875 0.140625,0.265625 0.28125,0.265625 0.3125,0 0.375,-0.25 0.453125,-0.5625 0.140625,-0.5625 0.515625,-2.015625 0.59375,-2.40625 0.03125,-0.125 0.5625,-1.328125 1.65625,-1.328125 0.421875,0 0.53125,0.34375 0.53125,0.703125 0,0.5625 -0.421875,1.703125 -0.625,2.234375 -0.078125,0.234375 -0.125,0.34375 -0.125,0.546875 0,0.46875 0.34375,0.8125 0.8125,0.8125 0.9375,0 1.3125,-1.453125 1.3125,-1.53125 0,-0.109375 -0.09375,-0.109375 -0.125,-0.109375 -0.09375,0 -0.09375,0.03125 -0.140625,0.1875 -0.15625,0.53125 -0.46875,1.234375 -1.015625,1.234375 -0.171875,0 -0.25,-0.09375 -0.25,-0.328125 0,-0.25 0.09375,-0.484375 0.1875,-0.703125 0.1875,-0.53125 0.609375,-1.625 0.609375,-2.203125 0,-0.640625 -0.40625,-1.0625 -1.15625,-1.0625 -0.734375,0 -1.25,0.4375 -1.625,0.96875 0,-0.125 -0.03125,-0.46875 -0.3125,-0.703125 -0.25,-0.21875 -0.5625,-0.265625 -0.8125,-0.265625 -0.90625,0 -1.390625,0.640625 -1.5625,0.875 -0.046875,-0.578125 -0.46875,-0.875 -0.921875,-0.875 -0.453125,0 -0.640625,0.390625 -0.734375,0.5625 -0.171875,0.359375 -0.296875,0.9375 -0.296875,0.96875 0,0.109375 0.09375,0.109375 0.109375,0.109375 0.109375,0 0.109375,-0.015625 0.171875,-0.234375 0.171875,-0.703125 0.375,-1.1875 0.734375,-1.1875 0.15625,0 0.296875,0.078125 0.296875,0.453125 0,0.21875 -0.03125,0.328125 -0.15625,0.84375 z m 0,0"
               style="stroke:none;stroke-width:0" />
          </g>
          <g
             transform="translate(320.047,146.72)"
             style="stroke-width:0"
             id="g510">
            <path
               id="id-d41b9f3a-0e84-416c-80d3-a7276a5a87b0"
               d="m 3.953125,-3.78125 c -0.171875,0 -0.296875,0 -0.4375,0.125 -0.171875,0.15625 -0.1875,0.328125 -0.1875,0.390625 0,0.25 0.1875,0.359375 0.375,0.359375 0.28125,0 0.546875,-0.25 0.546875,-0.640625 0,-0.484375 -0.46875,-0.859375 -1.171875,-0.859375 -1.34375,0 -2.671875,1.421875 -2.671875,2.828125 0,0.90625 0.578125,1.6875 1.625,1.6875 1.421875,0 2.25,-1.0625 2.25,-1.171875 0,-0.0625 -0.046875,-0.140625 -0.109375,-0.140625 -0.0625,0 -0.078125,0.03125 -0.140625,0.109375 -0.78125,0.984375 -1.875,0.984375 -1.984375,0.984375 -0.625,0 -0.90625,-0.484375 -0.90625,-1.09375 0,-0.40625 0.203125,-1.375 0.546875,-1.984375 0.3125,-0.578125 0.859375,-1 1.40625,-1 0.328125,0 0.71875,0.125 0.859375,0.40625 z m 0,0"
               style="stroke:none;stroke-width:0" />
          </g>
          <g
             transform="translate(324.359,146.72)"
             style="stroke-width:0"
             id="g513">
            <path
               id="id-b5e09e01-e6a6-40b7-8b7a-6c03d0405fd8"
               d="m 4.8125,-6.65625 c 0,-0.046875 0.015625,-0.109375 0.015625,-0.15625 0,-0.09375 -0.0625,-0.109375 -0.109375,-0.109375 -0.109375,0 -0.109375,0.03125 -0.15625,0.203125 L 2.90625,-0.125 c -0.75,-0.09375 -1.125,-0.46875 -1.125,-1.125 0,-0.203125 0,-0.453125 0.53125,-1.84375 0.046875,-0.125 0.109375,-0.296875 0.109375,-0.5 0,-0.4375 -0.3125,-0.8125 -0.8125,-0.8125 -0.953125,0 -1.3125,1.453125 -1.3125,1.53125 0,0.109375 0.09375,0.109375 0.109375,0.109375 0.109375,0 0.109375,-0.03125 0.15625,-0.1875 0.28125,-0.9375 0.671875,-1.234375 1.015625,-1.234375 0.078125,0 0.25,0 0.25,0.3125 0,0.265625 -0.109375,0.515625 -0.234375,0.859375 C 1.109375,-1.75 1.109375,-1.5 1.109375,-1.328125 1.109375,-0.375 1.890625,0.03125 2.84375,0.09375 2.765625,0.453125 2.765625,0.46875 2.625,1 2.609375,1.109375 2.40625,1.90625 2.40625,1.9375 c 0,0.015625 0,0.109375 0.109375,0.109375 0.03125,0 0.078125,0 0.09375,-0.046875 0.03125,-0.015625 0.09375,-0.265625 0.125,-0.40625 l 0.375,-1.484375 c 0.375,0 1.25,0 2.1875,-1.0625 0.40625,-0.46875 0.609375,-0.90625 0.71875,-1.203125 0.09375,-0.25 0.3125,-1.109375 0.3125,-1.546875 0,-0.5625 -0.265625,-0.703125 -0.4375,-0.703125 -0.25,0 -0.5,0.265625 -0.5,0.484375 0,0.125 0.0625,0.1875 0.15625,0.265625 0.109375,0.109375 0.359375,0.359375 0.359375,0.84375 0,0.640625 -0.515625,1.453125 -0.875,1.8125 -0.875,0.890625 -1.515625,0.890625 -1.875,0.890625 z m 0,0"
               style="stroke:none;stroke-width:0" />
          </g>
        </g>
        <g
           id="id-012db04d-15e6-4bce-a2b6-913cc1215505"
           style="fill:#000000;fill-opacity:1;stroke-width:0">
          <g
             transform="translate(333.974,146.72)"
             style="stroke-width:0"
             id="g517">
            <path
               id="id-aae12508-5495-4bba-9d7d-6b0b65e39b7a"
               d="m 6.84375,-3.265625 c 0.15625,0 0.34375,0 0.34375,-0.1875 C 7.1875,-3.65625 7,-3.65625 6.859375,-3.65625 h -5.96875 c -0.140625,0 -0.328125,0 -0.328125,0.203125 0,0.1875 0.1875,0.1875 0.328125,0.1875 z m 0.015625,1.9375 c 0.140625,0 0.328125,0 0.328125,-0.203125 0,-0.1875 -0.1875,-0.1875 -0.34375,-0.1875 H 0.890625 c -0.140625,0 -0.328125,0 -0.328125,0.1875 0,0.203125 0.1875,0.203125 0.328125,0.203125 z m 0,0"
               style="stroke:none;stroke-width:0" />
          </g>
        </g>
        <g
           id="id-ad4b9648-55ae-4223-a869-3da1f96d520d"
           style="fill:#000000;fill-opacity:1;stroke-width:0">
          <g
             transform="translate(344.493,146.72)"
             style="stroke-width:0"
             id="g521">
            <path
               id="id-8a915e72-c666-43d1-8734-3ad595b65956"
               d="m 4.578125,-3.1875 c 0,-0.796875 -0.046875,-1.59375 -0.390625,-2.328125 -0.453125,-0.96875 -1.28125,-1.125 -1.6875,-1.125 -0.609375,0 -1.328125,0.265625 -1.75,1.1875 -0.3125,0.6875 -0.359375,1.46875 -0.359375,2.265625 0,0.75 0.03125,1.640625 0.453125,2.40625 0.421875,0.796875 1.15625,1 1.640625,1 0.53125,0 1.296875,-0.203125 1.734375,-1.15625 0.3125,-0.6875 0.359375,-1.46875 0.359375,-2.25 z M 2.484375,0 C 2.09375,0 1.5,-0.25 1.328125,-1.203125 1.21875,-1.796875 1.21875,-2.71875 1.21875,-3.3125 c 0,-0.640625 0,-1.296875 0.078125,-1.828125 0.1875,-1.1875 0.9375,-1.28125 1.1875,-1.28125 0.328125,0 0.984375,0.1875 1.171875,1.171875 0.109375,0.5625 0.109375,1.3125 0.109375,1.9375 0,0.75 0,1.421875 -0.109375,2.0625 C 3.5,-0.296875 2.9375,0 2.484375,0 Z m 0,0"
               style="stroke:none;stroke-width:0" />
          </g>
        </g>
      </g>
    </g>
    <g
       id="selection"
       transform="matrix(0.19771416,0,0,0.19771416,-273.41538,39.130079)">
      <path
         id="dp_path068"
         fill="none"
         fill-rule="evenodd"
         stroke="#000000"
         stroke-width="0.666667"
         d="m 108.77968,777.19263 v 28.077" />
      <path
         id="dp_path069"
         fill="none"
         fill-rule="evenodd"
         stroke="#000000"
         stroke-width="0.666667"
         d="m 124.87438,777.19263 4.712,14.039" />
      <path
         id="dp_path070"
         fill="none"
         fill-rule="evenodd"
         stroke="#000000"
         stroke-width="0.666667"
         d="m 129.58638,791.23163 -4.712,14.038" />
      <path
         id="dp_path071"
         fill="none"
         fill-rule="evenodd"
         stroke="#000000"
         stroke-width="0.666667"
         d="m 172.09138,791.23163 h 12.759" />
      <path
         id="dp_path072"
         fill="none"
         fill-rule="evenodd"
         stroke="#000000"
         stroke-width="0.666667"
         d="m 153.19338,768.09163 v 46.281" />
      <path
         id="dp_path073"
         fill="none"
         fill-rule="evenodd"
         stroke="#000000"
         stroke-width="0.666667"
         d="m 186.81838,768.09163 6.497,23.14" />
      <path
         id="dp_path074"
         fill="none"
         fill-rule="evenodd"
         stroke="#000000"
         stroke-width="0.666667"
         d="m 193.31538,791.23163 -6.497,23.141" />
      <text
         style="stroke-width:1.00044"
         id="dp_text001"
         transform="scale(1.0004399,0.99956029)"
         xml:space="preserve"
         fill="#000000"
         font-family="Arial"
         font-size="19"
         font-weight="400"
         x="173.32713"
         y="811.22034">2  </text>
      <text
         style="stroke-width:1.00044"
         id="dp_text002"
         transform="scale(1.0004399,0.99956029)"
         xml:space="preserve"
         fill="#000000"
         font-family="Arial"
         font-size="19"
         font-weight="400"
         x="173.80391"
         y="784.31952">1  </text>
      <path
         id="dp_path077"
         fill="#000000"
         fill-rule="evenodd"
         d="m 161.97438,786.21763 h 0.905 v 4.427 h 4.436 v 0.903 h -4.436 v 4.428 h -0.905 v -4.428 h -4.436 v -0.903 h 4.436 z" />
      <path
         id="dp_path078"
         fill="#000000"
         fill-rule="evenodd"
         d="m 137.25138,787.94763 h 9.811 v 0.904 h -9.811 z m 0,2.728 h 9.811 v 0.905 h -9.811 z m 0,2.728 h 9.811 v 0.905 h -9.811 z" />
      <path
         id="dp_path079"
         fill="#000000"
         fill-rule="evenodd"
         d="m 118.37738,781.96563 v 14.262 h -0.907 v -14.262 c -1.019,0.884 -1.807,1.503 -2.363,1.856 -0.556,0.354 -1.246,0.696 -2.073,1.03 v -0.744 c 0.895,-0.724 1.8,-1.626 2.717,-2.703 0.916,-1.077 1.559,-1.932 1.924,-2.563 h 0.523 c 0.46,0.816 1.12,1.712 1.976,2.688 0.859,0.976 1.737,1.836 2.639,2.578 v 0.744 c -0.846,-0.352 -1.559,-0.715 -2.139,-1.086 -0.583,-0.37 -1.345,-0.97 -2.297,-1.8 z" />
      <path
         id="dp_path080"
         fill="none"
         fill-rule="evenodd"
         stroke="#000000"
         stroke-width="0.666667"
         d="m 347.2327,1150.3284 v 28.077" />
      <path
         id="dp_path081"
         fill="none"
         fill-rule="evenodd"
         stroke="#000000"
         stroke-width="0.666667"
         d="m 363.3297,1150.3284 4.709,14.039" />
      <path
         id="dp_path082"
         fill="none"
         fill-rule="evenodd"
         stroke="#000000"
         stroke-width="0.666667"
         d="m 368.0387,1164.3674 -4.709,14.038" />
      <path
         id="dp_path083"
         fill="none"
         fill-rule="evenodd"
         stroke="#000000"
         stroke-width="0.666667"
         d="m 409.0547,1164.3674 h 12.759" />
      <path
         id="dp_path084"
         fill="none"
         fill-rule="evenodd"
         stroke="#000000"
         stroke-width="0.666667"
         d="m 390.4547,1141.2254 v 46.282" />
      <path
         id="dp_path085"
         fill="none"
         fill-rule="evenodd"
         stroke="#000000"
         stroke-width="0.666667"
         d="m 423.7807,1141.2254 6.498,23.142" />
      <path
         id="dp_path086"
         fill="none"
         fill-rule="evenodd"
         stroke="#000000"
         stroke-width="0.666667"
         d="m 430.2787,1164.3674 -6.498,23.14" />
      <text
         style="stroke-width:1.00044"
         id="dp_text003"
         transform="scale(1.0004399,0.99956029)"
         xml:space="preserve"
         fill="#000000"
         font-family="Arial"
         font-size="19"
         font-weight="400"
         x="410.18726"
         y="1184.5201">2  </text>
      <text
         style="stroke-width:1.00044"
         id="dp_text004"
         transform="scale(1.0004399,0.99956029)"
         xml:space="preserve"
         fill="#000000"
         font-family="Arial"
         font-size="19"
         font-weight="400"
         x="410.66205"
         y="1157.6184">1  </text>
      <path
         id="dp_path089"
         fill="#000000"
         fill-rule="evenodd"
         d="m 394.7987,1163.7644 h 9.779 v 0.903 h -9.779 z" />
      <path
         id="dp_path090"
         fill="#000000"
         fill-rule="evenodd"
         d="m 374.5147,1161.0834 h 9.81 v 0.902 h -9.81 z m 0,2.728 h 9.81 v 0.904 h -9.81 z m 0,2.728 h 9.81 v 0.904 h -9.81 z" />
      <path
         id="dp_path091"
         fill="#000000"
         fill-rule="evenodd"
         d="m 355.9257,1166.2374 v -14.261 h 0.907 v 14.261 c 1.018,-0.88 1.805,-1.498 2.361,-1.852 0.556,-0.352 1.247,-0.698 2.075,-1.033 v 0.744 c -0.896,0.725 -1.802,1.625 -2.723,2.703 -0.92,1.077 -1.56,1.932 -1.92,2.564 h -0.521 c -0.467,-0.824 -1.128,-1.723 -1.982,-2.699 -0.854,-0.975 -1.732,-1.832 -2.633,-2.568 v -0.744 c 0.84,0.353 1.549,0.717 2.133,1.089 0.586,0.372 1.352,0.972 2.303,1.796 z" />
      <g
         transform="translate(11.470383,108.96864)"
         id="dp_group005">
        <path
           id="dp_path046"
           fill="#000000"
           fill-rule="evenodd"
           d="m 125.147,582.14 10e-4,-150.239 h -2.667 L 122.48,582.14 Z" />
        <path
           id="dp_path045"
           fill="#000000"
           fill-rule="evenodd"
           d="m 121.535,280.453 h 2.666 5.334 l -6.667,-15.397 -6.667,15.397 z" />
        <path
           id="dp_path006"
           fill="#00b050"
           fill-rule="evenodd"
           fill-opacity="0.501961"
           stroke="#005c2a"
           stroke-opacity="0.501961"
           stroke-width="1.33333"
           d="m 119.883,488.467 c 1.07,-0.016 2.145,-0.026 3.224,-0.026 42.976,0 78.842,11.28 93.414,19.78 h -0.004 0.004 L 122.929,431.057 29.736,509.08 c 12.6333,-7.116 48.876,-19.967 90.147,-20.613 z" />
        <text
           id="dp_text005"
           transform="translate(110.859,249.997)"
           xml:space="preserve"
           fill="#000000"
           font-family="Arial"
           font-size="22"
           font-weight="400"
           font-style="italic"
           x="0"
           y="0">S  </text>
        <text
           id="dp_text006"
           transform="translate(123.787,255.769)"
           xml:space="preserve"
           fill="#000000"
           font-family="Arial"
           font-size="17"
           font-weight="400"
           font-style="italic"
           x="0"
           y="0">z </text>
        <text
           id="dp_text007"
           transform="translate(132.447,255.769)"
           xml:space="preserve"
           fill="#000000"
           font-family="Times New Roman"
           font-size="13"
           font-weight="400"
           font-style="italic"
           x="0"
           y="0">  </text>
        <text
           id="dp_text008"
           transform="translate(271.998,397.164)"
           xml:space="preserve"
           fill="#000000"
           font-family="Arial"
           font-size="22"
           font-weight="400"
           font-style="italic"
           x="0"
           y="0">S  </text>
        <text
           id="dp_text009"
           transform="translate(284.926,402.936)"
           xml:space="preserve"
           fill="#000000"
           font-family="Arial"
           font-size="17"
           font-weight="400"
           font-style="italic"
           x="0"
           y="0">y </text>
        <text
           id="dp_text010"
           transform="translate(293.586,402.936)"
           xml:space="preserve"
           fill="#000000"
           font-family="Times New Roman"
           font-size="13"
           font-weight="400"
           font-style="italic"
           x="0"
           y="0">  </text>
        <text
           id="dp_text011"
           transform="translate(270.379,481.777)"
           xml:space="preserve"
           fill="#000000"
           font-family="Arial"
           font-size="22"
           font-weight="400"
           font-style="italic"
           x="0"
           y="0">S  </text>
        <text
           id="dp_text012"
           transform="translate(282.307,487.549)"
           xml:space="preserve"
           fill="#000000"
           font-family="Arial"
           font-size="17"
           font-weight="400"
           font-style="italic"
           x="0"
           y="0">x </text>
        <text
           id="dp_text013"
           transform="translate(290.967,487.549)"
           xml:space="preserve"
           fill="#000000"
           font-family="Times New Roman"
           font-size="13"
           font-weight="400"
           font-style="italic"
           x="0"
           y="0">  </text>
        <g
           id="dp_group016">
          <g
             id="dp_group033">
            <path
               id="dp_path035"
               fill="#00b050"
               fill-rule="evenodd"
               d="m 206.816,217.116 2.585,0.983 5.17,1.962 -1.555,-15.378 -11.369,10.47 z" />
            <path
               id="dp_path036"
               fill="#00b050"
               fill-rule="evenodd"
               d="m 176.108,305.76 33.293,-87.661 -2.584,-0.982 -33.293,87.662 z" />
          </g>
          <path
             id="dp_path047"
             fill="#21d26d"
             fill-rule="evenodd"
             fill-opacity="0.501961"
             stroke="#000000"
             stroke-opacity="0.501961"
             stroke-width="1.33333"
             d="m 184,280.575 -4.429,11.14" />
          <path
             id="dp_path048"
             fill="#00b050"
             fill-rule="evenodd"
             fill-opacity="0.501961"
             stroke="#000000"
             stroke-opacity="0.501961"
             stroke-width="1.33333"
             d="m 202.113,235.04 c -12.574,-5 -26.822,1.139 -31.824,13.712 -5.001,12.575 1.138,26.823 13.712,31.824 12.574,5.001 26.823,-1.137 31.823,-13.712 5.003,-12.573 -1.137,-26.823 -13.711,-31.824 z" />
          <path
             id="dp_path049"
             fill="#21d26d"
             fill-rule="evenodd"
             fill-opacity="0.501961"
             stroke="#000000"
             stroke-opacity="0.501961"
             stroke-width="1.33333"
             d="m 206.543,223.9 -7.016,17.64" />
          <g
             id="dp_group050">
            <path
               id="dp_path052"
               fill="#000000"
               fill-rule="evenodd"
               fill-opacity="0.501961"
               d="m 222.999,264.803 0.916,-0.971 1.829,-1.94 -7.139,-2.147 2.567,6.998 z" />
            <path
               id="dp_path053"
               fill="#000000"
               fill-rule="evenodd"
               fill-opacity="0.501961"
               d="m 172.748,240.825 -0.62,-0.049 -0.613,-0.039 -0.602,-0.032 -0.588,-0.02 -0.577,-0.013 -0.565,-0.003 -0.551,0.008 -0.539,0.018 -0.526,0.025 -0.512,0.037 -0.498,0.047 -0.485,0.056 -0.467,0.069 -0.233,0.036 -0.228,0.04 -0.22,0.043 -0.219,0.044 -0.216,0.048 -0.212,0.049 -0.21,0.054 -0.206,0.057 -0.196,0.059 -0.197,0.06 -0.193,0.065 -0.19,0.067 -0.186,0.069 -0.18,0.072 -0.178,0.076 -0.174,0.079 -0.17,0.081 -0.165,0.087 -0.16,0.088 -0.157,0.09 -0.152,0.095 -0.15,0.096 -0.144,0.103 -0.136,0.102 -0.14,0.11 -0.128,0.11 -0.125,0.112 -0.123,0.122 -0.117,0.122 -0.111,0.127 -0.101,0.125 -0.103,0.135 -0.096,0.14 -0.086,0.136 -0.083,0.14 -0.079,0.147 -0.072,0.15 -0.065,0.155 -0.059,0.155 -0.05,0.157 -0.047,0.161 -0.039,0.162 -0.032,0.161 -0.025,0.164 -0.02,0.165 -0.013,0.166 -0.007,0.168 v 0.169 l 0.005,0.169 0.012,0.17 0.018,0.172 0.022,0.172 0.03,0.173 0.034,0.173 0.039,0.174 0.047,0.174 0.05,0.176 0.056,0.174 0.06,0.174 0.067,0.176 0.072,0.18 0.076,0.176 0.081,0.18 0.087,0.178 0.089,0.177 0.095,0.181 0.103,0.183 0.104,0.183 0.109,0.178 0.113,0.183 0.119,0.184 0.123,0.183 0.128,0.184 0.132,0.185 0.136,0.187 0.142,0.186 0.295,0.374 0.312,0.376 0.328,0.378 0.347,0.382 0.361,0.384 0.379,0.385 0.394,0.387 0.412,0.39 0.428,0.392 0.44,0.391 0.458,0.395 0.472,0.394 0.488,0.398 0.501,0.396 0.517,0.4 0.531,0.398 0.543,0.399 0.56,0.401 0.57,0.399 0.587,0.401 0.597,0.398 0.612,0.401 0.624,0.399 0.636,0.398 0.65,0.398 0.66,0.397 0.672,0.395 0.685,0.394 0.696,0.392 0.707,0.391 0.717,0.389 0.729,0.388 0.74,0.386 0.751,0.381 0.76,0.38 0.769,0.377 0.779,0.374 0.788,0.372 0.799,0.368 0.805,0.364 0.817,0.36 0.822,0.356 0.834,0.354 0.84,0.348 0.848,0.344 0.851,0.339 0.848,0.328 0.847,0.321 0.842,0.312 0.838,0.304 0.834,0.294 0.831,0.285 0.825,0.279 0.823,0.266 0.815,0.26 0.813,0.25 0.805,0.245 0.802,0.232 0.793,0.224 0.788,0.215 0.779,0.206 0.776,0.199 0.766,0.188 0.759,0.179 0.752,0.17 0.744,0.162 0.736,0.153 0.728,0.141 0.716,0.135 0.711,0.125 0.697,0.115 0.691,0.107 0.68,0.097 0.669,0.089 0.66,0.079 0.649,0.068 0.636,0.06 0.626,0.051 0.613,0.041 0.603,0.032 0.592,0.021 0.58,0.012 0.562,0.003 0.556,-0.007 0.54,-0.017 0.526,-0.025 0.514,-0.036 0.502,-0.048 0.484,-0.056 0.469,-0.066 0.235,-0.038 0.225,-0.039 0.227,-0.043 0.217,-0.045 0.216,-0.047 0.213,-0.05 0.207,-0.054 0.205,-0.054 0.203,-0.06 0.195,-0.06 0.194,-0.064 0.19,-0.068 0.188,-0.07 0.178,-0.072 0.18,-0.077 0.175,-0.079 0.167,-0.081 0.166,-0.084 0.163,-0.089 0.157,-0.091 0.152,-0.095 0.148,-0.096 0.146,-0.101 0.14,-0.105 0.136,-0.108 0.132,-0.112 0.125,-0.116 0.12,-0.118 0.116,-0.121 0.113,-0.125 0.107,-0.131 0.099,-0.133 0.093,-0.135 0.092,-0.141 0.083,-0.143 0.076,-0.145 0.073,-0.151 0.064,-0.153 0.061,-0.162 0.052,-0.161 0.047,-0.163 0.039,-0.166 0.03,-0.164 0.027,-0.167 0.02,-0.176 0.012,-0.173 0.003,-0.167 10e-4,-0.175 -0.008,-0.176 -0.015,-0.174 -0.018,-0.176 -0.027,-0.175 -0.031,-0.176 -0.038,-0.18 -0.043,-0.176 -0.049,-0.183 -0.056,-0.181 -0.06,-0.176 -0.064,-0.181 -0.072,-0.183 -0.076,-0.183 -0.082,-0.181 -0.085,-0.184 -0.092,-0.184 -0.096,-0.183 -0.103,-0.188 -0.106,-0.185 -0.111,-0.187 -0.116,-0.186 -0.121,-0.187 -0.126,-0.191 -0.13,-0.188 -0.136,-0.189 -0.139,-0.189 -0.143,-0.191 -0.149,-0.192 -0.155,-0.193 -0.184,-0.224 -0.156,-0.148 -0.912,0.972 0.094,0.086 0.122,0.15 0.143,0.178 0.136,0.179 0.136,0.179 0.128,0.173 0.125,0.175 0.118,0.172 0.116,0.17 0.108,0.171 0.104,0.167 0.098,0.166 0.095,0.166 0.089,0.161 0.084,0.161 0.08,0.162 0.075,0.157 0.069,0.155 0.064,0.153 0.059,0.149 0.053,0.151 0.05,0.151 0.045,0.142 0.039,0.142 0.033,0.141 0.029,0.137 0.026,0.136 0.018,0.135 0.015,0.131 0.011,0.13 0.005,0.123 0.001,0.124 -0.005,0.127 -0.007,0.118 -0.012,0.111 -0.018,0.116 -0.023,0.116 -0.027,0.111 -0.03,0.11 -0.034,0.108 -0.041,0.106 -0.044,0.101 -0.047,0.099 -0.052,0.098 -0.056,0.098 -0.058,0.093 -0.066,0.093 -0.07,0.092 -0.072,0.088 -0.079,0.09 -0.083,0.088 -0.088,0.085 -0.092,0.084 -0.097,0.081 -0.101,0.083 -0.106,0.079 -0.113,0.077 -0.119,0.079 -0.121,0.074 -0.125,0.074 -0.132,0.07 -0.135,0.07 -0.143,0.069 -0.145,0.065 -0.151,0.064 -0.156,0.063 -0.158,0.061 -0.164,0.056 -0.168,0.056 -0.178,0.055 -0.177,0.052 -0.181,0.049 -0.191,0.048 -0.189,0.046 -0.196,0.042 -0.203,0.042 -0.203,0.04 -0.209,0.034 -0.211,0.036 -0.44,0.06 -0.454,0.055 -0.471,0.043 -0.484,0.034 -0.501,0.026 -0.515,0.016 -0.529,0.005 -0.544,-0.003 -0.558,-0.01 -0.569,-0.022 -0.583,-0.032 -0.596,-0.04 -0.609,-0.048 -0.62,-0.058 -0.631,-0.067 -0.644,-0.077 -0.654,-0.086 -0.664,-0.096 -0.676,-0.102 -0.686,-0.115 -0.694,-0.121 -0.706,-0.132 -0.713,-0.14 -0.724,-0.151 -0.731,-0.159 -0.74,-0.168 -0.748,-0.177 -0.754,-0.185 -0.764,-0.194 -0.77,-0.202 -0.777,-0.214 -0.783,-0.222 -0.789,-0.23 -0.796,-0.238 -0.801,-0.247 -0.807,-0.257 -0.812,-0.266 -0.816,-0.273 -0.821,-0.283 -0.824,-0.29 -0.83,-0.3 -0.833,-0.308 -0.833,-0.318 -0.839,-0.325 -0.843,-0.333 -0.838,-0.342 -0.832,-0.344 -0.822,-0.349 -0.814,-0.352 -0.806,-0.357 -0.797,-0.36 -0.788,-0.363 -0.78,-0.368 -0.769,-0.369 -0.76,-0.372 -0.751,-0.376 -0.74,-0.376 -0.729,-0.379 -0.719,-0.383 -0.708,-0.385 -0.696,-0.385 -0.687,-0.387 -0.674,-0.388 -0.662,-0.388 -0.652,-0.391 -0.638,-0.39 -0.626,-0.392 -0.613,-0.392 -0.6,-0.394 -0.587,-0.392 -0.574,-0.392 -0.56,-0.39 -0.546,-0.391 -0.532,-0.391 -0.517,-0.389 -0.503,-0.388 -0.489,-0.387 -0.473,-0.384 -0.459,-0.385 -0.441,-0.381 -0.427,-0.379 -0.411,-0.377 -0.394,-0.374 -0.376,-0.37 -0.362,-0.368 -0.345,-0.363 -0.327,-0.363 -0.309,-0.354 -0.292,-0.352 -0.276,-0.351 -0.128,-0.171 -0.127,-0.17 -0.121,-0.17 -0.116,-0.166 -0.111,-0.168 -0.109,-0.166 -0.101,-0.164 -0.099,-0.164 -0.093,-0.16 -0.088,-0.158 -0.083,-0.156 -0.08,-0.159 -0.073,-0.153 -0.07,-0.154 -0.065,-0.149 -0.059,-0.147 -0.054,-0.148 -0.051,-0.145 -0.045,-0.143 -0.04,-0.137 -0.036,-0.14 -0.032,-0.136 -0.027,-0.135 -0.023,-0.129 -0.016,-0.128 -0.013,-0.129 -0.008,-0.124 -0.004,-0.123 -0.001,-0.12 0.006,-0.116 0.01,-0.119 0.012,-0.112 0.017,-0.112 0.023,-0.112 0.025,-0.108 0.029,-0.105 0.036,-0.105 0.039,-0.103 0.044,-0.101 0.047,-0.099 0.05,-0.097 0.058,-0.098 0.061,-0.097 0.061,-0.091 0.07,-0.088 0.076,-0.093 0.077,-0.088 0.081,-0.087 0.086,-0.082 0.096,-0.087 0.096,-0.083 0.098,-0.078 0.11,-0.082 0.112,-0.077 0.116,-0.079 0.121,-0.074 0.125,-0.072 0.134,-0.074 0.134,-0.069 0.142,-0.068 0.142,-0.064 0.15,-0.064 0.157,-0.063 0.159,-0.061 0.165,-0.057 0.167,-0.056 0.173,-0.054 0.181,-0.052 0.182,-0.05 0.185,-0.047 0.192,-0.047 0.193,-0.042 0.2,-0.04 0.206,-0.04 0.208,-0.036 0.21,-0.035 0.44,-0.063 0.452,-0.053 0.468,-0.043 0.484,-0.034 0.498,-0.027 0.514,-0.015 0.53,-0.008 0.541,0.003 0.555,0.012 0.569,0.02 0.581,0.029 0.594,0.04 0.61,0.05 z" />
          </g>
        </g>
        <path
           id="path653"
           fill="none"
           fill-rule="evenodd"
           stroke="#000000"
           stroke-width="1.33333"
           d="m 118.085,511.433 h 10.667" />
        <path
           id="dp_path017"
           fill="#000000"
           fill-rule="evenodd"
           d="m 254.543,464.048 v 10e-4 l -269.359,-68.585 -0.5067,1.997 269.3587,68.586 -1.015,3.994 11.256,-2.457 -8.72,-7.531 z" />
        <path
           id="dp_path018"
           fill="#000000"
           fill-rule="evenodd"
           d="m 254.543,399.459 v -0.002 l -269.359,68.586 -0.5067,-1.998 269.3587,-68.585 -1.015,-3.995 11.256,2.458 -8.72,7.53 z" />
        <path
           id="path657"
           fill="#000000"
           fill-rule="evenodd"
           d="m 124.201,433.024 0.002,-152.905 h -2.667 l -0.001,152.905 z" />
        <path
           id="dp_path019"
           fill="#00b050"
           fill-rule="evenodd"
           fill-opacity="0.501961"
           stroke="#005c2a"
           stroke-width="1.33333"
           d="m 123.175,549.411 c 54.756,0 99.144,-13.615 99.144,-30.41 0,-3.604 -1.471,-7.642 -5.226,-10.85 l -0.57,-0.491 -93.348,-77.149 -92.015,77.149 c -0.7787,0.595 -1.4973,1.196 -2.1547,1.807 l -2.0826,2.084 0.772,-0.766 c -2.3854,2.615 -3.6627,5.37 -3.6627,8.216 0,16.795 44.388,30.41 99.143,30.41 z" />
        <g
           id="dp_group020">
          <path
             id="dp_path066"
             fill="#000000"
             fill-rule="evenodd"
             stroke="none"
             stroke-width="2.77067"
             d="m 65.3813,516.88 h 10.4014 v 1.559 H 65.3813 Z" />
          <text
             id="dp_text014"
             transform="translate(77.924,524.663)"
             xml:space="preserve"
             fill="#000000"
             font-family="Arial"
             font-size="22"
             font-weight="400"
             font-style="italic"
             x="0"
             y="0">h</text>
          <text
             id="dp_text015"
             transform="translate(77.924,524.663)"
             xml:space="preserve"
             fill="#000000"
             font-family="Arial"
             font-size="22"
             font-weight="400"
             x="12.2613"
             y="0">/2</text>
          <text
             id="dp_text016"
             transform="translate(77.924,524.663)"
             xml:space="preserve"
             fill="#000000"
             font-family="Arial"
             font-size="22"
             font-weight="400"
             font-style="italic"
             x="30.624001"
             y="0"> </text>
          <path
             id="path664"
             fill="none"
             fill-rule="evenodd"
             stroke="#000000"
             stroke-width="1.33333"
             d="m 79.924,511.961 9.2,-0.2" />
        </g>
        <path
           id="path667"
           fill="#00b050"
           fill-rule="evenodd"
           fill-opacity="0.498039"
           stroke="#005c2a"
           stroke-width="1.33333"
           d="m 123.499,401.128 c 65.868,0 119.264,13.432 119.264,30 0,16.568 -53.396,30 -119.264,30 -65.867,0 -119.263,-13.432 -119.263,-30 0,-16.568 53.396,-30 119.263,-30 z" />
        <path
           id="dp_path024"
           fill="#00b050"
           fill-rule="evenodd"
           fill-opacity="0.501961"
           stroke="#005c2a"
           stroke-width="1.33333"
           d="m 122.545,312.871 c 54.755,0 99.143,13.432 99.143,30 0,3.556 -1.471,7.54 -5.225,10.705 l -0.571,0.484 -93.348,76.111 -92.0147,-76.111 c -0.7773,-0.587 -1.4973,-1.18 -2.1546,-1.783 l -2.0827,-2.056 0.772,0.755 c -2.3853,-2.579 -3.6613,-5.297 -3.6613,-8.105 0,-16.568 44.3866,-30 99.1423,-30 z" />
        <path
           id="path670"
           fill="#000000"
           fill-rule="evenodd"
           stroke="#000000"
           stroke-width="1.33333"
           d="m 117.085,350.848 h 10.667" />
        <g
           id="dp_group025">
          <text
             id="dp_text017"
             transform="translate(66.667,351.338)"
             xml:space="preserve"
             fill="#000000"
             font-family="Arial"
             font-size="22"
             font-weight="400"
             font-style="italic"
             x="0"
             y="0">+h</text>
          <text
             id="dp_text018"
             transform="translate(66.667,351.338)"
             xml:space="preserve"
             fill="#000000"
             font-family="Arial"
             font-size="22"
             font-weight="400"
             x="25.109301"
             y="0">/2</text>
          <text
             id="dp_text019"
             transform="translate(66.667,351.338)"
             xml:space="preserve"
             fill="#000000"
             font-family="Arial"
             font-size="22"
             font-weight="400"
             font-style="italic"
             x="43.472"
             y="0">  </text>
          <path
             id="dp_path034"
             fill="none"
             fill-rule="evenodd"
             stroke="#000000"
             stroke-width="1.33333"
             d="m 80.6667,338.636 9.2,-0.2" />
        </g>
        <text
           id="dp_text020"
           transform="translate(153.415,308.112)"
           xml:space="preserve"
           fill="#005c2a"
           font-family="Arial"
           font-size="22"
           font-weight="700"
           x="0"
           y="0">S</text>
        <text
           id="dp_text021"
           transform="translate(153.415,308.112)"
           xml:space="preserve"
           fill="#005c2a"
           font-family="Arial"
           font-size="22"
           font-weight="400"
           font-style="italic"
           x="14.6667"
           y="0">  </text>
        <path
           id="dp_path031"
           fill="#005c2a"
           fill-rule="evenodd"
           d="m 163.192,328.495 -40.535,102.802 2.476,0.987 40.536,-102.801 4.954,1.974 -1.254,-14.853 -11.132,9.915 4.954,1.974 z" />
        <path
           id="dp_path032"
           fill="#005c2a"
           fill-rule="evenodd"
           d="m 193.957,413.129 -71.037,18.23 0.664,2.582 71.037,-18.229 1.328,5.164 11.254,-9.777 -14.574,-3.136 1.328,5.165 z" />
        <path
           id="dp_path033"
           fill="#005c2a"
           fill-rule="evenodd"
           d="m 99.336,424.115 24.828,6.057 -0.664,2.583 -24.828,-6.058 -1.328,5.164 -11.2533,-9.777 14.5733,-3.136 -1.328,5.165 z" />
        <path
           id="path682"
           fill="#005c2a"
           fill-rule="evenodd"
           d="m 121.372,363.411 -0.001,69.468 h 2.666 l 0.002,-69.468 h 5.332 l -6.667,-13.334 -6.667,13.334 h 5.334 z" />
        <path
           id="path684"
           fill="#00b050"
           fill-rule="evenodd"
           fill-opacity="0.501961"
           stroke="#005c2a"
           stroke-width="1.33333"
           d="m 119.252,373.392 c 1.072,0.016 2.147,0.025 3.225,0.025 42.975,0 78.842,-11.049 93.414,-19.374 h -0.004 0.005 L 122.3,429.624 29.1067,353.201 c 12.632,6.971 48.876,19.558 90.1453,20.191 z" />
        <text
           id="dp_text022"
           transform="translate(99.4843,460.525)"
           xml:space="preserve"
           fill="#000000"
           font-family="Arial"
           font-size="22"
           font-weight="400"
           x="0"
           y="0">0 </text>
      </g>
      <text
         id="dp_text023"
         xml:space="preserve"
         fill="#005c2a"
         font-family="Arial"
         font-size="22"
         font-weight="700"
         x="326.72672"
         y="1038.0583">S</text>
      <text
         id="dp_text024"
         xml:space="preserve"
         fill="#005c2a"
         font-family="Arial"
         font-size="22"
         font-weight="400"
         font-style="italic"
         x="341.3934"
         y="1038.0583">  </text>
      <path
         id="dp_path060"
         fill="#005c2a"
         fill-rule="evenodd"
         stroke="none"
         stroke-width="2.77067"
         d="m 309.0947,1028.5484 h 12.407 v 2.357 h -12.407 z" />
      <path
         id="path691"
         fill="#000000"
         fill-rule="evenodd"
         d="m 399.6577,1055.4434 0.001,-150.23904 h -2.666 l -0.002,150.23904 z" />
      <path
         id="path693"
         fill="#000000"
         fill-rule="evenodd"
         d="m 396.0457,753.75636 h 2.667 5.333 l -6.667,-15.397 -6.666,15.397 z" />
      <path
         id="dp_path039"
         fill="#00b050"
         fill-rule="evenodd"
         fill-opacity="0.501961"
         stroke="#005c2a"
         stroke-opacity="0.501961"
         stroke-width="1.33333"
         d="m 394.3937,961.76936 c 1.071,-0.016 2.145,-0.025 3.224,-0.025 42.976,0 78.843,11.28 93.415,19.78 h -0.004 0.004 l -93.592,-77.164 -93.194,78.023 c 12.634,-7.116 48.876,-19.967 90.147,-20.614 z" />
      <text
         id="dp_text025"
         xml:space="preserve"
         fill="#000000"
         font-family="Arial"
         font-size="22"
         font-weight="400"
         font-style="italic"
         x="385.3707"
         y="723.30035">S  </text>
      <text
         id="dp_text026"
         xml:space="preserve"
         fill="#000000"
         font-family="Arial"
         font-size="17"
         font-weight="400"
         font-style="italic"
         x="398.29871"
         y="729.07233">z </text>
      <text
         id="dp_text027"
         xml:space="preserve"
         fill="#000000"
         font-family="Times New Roman"
         font-size="13"
         font-weight="400"
         font-style="italic"
         x="406.95871"
         y="729.07233">  </text>
      <text
         id="dp_text028"
         xml:space="preserve"
         fill="#000000"
         font-family="Arial"
         font-size="22"
         font-weight="400"
         font-style="italic"
         x="546.50873"
         y="870.46637">S  </text>
      <text
         id="dp_text029"
         xml:space="preserve"
         fill="#000000"
         font-family="Arial"
         font-size="17"
         font-weight="400"
         font-style="italic"
         x="559.43671"
         y="876.23834">y </text>
      <text
         id="dp_text030"
         xml:space="preserve"
         fill="#000000"
         font-family="Times New Roman"
         font-size="13"
         font-weight="400"
         font-style="italic"
         x="568.09668"
         y="876.23834">  </text>
      <text
         id="dp_text031"
         xml:space="preserve"
         fill="#000000"
         font-family="Arial"
         font-size="22"
         font-weight="400"
         font-style="italic"
         x="544.88971"
         y="955.08038">S  </text>
      <text
         id="dp_text032"
         xml:space="preserve"
         fill="#000000"
         font-family="Arial"
         font-size="17"
         font-weight="400"
         font-style="italic"
         x="556.81769"
         y="960.85236">x </text>
      <text
         id="dp_text033"
         xml:space="preserve"
         fill="#000000"
         font-family="Times New Roman"
         font-size="13"
         font-weight="400"
         font-style="italic"
         x="565.47772"
         y="960.85236">  </text>
      <g
         transform="translate(-68.822298,479.84436)"
         id="dp_group049">
        <g
           id="g709">
          <path
             id="path705"
             fill="#00b050"
             fill-rule="evenodd"
             d="m 387.131,636.851 -2.586,-0.983 -5.169,-1.963 1.555,15.379 11.369,-10.471 z" />
          <path
             id="path707"
             fill="#00b050"
             fill-rule="evenodd"
             d="m 417.839,548.207 -33.294,87.661 2.584,0.981 33.294,-87.661 z" />
        </g>
        <path
           id="path711"
           fill="#21d26d"
           fill-rule="evenodd"
           fill-opacity="0.501961"
           stroke="#000000"
           stroke-opacity="0.501961"
           stroke-width="1.33333"
           d="m 409.947,573.392 4.429,-11.14" />
        <path
           id="path713"
           fill="#00b050"
           fill-rule="evenodd"
           fill-opacity="0.501961"
           stroke="#000000"
           stroke-opacity="0.501961"
           stroke-width="1.33333"
           d="m 391.833,618.927 c 12.575,5 26.823,-1.139 31.824,-13.712 5.002,-12.575 -1.137,-26.823 -13.712,-31.824 -12.573,-5.002 -26.822,1.137 -31.822,13.712 -5.003,12.573 1.137,26.822 13.71,31.824 z" />
        <path
           id="path715"
           fill="#21d26d"
           fill-rule="evenodd"
           fill-opacity="0.501961"
           stroke="#000000"
           stroke-opacity="0.501961"
           stroke-width="1.33333"
           d="m 387.404,630.067 7.016,-17.64" />
        <g
           id="g721">
          <path
             id="path717"
             fill="#000000"
             fill-rule="evenodd"
             fill-opacity="0.501961"
             d="m 370.948,589.164 -0.916,0.971 -1.829,1.94 7.138,2.146 -2.566,-6.997 z" />
          <path
             id="path719"
             fill="#000000"
             fill-rule="evenodd"
             fill-opacity="0.501961"
             d="m 421.199,613.141 0.62,0.05 0.613,0.038 0.601,0.032 0.588,0.02 0.578,0.014 0.565,0.002 0.551,-0.008 0.538,-0.017 0.527,-0.025 0.512,-0.038 0.497,-0.046 0.486,-0.056 0.466,-0.07 0.234,-0.036 0.228,-0.04 0.22,-0.042 0.218,-0.044 0.216,-0.048 0.212,-0.05 0.211,-0.053 0.205,-0.057 0.196,-0.059 0.198,-0.06 0.193,-0.065 0.189,-0.067 0.187,-0.069 0.18,-0.072 0.177,-0.076 0.175,-0.079 0.169,-0.081 0.166,-0.087 0.16,-0.088 0.157,-0.091 0.152,-0.094 0.149,-0.096 0.144,-0.103 0.136,-0.103 0.14,-0.109 0.128,-0.111 0.126,-0.112 0.122,-0.121 0.118,-0.123 0.11,-0.126 0.102,-0.126 0.102,-0.134 0.096,-0.14 0.087,-0.136 0.083,-0.14 0.078,-0.147 0.072,-0.151 0.066,-0.154 0.058,-0.155 0.051,-0.157 0.047,-0.162 0.038,-0.161 0.032,-0.161 0.026,-0.164 0.02,-0.166 0.013,-0.165 0.007,-0.168 v -0.169 l -0.006,-0.17 -0.012,-0.169 -0.017,-0.172 -0.023,-0.172 -0.029,-0.173 -0.035,-0.174 -0.038,-0.173 -0.047,-0.175 -0.051,-0.176 -0.056,-0.173 -0.06,-0.175 -0.066,-0.176 -0.072,-0.18 -0.076,-0.176 -0.082,-0.18 -0.086,-0.177 -0.09,-0.177 -0.094,-0.182 -0.103,-0.182 -0.104,-0.183 -0.109,-0.179 -0.114,-0.182 -0.118,-0.184 -0.123,-0.183 -0.128,-0.184 -0.132,-0.185 -0.136,-0.187 -0.143,-0.187 -0.294,-0.373 -0.312,-0.376 -0.328,-0.379 -0.347,-0.381 -0.361,-0.384 -0.379,-0.385 -0.395,-0.387 -0.412,-0.391 -0.428,-0.392 -0.44,-0.39 -0.457,-0.395 -0.472,-0.395 -0.488,-0.397 -0.501,-0.396 -0.518,-0.4 -0.53,-0.399 -0.543,-0.398 -0.56,-0.402 -0.571,-0.398 -0.586,-0.402 -0.598,-0.397 -0.612,-0.401 -0.624,-0.399 -0.636,-0.399 -0.649,-0.397 -0.66,-0.397 -0.672,-0.395 -0.685,-0.395 -0.696,-0.392 -0.707,-0.39 -0.717,-0.39 -0.73,-0.388 -0.74,-0.385 -0.75,-0.381 -0.76,-0.38 -0.77,-0.378 -0.778,-0.373 -0.788,-0.372 -0.799,-0.368 -0.805,-0.364 -0.818,-0.36 -0.821,-0.356 -0.835,-0.355 -0.84,-0.348 -0.848,-0.344 -0.85,-0.338 -0.848,-0.328 -0.847,-0.322 -0.843,-0.312 -0.837,-0.304 -0.835,-0.293 -0.83,-0.285 -0.826,-0.279 -0.822,-0.267 -0.815,-0.26 -0.813,-0.249 -0.806,-0.245 -0.801,-0.232 -0.793,-0.224 -0.788,-0.215 -0.779,-0.207 -0.776,-0.198 -0.767,-0.188 -0.758,-0.179 -0.752,-0.171 -0.744,-0.161 -0.736,-0.153 -0.728,-0.142 -0.716,-0.134 -0.711,-0.126 -0.697,-0.114 -0.691,-0.107 -0.68,-0.097 -0.669,-0.09 -0.66,-0.078 -0.65,-0.068 -0.636,-0.06 -0.625,-0.051 -0.613,-0.041 -0.603,-0.032 -0.592,-0.022 -0.58,-0.012 -0.563,-0.002 -0.556,0.006 -0.54,0.018 -0.525,0.025 -0.515,0.036 -0.501,0.048 -0.484,0.056 -0.469,0.065 -0.235,0.039 -0.225,0.039 -0.227,0.042 -0.217,0.046 -0.216,0.046 -0.214,0.051 -0.206,0.053 -0.206,0.055 -0.202,0.06 -0.195,0.06 -0.195,0.064 -0.189,0.068 -0.188,0.069 -0.179,0.072 -0.18,0.078 -0.174,0.078 -0.167,0.082 -0.167,0.084 -0.162,0.089 -0.158,0.091 -0.152,0.094 -0.148,0.096 -0.145,0.102 -0.14,0.105 -0.136,0.108 -0.132,0.112 -0.125,0.116 -0.12,0.117 -0.116,0.122 -0.114,0.125 -0.106,0.131 -0.099,0.133 -0.093,0.135 -0.092,0.141 -0.083,0.143 -0.076,0.145 -0.073,0.151 -0.064,0.153 -0.062,0.161 -0.052,0.162 -0.046,0.162 -0.039,0.167 -0.031,0.164 -0.026,0.167 -0.02,0.176 -0.012,0.173 -0.003,0.167 -10e-4,0.174 0.008,0.176 0.014,0.175 0.019,0.176 0.027,0.175 0.03,0.176 0.039,0.18 0.043,0.176 0.049,0.182 0.056,0.182 0.06,0.176 0.064,0.181 0.072,0.183 0.076,0.182 0.081,0.182 0.086,0.184 0.092,0.184 0.096,0.182 0.102,0.188 0.107,0.186 0.111,0.186 0.116,0.187 0.121,0.187 0.125,0.19 0.131,0.188 0.136,0.19 0.139,0.189 0.142,0.191 0.15,0.192 0.154,0.193 0.184,0.224 0.156,0.148 0.912,-0.972 -0.093,-0.087 -0.123,-0.149 -0.142,-0.179 -0.136,-0.178 -0.136,-0.179 -0.128,-0.173 -0.126,-0.175 -0.117,-0.172 -0.116,-0.171 -0.108,-0.17 -0.104,-0.167 -0.099,-0.167 -0.094,-0.165 -0.09,-0.161 -0.084,-0.162 -0.08,-0.161 -0.074,-0.157 -0.07,-0.155 -0.064,-0.153 -0.058,-0.15 -0.054,-0.15 -0.049,-0.151 -0.045,-0.143 -0.039,-0.141 -0.033,-0.141 -0.03,-0.138 -0.025,-0.136 -0.019,-0.134 -0.014,-0.131 -0.011,-0.131 -0.005,-0.122 -0.002,-0.124 0.006,-0.127 0.006,-0.119 0.012,-0.11 0.019,-0.116 0.023,-0.116 0.026,-0.111 0.031,-0.111 0.033,-0.108 0.042,-0.105 0.044,-0.101 0.046,-0.099 0.052,-0.099 0.056,-0.097 0.059,-0.093 0.065,-0.094 0.071,-0.092 0.072,-0.088 0.079,-0.089 0.082,-0.088 0.088,-0.085 0.092,-0.084 0.098,-0.082 0.101,-0.082 0.105,-0.079 0.114,-0.077 0.118,-0.079 0.122,-0.075 0.125,-0.073 0.132,-0.071 0.135,-0.069 0.142,-0.069 0.146,-0.066 0.15,-0.064 0.156,-0.062 0.159,-0.062 0.164,-0.056 0.168,-0.056 0.177,-0.054 0.178,-0.052 0.181,-0.05 0.191,-0.048 0.189,-0.045 0.196,-0.043 0.203,-0.041 0.202,-0.04 0.21,-0.035 0.21,-0.036 0.44,-0.06 0.455,-0.054 0.471,-0.043 0.484,-0.035 0.501,-0.025 0.515,-0.016 0.529,-0.005 0.544,0.002 0.557,0.011 0.57,0.021 0.582,0.032 0.596,0.04 0.61,0.048 0.62,0.059 0.63,0.067 0.644,0.077 0.655,0.085 0.664,0.096 0.676,0.103 0.685,0.115 0.695,0.121 0.705,0.132 0.714,0.14 0.724,0.151 0.73,0.158 0.74,0.168 0.748,0.178 0.755,0.185 0.764,0.193 0.769,0.203 0.778,0.213 0.782,0.223 0.79,0.229 0.796,0.239 0.801,0.247 0.807,0.257 0.812,0.265 0.816,0.274 0.821,0.282 0.824,0.291 0.829,0.3 0.834,0.308 0.833,0.317 0.839,0.326 0.842,0.333 0.839,0.341 0.832,0.344 0.821,0.35 0.815,0.352 0.805,0.357 0.798,0.36 0.788,0.363 0.78,0.368 0.769,0.369 0.76,0.372 0.751,0.376 0.74,0.376 0.729,0.379 0.719,0.382 0.708,0.386 0.696,0.385 0.686,0.387 0.675,0.388 0.661,0.388 0.652,0.39 0.639,0.391 0.625,0.392 0.614,0.392 0.6,0.393 0.586,0.392 0.575,0.392 0.56,0.391 0.545,0.391 0.532,0.39 0.518,0.39 0.502,0.388 0.49,0.386 0.473,0.384 0.459,0.386 0.441,0.381 0.427,0.379 0.41,0.377 0.395,0.373 0.376,0.371 0.361,0.368 0.346,0.363 0.326,0.362 0.31,0.355 0.292,0.352 0.276,0.351 0.128,0.17 0.126,0.171 0.122,0.169 0.116,0.167 0.11,0.168 0.11,0.165 0.101,0.164 0.099,0.164 0.093,0.16 0.088,0.159 0.083,0.156 0.08,0.159 0.073,0.153 0.069,0.153 0.066,0.15 0.058,0.146 0.055,0.148 0.051,0.146 0.045,0.142 0.04,0.138 0.036,0.14 0.032,0.136 0.027,0.134 0.022,0.13 0.016,0.128 0.014,0.129 0.008,0.124 0.004,0.123 0.001,0.12 -0.007,0.116 -0.009,0.118 -0.012,0.112 -0.017,0.112 -0.023,0.112 -0.025,0.108 -0.03,0.106 -0.036,0.105 -0.038,0.103 -0.044,0.101 -0.047,0.099 -0.051,0.097 -0.057,0.097 -0.061,0.098 -0.062,0.09 -0.069,0.088 -0.076,0.094 -0.077,0.088 -0.082,0.086 -0.085,0.083 -0.096,0.087 -0.096,0.082 -0.099,0.079 -0.109,0.081 -0.112,0.078 -0.116,0.078 -0.121,0.075 -0.126,0.072 -0.133,0.073 -0.135,0.07 -0.141,0.068 -0.143,0.064 -0.149,0.064 -0.157,0.062 -0.159,0.062 -0.165,0.057 -0.167,0.056 -0.173,0.053 -0.182,0.052 -0.181,0.051 -0.185,0.047 -0.192,0.046 -0.194,0.043 -0.2,0.04 -0.205,0.04 -0.208,0.036 -0.211,0.035 -0.44,0.062 -0.452,0.054 -0.468,0.042 -0.484,0.035 -0.497,0.027 -0.515,0.014 -0.529,0.008 -0.541,-0.002 -0.555,-0.012 -0.569,-0.02 -0.582,-0.03 -0.593,-0.04 -0.611,-0.049 z" />
        </g>
      </g>
      <path
         id="path724"
         fill="none"
         fill-rule="evenodd"
         stroke="#000000"
         stroke-width="1.33333"
         d="m 392.5967,984.73636 h 10.666" />
      <path
         id="dp_path050"
         fill="#000000"
         fill-rule="evenodd"
         d="m 529.0537,937.35136 v 10e-4 l -269.359,-68.585 -0.506,1.997 269.358,68.585 -1.014,3.995 11.256,-2.457 -8.72,-7.531 z" />
      <path
         id="dp_path051"
         fill="#000000"
         fill-rule="evenodd"
         d="m 529.0537,872.76136 v -10e-4 l -269.359,68.585 -0.506,-1.997 269.358,-68.585 -1.014,-3.995 11.256,2.457 -8.72,7.531 z" />
      <path
         id="path728"
         fill="#000000"
         fill-rule="evenodd"
         d="m 398.7127,906.32736 0.001,-152.906 h -2.667 l -10e-4,152.906 z" />
      <g
         transform="translate(-68.822298,479.84436)"
         id="dp_group052">
        <path
           id="path730"
           fill="#005c2a"
           fill-rule="evenodd"
           d="m 467.616,493.829 0.001,-69.468 h -2.666 l -0.002,69.468 h -5.332 l 6.667,13.334 6.667,-13.334 h -5.334 z" />
        <path
           id="dp_path054"
           fill="#005c2a"
           fill-rule="evenodd"
           d="m 425.796,528.745 40.535,-102.802 -2.476,-0.987 -40.536,102.801 -4.954,-1.974 1.254,14.853 11.132,-9.915 -4.954,-1.974 z" />
        <path
           id="dp_path055"
           fill="#005c2a"
           fill-rule="evenodd"
           d="m 395.031,444.111 71.037,-18.23 -0.664,-2.582 -71.037,18.229 -1.328,-5.164 -11.254,9.777 14.574,3.136 -1.328,-5.165 z" />
        <path
           id="dp_path056"
           fill="#005c2a"
           fill-rule="evenodd"
           d="m 489.652,433.125 -24.828,-6.057 0.664,-2.583 24.828,6.058 1.328,-5.164 11.253,9.777 -14.573,3.136 1.328,-5.165 z" />
      </g>
      <path
         id="dp_path057"
         fill="#00b050"
         fill-rule="evenodd"
         fill-opacity="0.501961"
         stroke="#005c2a"
         stroke-width="1.33333"
         d="m 397.6857,1022.7134 c 54.756,0 99.144,-13.614 99.144,-30.40904 0,-3.604 -1.471,-7.643 -5.225,-10.851 l -0.571,-0.49 -93.348,-77.15 -92.015,77.15 c -0.778,0.594 -1.497,1.196 -2.154,1.806 l -2.083,2.084 0.772,-0.765 c -2.385,2.615 -3.663,5.369 -3.663,8.216 0,16.79504 44.388,30.40904 99.143,30.40904 z" />
      <g
         transform="translate(-68.822298,479.84436)"
         id="dp_group058">
        <path
           id="path737"
           fill="#000000"
           fill-rule="evenodd"
           stroke="none"
           stroke-width="2.77067"
           d="m 480.715,504.839 h 10.401 v 1.558 h -10.401 z" />
        <text
           id="dp_text034"
           transform="translate(493.257,512.622)"
           xml:space="preserve"
           fill="#000000"
           font-family="Arial"
           font-size="22"
           font-weight="400"
           font-style="italic"
           x="0"
           y="0">h</text>
        <text
           id="dp_text035"
           transform="translate(493.257,512.622)"
           xml:space="preserve"
           fill="#000000"
           font-family="Arial"
           font-size="22"
           font-weight="400"
           x="12.2613"
           y="0">/2</text>
        <text
           id="dp_text036"
           transform="translate(493.257,512.622)"
           xml:space="preserve"
           fill="#000000"
           font-family="Arial"
           font-size="22"
           font-weight="400"
           font-style="italic"
           x="30.624001"
           y="0"> </text>
        <path
           id="path742"
           fill="none"
           fill-rule="evenodd"
           stroke="#000000"
           stroke-width="1.33333"
           d="m 495.257,499.92 9.2,-0.2" />
      </g>
      <path
         id="path745"
         fill="#00b050"
         fill-rule="evenodd"
         fill-opacity="0.498039"
         stroke="#005c2a"
         stroke-width="1.33333"
         d="m 398.0097,874.43136 c 65.868,0 119.264,13.432 119.264,30 0,16.568 -53.396,30 -119.264,30 -65.867,0 -119.263,-13.432 -119.263,-30 0,-16.568 53.396,-30 119.263,-30 z" />
      <text
         id="dp_text037"
         xml:space="preserve"
         fill="#000000"
         font-family="Arial"
         font-size="22"
         font-weight="400"
         x="410.4957"
         y="936.82837">0 </text>
      <path
         id="dp_path063"
         fill="#00b050"
         fill-rule="evenodd"
         fill-opacity="0.501961"
         stroke="#005c2a"
         stroke-width="1.33333"
         d="m 397.0567,786.17336 c 54.754,0 99.142,13.432 99.142,30 0,3.556 -1.47,7.54 -5.225,10.706 l -0.571,0.484 -93.348,76.11 -92.014,-76.11 c -0.778,-0.587 -1.498,-1.18 -2.155,-1.783 l -2.083,-2.056 0.772,0.755 c -2.385,-2.579 -3.661,-5.298 -3.661,-8.106 0,-16.568 44.387,-30 99.143,-30 z" />
      <path
         id="dp_path064"
         fill="#00b050"
         fill-rule="evenodd"
         fill-opacity="0.501961"
         stroke="#005c2a"
         stroke-width="1.33333"
         d="m 393.7627,846.69536 c 1.072,0.016 2.147,0.025 3.226,0.025 42.974,0 78.841,-11.049 93.413,-19.375 h -0.004 0.005 l -93.592,75.582 -93.193,-76.423 c 12.632,6.971 48.876,19.557 90.145,20.191 z" />
      <path
         id="path750"
         fill="#000000"
         fill-rule="evenodd"
         stroke="#000000"
         stroke-width="1.33333"
         d="m 391.5967,824.15136 h 10.666" />
      <g
         transform="translate(-68.822298,479.84436)"
         id="dp_group065">
        <text
           id="dp_text038"
           transform="translate(479,351.797)"
           xml:space="preserve"
           fill="#000000"
           font-family="Arial"
           font-size="22"
           font-weight="400"
           font-style="italic"
           x="0"
           y="0">+h</text>
        <text
           id="dp_text039"
           transform="translate(479,351.797)"
           xml:space="preserve"
           fill="#000000"
           font-family="Arial"
           font-size="22"
           font-weight="400"
           x="25.109301"
           y="0">/2</text>
        <text
           id="dp_text040"
           transform="translate(479,351.797)"
           xml:space="preserve"
           fill="#000000"
           font-family="Arial"
           font-size="22"
           font-weight="400"
           font-style="italic"
           x="43.472"
           y="0">  </text>
        <path
           id="path755"
           fill="none"
           fill-rule="evenodd"
           stroke="#000000"
           stroke-width="1.33333"
           d="m 493,339.095 9.2,-0.2" />
      </g>
    </g>
  </g>
  <style
     id="style1482">*{font-family:Noto Serif;font-style:italic;font-size:10px}</style>
</svg>
