<?xml version="1.0" encoding="UTF-8" standalone="no"?>
<svg
   xmlns:ns8="http://www.iki.fi/pav/software/textext/"
   xmlns:dc="http://purl.org/dc/elements/1.1/"
   xmlns:cc="http://creativecommons.org/ns#"
   xmlns:rdf="http://www.w3.org/1999/02/22-rdf-syntax-ns#"
   xmlns:svg="http://www.w3.org/2000/svg"
   xmlns="http://www.w3.org/2000/svg"
   xmlns:sodipodi="http://sodipodi.sourceforge.net/DTD/sodipodi-0.dtd"
   xmlns:inkscape="http://www.inkscape.org/namespaces/inkscape"
   width="123.11945mm"
   height="282.22223mm"
   viewBox="0 0 123.11945 282.22223"
   version="1.1"
   id="svg8"
   inkscape:version="1.0 (4035a4fb49, 2020-05-01)"
   sodipodi:docname="junio_cover.svg">
  <defs
     id="defs2" />
  <sodipodi:namedview
     id="base"
     pagecolor="#ffffff"
     bordercolor="#666666"
     borderopacity="1.0"
     inkscape:pageopacity="0.0"
     inkscape:pageshadow="2"
     inkscape:zoom="0.7"
     inkscape:cx="66.257854"
     inkscape:cy="445.31071"
     inkscape:document-units="mm"
     inkscape:current-layer="layer1"
     inkscape:document-rotation="0"
     showgrid="false"
     inkscape:window-width="1920"
     inkscape:window-height="991"
     inkscape:window-x="-9"
     inkscape:window-y="-9"
     inkscape:window-maximized="1">
    <sodipodi:guide
       position="0,282.22222"
       orientation="0,465.33337"
       id="guide34" />
    <sodipodi:guide
       position="123.11945,282.22222"
       orientation="1066.6667,0"
       id="guide36" />
    <sodipodi:guide
       position="123.11945,0"
       orientation="0,-465.33337"
       id="guide38" />
    <sodipodi:guide
       position="0,0"
       orientation="-1066.6667,0"
       id="guide40" />
  </sodipodi:namedview>
  <metadata
     id="metadata5">
    <rdf:RDF>
      <cc:Work
         rdf:about="">
        <dc:format>image/svg+xml</dc:format>
        <dc:type
           rdf:resource="http://purl.org/dc/dcmitype/StillImage" />
        <dc:title />
      </cc:Work>
    </rdf:RDF>
  </metadata>
  <g
     inkscape:label="Capa 1"
     inkscape:groupmode="layer"
     id="layer1"
     transform="translate(280.02997,-12.347219)">
    <text
       xml:space="preserve"
       style="font-size:10.5833px;line-height:1.25;font-family:monospace;-inkscape-font-specification:monospace;text-align:start;text-anchor:start;display:inline;fill:#2d4413;fill-opacity:1;stroke-width:0.264583"
       x="-280.11276"
       y="23.338171"
       id="text26"><tspan
         x="-280.11276"
         y="23.338171"
         style="font-style:normal;font-variant:normal;font-weight:bold;font-stretch:normal;font-size:14.1111px;font-family:Georgia;-inkscape-font-specification:'Georgia Bold';text-align:start;text-anchor:start;fill:#2d4413;fill-opacity:1;stroke-width:0.264583"
         id="tspan28"
         sodipodi:role="line">Ecuación </tspan><tspan
         id="tspan132"
         x="-280.11276"
         y="40.977047"
         style="font-style:normal;font-variant:normal;font-weight:bold;font-stretch:normal;font-size:14.1111px;font-family:Georgia;-inkscape-font-specification:'Georgia Bold';text-align:start;text-anchor:start;fill:#2d4413;fill-opacity:1;stroke-width:0.264583"
         sodipodi:role="line">de onda</tspan><tspan
         x="-280.11276"
         y="55.301384"
         style="font-style:normal;font-variant:normal;font-weight:normal;font-stretch:normal;font-family:Tahoma;-inkscape-font-specification:Tahoma;text-align:start;text-anchor:start;fill:#2d4413;fill-opacity:1;stroke-width:0.264583"
         id="tspan32"
         sodipodi:role="line" /></text>
    <g
       transform="matrix(1.05833,0,0,1.05833,-271.443,59.851641)"
       ns8:version="1.0.1"
       ns8:texconverter="pdflatex"
       ns8:pdfconverter="inkscape"
       ns8:text="\\begin{equation*}\n\\frac{\\partial^2u(x,t)}{\\partial t^2} = c^2 \\frac{\\partial^2 u(x,t)}{\\partial x^2}\n\\end{equation*}"
       ns8:preamble="C:\\Users\\ramms\\AppData\\Roaming\\inkscape\\extensions\\textext\\default_packages.tex"
       ns8:scale="3.0"
       ns8:alignment="middle center"
       ns8:inkscapeversion="1.0"
       ns8:jacobian_sqrt="1.05833"
       style="stroke-width:0"
       id="g274">
      <defs
         id="id-be9d3e08-43c2-4316-aa53-0013aa79d5f7"
         style="stroke-width:0">
        <g
           id="id-01fd4460-4a12-4e45-8411-affe67c10051"
           style="stroke-width:0">
          <symbol
             id="id-74304493-5fed-4518-ad33-37da2efb0b62"
             overflow="visible"
             style="stroke-width:0">
            <path
               id="id-29d7720b-5ad7-4ea5-ace4-d08b4bb37ad3"
               d=""
               style="stroke:none;stroke-width:0" />
          </symbol>
          <symbol
             id="id-b78ebfc7-3853-45b2-917d-4db3a2acdec5"
             overflow="visible"
             style="stroke-width:0">
            <path
               id="id-a7d6724b-3924-42e6-ada9-c40cdce1ea6c"
               d="m 4.609375,-3.375 c -0.09375,-0.625 -0.5,-1.1875 -1.28125,-1.1875 -0.609375,0 -1.25,0.171875 -2.03125,0.9375 -0.828125,0.828125 -0.890625,1.765625 -0.890625,2.0625 0,0.625 0.4375,1.78125 1.828125,1.78125 2.375,0 3.40625,-3.34375 3.40625,-4.78125 0,-1.578125 -0.921875,-2.578125 -2.15625,-2.578125 -1.4375,0 -1.90625,1.296875 -1.90625,1.578125 0,0.140625 0.09375,0.34375 0.390625,0.34375 0.328125,0 0.53125,-0.296875 0.53125,-0.515625 0,-0.359375 -0.3125,-0.359375 -0.46875,-0.359375 0.4375,-0.734375 1.15625,-0.796875 1.4375,-0.796875 0.734375,0 1.421875,0.515625 1.421875,1.8125 0,0.390625 -0.0625,0.890625 -0.265625,1.703125 z m -2.34375,3.3125 c -1.09375,0 -1.09375,-1.03125 -1.09375,-1.125 0,-0.265625 0.25,-1.65625 0.65625,-2.265625 0.390625,-0.5625 0.890625,-0.890625 1.5,-0.890625 1.09375,0 1.109375,1.125 1.109375,1.328125 0,0.71875 -0.640625,2.953125 -2.171875,2.953125 z m 0,0"
               style="stroke:none;stroke-width:0" />
          </symbol>
          <symbol
             id="id-ff40df1c-077f-4fa0-9c7d-9d22fafb8efa"
             overflow="visible"
             style="stroke-width:0">
            <path
               id="id-8c04d25d-8375-4a37-951f-d6c891400409"
               d="M 3.484375,-0.5625 C 3.59375,-0.15625 3.953125,0.109375 4.375,0.109375 4.71875,0.109375 4.953125,-0.125 5.109375,-0.4375 5.28125,-0.796875 5.40625,-1.40625 5.40625,-1.421875 c 0,-0.109375 -0.078125,-0.109375 -0.109375,-0.109375 -0.109375,0 -0.109375,0.046875 -0.140625,0.1875 -0.140625,0.5625 -0.328125,1.234375 -0.75,1.234375 -0.203125,0 -0.3125,-0.125 -0.3125,-0.453125 0,-0.21875 0.125,-0.6875 0.203125,-1.046875 L 4.578125,-2.6875 C 4.609375,-2.828125 4.703125,-3.203125 4.75,-3.359375 4.796875,-3.59375 4.890625,-3.96875 4.890625,-4.03125 c 0,-0.171875 -0.140625,-0.265625 -0.28125,-0.265625 -0.046875,0 -0.3125,0.015625 -0.390625,0.34375 -0.1875,0.734375 -0.625,2.484375 -0.75,3 -0.015625,0.046875 -0.40625,0.84375 -1.140625,0.84375 -0.515625,0 -0.609375,-0.453125 -0.609375,-0.8125 0,-0.5625 0.28125,-1.34375 0.53125,-2.03125 0.125,-0.3125 0.171875,-0.453125 0.171875,-0.640625 0,-0.4375 -0.3125,-0.8125 -0.8125,-0.8125 -0.953125,0 -1.3125,1.453125 -1.3125,1.53125 0,0.109375 0.09375,0.109375 0.109375,0.109375 0.109375,0 0.109375,-0.03125 0.15625,-0.1875 0.25,-0.859375 0.640625,-1.234375 1.015625,-1.234375 0.09375,0 0.25,0.015625 0.25,0.328125 0,0.234375 -0.109375,0.53125 -0.171875,0.671875 -0.375,1 -0.578125,1.609375 -0.578125,2.09375 0,0.953125 0.6875,1.203125 1.21875,1.203125 0.65625,0 1.015625,-0.453125 1.1875,-0.671875 z m 0,0"
               style="stroke:none;stroke-width:0" />
          </symbol>
          <symbol
             id="id-c20adbe7-ad80-4003-ab6f-bf0875792762"
             overflow="visible"
             style="stroke-width:0">
            <path
               id="id-aff9251e-fd9d-498f-9fbc-05e5bfdd4211"
               d="M 3.328125,-3.015625 C 3.390625,-3.265625 3.625,-4.1875 4.3125,-4.1875 c 0.046875,0 0.296875,0 0.5,0.125 C 4.53125,-4 4.34375,-3.765625 4.34375,-3.515625 c 0,0.15625 0.109375,0.34375 0.375,0.34375 0.21875,0 0.53125,-0.171875 0.53125,-0.578125 0,-0.515625 -0.578125,-0.65625 -0.921875,-0.65625 -0.578125,0 -0.921875,0.53125 -1.046875,0.75 -0.25,-0.65625 -0.78125,-0.75 -1.078125,-0.75 -1.03125,0 -1.609375,1.28125 -1.609375,1.53125 0,0.109375 0.109375,0.109375 0.125,0.109375 0.078125,0 0.109375,-0.03125 0.125,-0.109375 0.34375,-1.0625 1,-1.3125 1.34375,-1.3125 0.1875,0 0.53125,0.09375 0.53125,0.671875 0,0.3125 -0.171875,0.96875 -0.53125,2.375 -0.15625,0.609375 -0.515625,1.03125 -0.953125,1.03125 -0.0625,0 -0.28125,0 -0.5,-0.125 0.25,-0.0625 0.46875,-0.265625 0.46875,-0.546875 0,-0.265625 -0.21875,-0.34375 -0.359375,-0.34375 -0.3125,0 -0.546875,0.25 -0.546875,0.578125 0,0.453125 0.484375,0.65625 0.921875,0.65625 0.671875,0 1.03125,-0.703125 1.046875,-0.75 0.125,0.359375 0.484375,0.75 1.078125,0.75 1.03125,0 1.59375,-1.28125 1.59375,-1.53125 0,-0.109375 -0.078125,-0.109375 -0.109375,-0.109375 -0.09375,0 -0.109375,0.046875 -0.140625,0.109375 -0.328125,1.078125 -1,1.3125 -1.3125,1.3125 -0.390625,0 -0.546875,-0.3125 -0.546875,-0.65625 0,-0.21875 0.046875,-0.4375 0.15625,-0.875 z m 0,0"
               style="stroke:none;stroke-width:0" />
          </symbol>
          <symbol
             id="id-337abeb9-aac5-49d4-b26f-443eff8b938e"
             overflow="visible"
             style="stroke-width:0">
            <path
               id="id-9711362d-ca13-4f74-ac36-a42ad178e90f"
               d="m 2.03125,-0.015625 c 0,-0.65625 -0.25,-1.046875 -0.640625,-1.046875 -0.328125,0 -0.53125,0.25 -0.53125,0.53125 C 0.859375,-0.265625 1.0625,0 1.390625,0 1.5,0 1.640625,-0.046875 1.734375,-0.125 1.765625,-0.15625 1.78125,-0.15625 1.78125,-0.15625 c 0.015625,0 0.015625,0 0.015625,0.140625 0,0.75 -0.34375,1.34375 -0.671875,1.671875 -0.109375,0.109375 -0.109375,0.125 -0.109375,0.15625 0,0.078125 0.046875,0.109375 0.09375,0.109375 0.109375,0 0.921875,-0.765625 0.921875,-1.9375 z m 0,0"
               style="stroke:none;stroke-width:0" />
          </symbol>
          <symbol
             id="id-2e2100bf-22d3-495e-82d2-1cd6fb669607"
             overflow="visible"
             style="stroke-width:0">
            <path
               id="id-9553aabb-b619-4c75-9bd3-395ee2948276"
               d="m 2.046875,-3.984375 h 0.9375 c 0.203125,0 0.3125,0 0.3125,-0.203125 0,-0.109375 -0.109375,-0.109375 -0.28125,-0.109375 h -0.875 C 2.5,-5.71875 2.546875,-5.90625 2.546875,-5.96875 c 0,-0.171875 -0.125,-0.265625 -0.296875,-0.265625 -0.03125,0 -0.3125,0 -0.390625,0.359375 L 1.46875,-4.296875 h -0.9375 c -0.203125,0 -0.296875,0 -0.296875,0.1875 0,0.125 0.078125,0.125 0.28125,0.125 h 0.875 C 0.671875,-1.15625 0.625,-0.984375 0.625,-0.8125 0.625,-0.265625 1,0.109375 1.546875,0.109375 2.5625,0.109375 3.125,-1.34375 3.125,-1.421875 3.125,-1.53125 3.046875,-1.53125 3.015625,-1.53125 2.921875,-1.53125 2.90625,-1.5 2.859375,-1.390625 2.4375,-0.34375 1.90625,-0.109375 1.5625,-0.109375 c -0.203125,0 -0.3125,-0.125 -0.3125,-0.453125 0,-0.25 0.03125,-0.3125 0.0625,-0.484375 z m 0,0"
               style="stroke:none;stroke-width:0" />
          </symbol>
          <symbol
             id="id-5a18845d-461c-4340-bd84-7821eaa7381f"
             overflow="visible"
             style="stroke-width:0">
            <path
               id="id-99525acb-86e4-49eb-90c4-488d43ad034f"
               d="m 3.953125,-3.78125 c -0.171875,0 -0.296875,0 -0.4375,0.125 -0.171875,0.15625 -0.1875,0.328125 -0.1875,0.390625 0,0.25 0.1875,0.359375 0.375,0.359375 0.28125,0 0.546875,-0.25 0.546875,-0.640625 0,-0.484375 -0.46875,-0.859375 -1.171875,-0.859375 -1.34375,0 -2.671875,1.421875 -2.671875,2.828125 0,0.90625 0.578125,1.6875 1.625,1.6875 1.421875,0 2.25,-1.0625 2.25,-1.171875 0,-0.0625 -0.046875,-0.140625 -0.109375,-0.140625 -0.0625,0 -0.078125,0.03125 -0.140625,0.109375 -0.78125,0.984375 -1.875,0.984375 -1.984375,0.984375 -0.625,0 -0.90625,-0.484375 -0.90625,-1.09375 0,-0.40625 0.203125,-1.375 0.546875,-1.984375 0.3125,-0.578125 0.859375,-1 1.40625,-1 0.328125,0 0.71875,0.125 0.859375,0.40625 z m 0,0"
               style="stroke:none;stroke-width:0" />
          </symbol>
          <symbol
             id="id-0301d8ac-2d2f-44e1-913c-8fbb9f5a8eb1"
             overflow="visible"
             style="stroke-width:0">
            <path
               id="id-c1da2cf6-b6ee-4882-acff-8d4decf05aa8"
               d=""
               style="stroke:none;stroke-width:0" />
          </symbol>
          <symbol
             id="id-e39a90e1-45a0-491b-a2e1-b26c8faeb0e7"
             overflow="visible"
             style="stroke-width:0">
            <path
               id="id-428e61f6-3054-4edd-b66b-48d5b1fda634"
               d="M 3.515625,-1.265625 H 3.28125 c -0.015625,0.15625 -0.09375,0.5625 -0.1875,0.625 C 3.046875,-0.59375 2.515625,-0.59375 2.40625,-0.59375 H 1.125 c 0.734375,-0.640625 0.984375,-0.84375 1.390625,-1.171875 0.515625,-0.40625 1,-0.84375 1,-1.5 0,-0.84375 -0.734375,-1.359375 -1.625,-1.359375 -0.859375,0 -1.453125,0.609375 -1.453125,1.25 0,0.34375 0.296875,0.390625 0.375,0.390625 0.15625,0 0.359375,-0.125 0.359375,-0.375 0,-0.125 -0.046875,-0.375 -0.40625,-0.375 C 0.984375,-4.21875 1.453125,-4.375 1.78125,-4.375 c 0.703125,0 1.0625,0.546875 1.0625,1.109375 0,0.609375 -0.4375,1.078125 -0.65625,1.328125 L 0.515625,-0.265625 C 0.4375,-0.203125 0.4375,-0.1875 0.4375,0 h 2.875 z m 0,0"
               style="stroke:none;stroke-width:0" />
          </symbol>
          <symbol
             id="id-617a132b-2004-4b18-be7e-283cd5715f3c"
             overflow="visible"
             style="stroke-width:0">
            <path
               id="id-8965f8c5-25b0-4a42-af77-5a870a706985"
               d=""
               style="stroke:none;stroke-width:0" />
          </symbol>
          <symbol
             id="id-69977f2c-9615-46ba-9516-67d1a9e8035c"
             overflow="visible"
             style="stroke-width:0">
            <path
               id="id-3fc5bdb6-a59d-4d83-a1f3-4f560f84eb42"
               d="m 3.296875,2.390625 c 0,-0.03125 0,-0.046875 -0.171875,-0.21875 C 1.890625,0.921875 1.5625,-0.96875 1.5625,-2.5 c 0,-1.734375 0.375,-3.46875 1.609375,-4.703125 0.125,-0.125 0.125,-0.140625 0.125,-0.171875 0,-0.078125 -0.03125,-0.109375 -0.09375,-0.109375 -0.109375,0 -1,0.6875 -1.59375,1.953125 -0.5,1.09375 -0.625,2.203125 -0.625,3.03125 0,0.78125 0.109375,1.984375 0.65625,3.125 C 2.25,1.84375 3.09375,2.5 3.203125,2.5 c 0.0625,0 0.09375,-0.03125 0.09375,-0.109375 z m 0,0"
               style="stroke:none;stroke-width:0" />
          </symbol>
          <symbol
             id="id-d3d7a0d3-2304-42af-b0a7-32b3c51b5c61"
             overflow="visible"
             style="stroke-width:0">
            <path
               id="id-35c68b75-98be-41e9-a0e9-db755fc73436"
               d="m 2.875,-2.5 c 0,-0.765625 -0.109375,-1.96875 -0.65625,-3.109375 -0.59375,-1.21875 -1.453125,-1.875 -1.546875,-1.875 -0.0625,0 -0.109375,0.046875 -0.109375,0.109375 0,0.03125 0,0.046875 0.1875,0.234375 0.984375,0.984375 1.546875,2.5625 1.546875,4.640625 0,1.71875 -0.359375,3.46875 -1.59375,4.71875 C 0.5625,2.34375 0.5625,2.359375 0.5625,2.390625 0.5625,2.453125 0.609375,2.5 0.671875,2.5 0.765625,2.5 1.671875,1.8125 2.25,0.546875 2.765625,-0.546875 2.875,-1.65625 2.875,-2.5 Z m 0,0"
               style="stroke:none;stroke-width:0" />
          </symbol>
          <symbol
             id="id-8d7c76f5-3b14-4bb5-bedb-b49d7db12562"
             overflow="visible"
             style="stroke-width:0">
            <path
               id="id-74b7ad85-9e4c-4c5e-b734-1130deb5e41b"
               d="m 6.84375,-3.265625 c 0.15625,0 0.34375,0 0.34375,-0.1875 C 7.1875,-3.65625 7,-3.65625 6.859375,-3.65625 h -5.96875 c -0.140625,0 -0.328125,0 -0.328125,0.203125 0,0.1875 0.1875,0.1875 0.328125,0.1875 z m 0.015625,1.9375 c 0.140625,0 0.328125,0 0.328125,-0.203125 0,-0.1875 -0.1875,-0.1875 -0.34375,-0.1875 H 0.890625 c -0.140625,0 -0.328125,0 -0.328125,0.1875 0,0.203125 0.1875,0.203125 0.328125,0.203125 z m 0,0"
               style="stroke:none;stroke-width:0" />
          </symbol>
        </g>
      </defs>
      <g
         transform="translate(-255.914,-135.63)"
         id="id-3bad37f2-71cd-433f-983d-ce89c43271bf"
         style="stroke-width:0">
        <g
           id="id-ac197f91-4623-453c-9192-c2f3c5911595"
           style="fill:#000000;fill-opacity:1;stroke-width:0">
          <g
             transform="translate(255.913,143.871)"
             style="stroke-width:0"
             id="g174">
            <path
               id="id-62911e67-0fd9-4a69-a722-8e15e0e331e7"
               d="m 4.609375,-3.375 c -0.09375,-0.625 -0.5,-1.1875 -1.28125,-1.1875 -0.609375,0 -1.25,0.171875 -2.03125,0.9375 -0.828125,0.828125 -0.890625,1.765625 -0.890625,2.0625 0,0.625 0.4375,1.78125 1.828125,1.78125 2.375,0 3.40625,-3.34375 3.40625,-4.78125 0,-1.578125 -0.921875,-2.578125 -2.15625,-2.578125 -1.4375,0 -1.90625,1.296875 -1.90625,1.578125 0,0.140625 0.09375,0.34375 0.390625,0.34375 0.328125,0 0.53125,-0.296875 0.53125,-0.515625 0,-0.359375 -0.3125,-0.359375 -0.46875,-0.359375 0.4375,-0.734375 1.15625,-0.796875 1.4375,-0.796875 0.734375,0 1.421875,0.515625 1.421875,1.8125 0,0.390625 -0.0625,0.890625 -0.265625,1.703125 z m -2.34375,3.3125 c -1.09375,0 -1.09375,-1.03125 -1.09375,-1.125 0,-0.265625 0.25,-1.65625 0.65625,-2.265625 0.390625,-0.5625 0.890625,-0.890625 1.5,-0.890625 1.09375,0 1.109375,1.125 1.109375,1.328125 0,0.71875 -0.640625,2.953125 -2.171875,2.953125 z m 0,0"
               style="stroke:none;stroke-width:0" />
          </g>
        </g>
        <g
           id="id-3bc727fd-cdc1-4a63-9ecb-45adc942ee5c"
           style="fill:#000000;fill-opacity:1;stroke-width:0">
          <g
             transform="translate(261.756,140.255)"
             style="stroke-width:0"
             id="g178">
            <path
               id="id-53343a06-c2c5-4643-9e81-270585bb7af3"
               d="M 3.515625,-1.265625 H 3.28125 c -0.015625,0.15625 -0.09375,0.5625 -0.1875,0.625 C 3.046875,-0.59375 2.515625,-0.59375 2.40625,-0.59375 H 1.125 c 0.734375,-0.640625 0.984375,-0.84375 1.390625,-1.171875 0.515625,-0.40625 1,-0.84375 1,-1.5 0,-0.84375 -0.734375,-1.359375 -1.625,-1.359375 -0.859375,0 -1.453125,0.609375 -1.453125,1.25 0,0.34375 0.296875,0.390625 0.375,0.390625 0.15625,0 0.359375,-0.125 0.359375,-0.375 0,-0.125 -0.046875,-0.375 -0.40625,-0.375 C 0.984375,-4.21875 1.453125,-4.375 1.78125,-4.375 c 0.703125,0 1.0625,0.546875 1.0625,1.109375 0,0.609375 -0.4375,1.078125 -0.65625,1.328125 L 0.515625,-0.265625 C 0.4375,-0.203125 0.4375,-0.1875 0.4375,0 h 2.875 z m 0,0"
               style="stroke:none;stroke-width:0" />
          </g>
        </g>
        <g
           id="id-662495b1-11c0-49bc-b41d-4f4434ef40e1"
           style="fill:#000000;fill-opacity:1;stroke-width:0">
          <g
             transform="translate(266.225,143.871)"
             style="stroke-width:0"
             id="g182">
            <path
               id="id-04829415-4733-42b2-a4b1-12a4c11d00bb"
               d="M 3.484375,-0.5625 C 3.59375,-0.15625 3.953125,0.109375 4.375,0.109375 4.71875,0.109375 4.953125,-0.125 5.109375,-0.4375 5.28125,-0.796875 5.40625,-1.40625 5.40625,-1.421875 c 0,-0.109375 -0.078125,-0.109375 -0.109375,-0.109375 -0.109375,0 -0.109375,0.046875 -0.140625,0.1875 -0.140625,0.5625 -0.328125,1.234375 -0.75,1.234375 -0.203125,0 -0.3125,-0.125 -0.3125,-0.453125 0,-0.21875 0.125,-0.6875 0.203125,-1.046875 L 4.578125,-2.6875 C 4.609375,-2.828125 4.703125,-3.203125 4.75,-3.359375 4.796875,-3.59375 4.890625,-3.96875 4.890625,-4.03125 c 0,-0.171875 -0.140625,-0.265625 -0.28125,-0.265625 -0.046875,0 -0.3125,0.015625 -0.390625,0.34375 -0.1875,0.734375 -0.625,2.484375 -0.75,3 -0.015625,0.046875 -0.40625,0.84375 -1.140625,0.84375 -0.515625,0 -0.609375,-0.453125 -0.609375,-0.8125 0,-0.5625 0.28125,-1.34375 0.53125,-2.03125 0.125,-0.3125 0.171875,-0.453125 0.171875,-0.640625 0,-0.4375 -0.3125,-0.8125 -0.8125,-0.8125 -0.953125,0 -1.3125,1.453125 -1.3125,1.53125 0,0.109375 0.09375,0.109375 0.109375,0.109375 0.109375,0 0.109375,-0.03125 0.15625,-0.1875 0.25,-0.859375 0.640625,-1.234375 1.015625,-1.234375 0.09375,0 0.25,0.015625 0.25,0.328125 0,0.234375 -0.109375,0.53125 -0.171875,0.671875 -0.375,1 -0.578125,1.609375 -0.578125,2.09375 0,0.953125 0.6875,1.203125 1.21875,1.203125 0.65625,0 1.015625,-0.453125 1.1875,-0.671875 z m 0,0"
               style="stroke:none;stroke-width:0" />
          </g>
        </g>
        <g
           id="id-231a1136-ede9-4e89-b49e-a74fe50bb488"
           style="fill:#000000;fill-opacity:1;stroke-width:0">
          <g
             transform="translate(271.928,143.871)"
             style="stroke-width:0"
             id="g186">
            <path
               id="id-90b62eae-e030-465d-8c30-8ecb291e8862"
               d="m 3.296875,2.390625 c 0,-0.03125 0,-0.046875 -0.171875,-0.21875 C 1.890625,0.921875 1.5625,-0.96875 1.5625,-2.5 c 0,-1.734375 0.375,-3.46875 1.609375,-4.703125 0.125,-0.125 0.125,-0.140625 0.125,-0.171875 0,-0.078125 -0.03125,-0.109375 -0.09375,-0.109375 -0.109375,0 -1,0.6875 -1.59375,1.953125 -0.5,1.09375 -0.625,2.203125 -0.625,3.03125 0,0.78125 0.109375,1.984375 0.65625,3.125 C 2.25,1.84375 3.09375,2.5 3.203125,2.5 c 0.0625,0 0.09375,-0.03125 0.09375,-0.109375 z m 0,0"
               style="stroke:none;stroke-width:0" />
          </g>
        </g>
        <g
           id="id-f1ce473e-c9f4-4e30-bf4a-80352339bcba"
           style="fill:#000000;fill-opacity:1;stroke-width:0">
          <g
             transform="translate(275.803,143.871)"
             style="stroke-width:0"
             id="g190">
            <path
               id="id-03e76ec5-ae95-4346-bc7d-aef94bc9b1a0"
               d="M 3.328125,-3.015625 C 3.390625,-3.265625 3.625,-4.1875 4.3125,-4.1875 c 0.046875,0 0.296875,0 0.5,0.125 C 4.53125,-4 4.34375,-3.765625 4.34375,-3.515625 c 0,0.15625 0.109375,0.34375 0.375,0.34375 0.21875,0 0.53125,-0.171875 0.53125,-0.578125 0,-0.515625 -0.578125,-0.65625 -0.921875,-0.65625 -0.578125,0 -0.921875,0.53125 -1.046875,0.75 -0.25,-0.65625 -0.78125,-0.75 -1.078125,-0.75 -1.03125,0 -1.609375,1.28125 -1.609375,1.53125 0,0.109375 0.109375,0.109375 0.125,0.109375 0.078125,0 0.109375,-0.03125 0.125,-0.109375 0.34375,-1.0625 1,-1.3125 1.34375,-1.3125 0.1875,0 0.53125,0.09375 0.53125,0.671875 0,0.3125 -0.171875,0.96875 -0.53125,2.375 -0.15625,0.609375 -0.515625,1.03125 -0.953125,1.03125 -0.0625,0 -0.28125,0 -0.5,-0.125 0.25,-0.0625 0.46875,-0.265625 0.46875,-0.546875 0,-0.265625 -0.21875,-0.34375 -0.359375,-0.34375 -0.3125,0 -0.546875,0.25 -0.546875,0.578125 0,0.453125 0.484375,0.65625 0.921875,0.65625 0.671875,0 1.03125,-0.703125 1.046875,-0.75 0.125,0.359375 0.484375,0.75 1.078125,0.75 1.03125,0 1.59375,-1.28125 1.59375,-1.53125 0,-0.109375 -0.078125,-0.109375 -0.109375,-0.109375 -0.09375,0 -0.109375,0.046875 -0.140625,0.109375 -0.328125,1.078125 -1,1.3125 -1.3125,1.3125 -0.390625,0 -0.546875,-0.3125 -0.546875,-0.65625 0,-0.21875 0.046875,-0.4375 0.15625,-0.875 z m 0,0"
               style="stroke:none;stroke-width:0" />
          </g>
          <g
             transform="translate(281.497,143.871)"
             style="stroke-width:0"
             id="g193">
            <path
               id="id-74af1087-a8b9-4676-9ee1-8b9499a6b50d"
               d="m 2.03125,-0.015625 c 0,-0.65625 -0.25,-1.046875 -0.640625,-1.046875 -0.328125,0 -0.53125,0.25 -0.53125,0.53125 C 0.859375,-0.265625 1.0625,0 1.390625,0 1.5,0 1.640625,-0.046875 1.734375,-0.125 1.765625,-0.15625 1.78125,-0.15625 1.78125,-0.15625 c 0.015625,0 0.015625,0 0.015625,0.140625 0,0.75 -0.34375,1.34375 -0.671875,1.671875 -0.109375,0.109375 -0.109375,0.125 -0.109375,0.15625 0,0.078125 0.046875,0.109375 0.09375,0.109375 0.109375,0 0.921875,-0.765625 0.921875,-1.9375 z m 0,0"
               style="stroke:none;stroke-width:0" />
          </g>
        </g>
        <g
           id="id-78165c51-c256-49d3-b121-14dbc03ca69b"
           style="fill:#000000;fill-opacity:1;stroke-width:0">
          <g
             transform="translate(285.928,143.871)"
             style="stroke-width:0"
             id="g197">
            <path
               id="id-fa4d07e2-ca06-4170-932d-fd1f5323a4a2"
               d="m 2.046875,-3.984375 h 0.9375 c 0.203125,0 0.3125,0 0.3125,-0.203125 0,-0.109375 -0.109375,-0.109375 -0.28125,-0.109375 h -0.875 C 2.5,-5.71875 2.546875,-5.90625 2.546875,-5.96875 c 0,-0.171875 -0.125,-0.265625 -0.296875,-0.265625 -0.03125,0 -0.3125,0 -0.390625,0.359375 L 1.46875,-4.296875 h -0.9375 c -0.203125,0 -0.296875,0 -0.296875,0.1875 0,0.125 0.078125,0.125 0.28125,0.125 h 0.875 C 0.671875,-1.15625 0.625,-0.984375 0.625,-0.8125 0.625,-0.265625 1,0.109375 1.546875,0.109375 2.5625,0.109375 3.125,-1.34375 3.125,-1.421875 3.125,-1.53125 3.046875,-1.53125 3.015625,-1.53125 2.921875,-1.53125 2.90625,-1.5 2.859375,-1.390625 2.4375,-0.34375 1.90625,-0.109375 1.5625,-0.109375 c -0.203125,0 -0.3125,-0.125 -0.3125,-0.453125 0,-0.25 0.03125,-0.3125 0.0625,-0.484375 z m 0,0"
               style="stroke:none;stroke-width:0" />
          </g>
        </g>
        <g
           id="id-d87ca802-b7b8-4be3-8a9e-57c99bc9b6ed"
           style="fill:#000000;fill-opacity:1;stroke-width:0">
          <g
             transform="translate(289.522,143.871)"
             style="stroke-width:0"
             id="g201">
            <path
               id="id-3e9a7861-6485-434d-96f7-65e6057ffa14"
               d="m 2.875,-2.5 c 0,-0.765625 -0.109375,-1.96875 -0.65625,-3.109375 -0.59375,-1.21875 -1.453125,-1.875 -1.546875,-1.875 -0.0625,0 -0.109375,0.046875 -0.109375,0.109375 0,0.03125 0,0.046875 0.1875,0.234375 0.984375,0.984375 1.546875,2.5625 1.546875,4.640625 0,1.71875 -0.359375,3.46875 -1.59375,4.71875 C 0.5625,2.34375 0.5625,2.359375 0.5625,2.390625 0.5625,2.453125 0.609375,2.5 0.671875,2.5 0.765625,2.5 1.671875,1.8125 2.25,0.546875 2.765625,-0.546875 2.875,-1.65625 2.875,-2.5 Z m 0,0"
               style="stroke:none;stroke-width:0" />
          </g>
        </g>
        <path
           id="id-07de1605-f11e-4663-b611-4f85ce808fa0"
           transform="matrix(1,0,0,-1,255.913,148.12)"
           d="M 0.0010625,-0.00109375 H 37.481531"
           style="fill:none;stroke:#000000;stroke-width:0.398;stroke-linecap:butt;stroke-linejoin:miter;stroke-miterlimit:10;stroke-opacity:1" />
        <g
           id="id-c8f2d4f6-1794-4d99-972e-4056885b68ee"
           style="fill:#000000;fill-opacity:1;stroke-width:0">
          <g
             transform="translate(267.7,157.444)"
             style="stroke-width:0"
             id="g206">
            <path
               id="id-6a4ae8e5-c6c2-48f0-8ecf-947551c97ddc"
               d="m 4.609375,-3.375 c -0.09375,-0.625 -0.5,-1.1875 -1.28125,-1.1875 -0.609375,0 -1.25,0.171875 -2.03125,0.9375 -0.828125,0.828125 -0.890625,1.765625 -0.890625,2.0625 0,0.625 0.4375,1.78125 1.828125,1.78125 2.375,0 3.40625,-3.34375 3.40625,-4.78125 0,-1.578125 -0.921875,-2.578125 -2.15625,-2.578125 -1.4375,0 -1.90625,1.296875 -1.90625,1.578125 0,0.140625 0.09375,0.34375 0.390625,0.34375 0.328125,0 0.53125,-0.296875 0.53125,-0.515625 0,-0.359375 -0.3125,-0.359375 -0.46875,-0.359375 0.4375,-0.734375 1.15625,-0.796875 1.4375,-0.796875 0.734375,0 1.421875,0.515625 1.421875,1.8125 0,0.390625 -0.0625,0.890625 -0.265625,1.703125 z m -2.34375,3.3125 c -1.09375,0 -1.09375,-1.03125 -1.09375,-1.125 0,-0.265625 0.25,-1.65625 0.65625,-2.265625 0.390625,-0.5625 0.890625,-0.890625 1.5,-0.890625 1.09375,0 1.109375,1.125 1.109375,1.328125 0,0.71875 -0.640625,2.953125 -2.171875,2.953125 z m 0,0"
               style="stroke:none;stroke-width:0" />
          </g>
        </g>
        <g
           id="id-2bcbcf2d-12f3-4e74-91ee-1d33521c5bc7"
           style="fill:#000000;fill-opacity:1;stroke-width:0">
          <g
             transform="translate(273.547,157.444)"
             style="stroke-width:0"
             id="g210">
            <path
               id="id-b1079163-3c6c-45df-ae63-438a9d5c8bc5"
               d="m 2.046875,-3.984375 h 0.9375 c 0.203125,0 0.3125,0 0.3125,-0.203125 0,-0.109375 -0.109375,-0.109375 -0.28125,-0.109375 h -0.875 C 2.5,-5.71875 2.546875,-5.90625 2.546875,-5.96875 c 0,-0.171875 -0.125,-0.265625 -0.296875,-0.265625 -0.03125,0 -0.3125,0 -0.390625,0.359375 L 1.46875,-4.296875 h -0.9375 c -0.203125,0 -0.296875,0 -0.296875,0.1875 0,0.125 0.078125,0.125 0.28125,0.125 h 0.875 C 0.671875,-1.15625 0.625,-0.984375 0.625,-0.8125 0.625,-0.265625 1,0.109375 1.546875,0.109375 2.5625,0.109375 3.125,-1.34375 3.125,-1.421875 3.125,-1.53125 3.046875,-1.53125 3.015625,-1.53125 2.921875,-1.53125 2.90625,-1.5 2.859375,-1.390625 2.4375,-0.34375 1.90625,-0.109375 1.5625,-0.109375 c -0.203125,0 -0.3125,-0.125 -0.3125,-0.453125 0,-0.25 0.03125,-0.3125 0.0625,-0.484375 z m 0,0"
               style="stroke:none;stroke-width:0" />
          </g>
        </g>
        <g
           id="id-a3e09a0f-4eb0-4dd5-a838-9d98baa83c42"
           style="fill:#000000;fill-opacity:1;stroke-width:0">
          <g
             transform="translate(277.14,154.566)"
             style="stroke-width:0"
             id="g214">
            <path
               id="id-a2b2922b-602f-4777-828d-14b65f97120e"
               d="M 3.515625,-1.265625 H 3.28125 c -0.015625,0.15625 -0.09375,0.5625 -0.1875,0.625 C 3.046875,-0.59375 2.515625,-0.59375 2.40625,-0.59375 H 1.125 c 0.734375,-0.640625 0.984375,-0.84375 1.390625,-1.171875 0.515625,-0.40625 1,-0.84375 1,-1.5 0,-0.84375 -0.734375,-1.359375 -1.625,-1.359375 -0.859375,0 -1.453125,0.609375 -1.453125,1.25 0,0.34375 0.296875,0.390625 0.375,0.390625 0.15625,0 0.359375,-0.125 0.359375,-0.375 0,-0.125 -0.046875,-0.375 -0.40625,-0.375 C 0.984375,-4.21875 1.453125,-4.375 1.78125,-4.375 c 0.703125,0 1.0625,0.546875 1.0625,1.109375 0,0.609375 -0.4375,1.078125 -0.65625,1.328125 L 0.515625,-0.265625 C 0.4375,-0.203125 0.4375,-0.1875 0.4375,0 h 2.875 z m 0,0"
               style="stroke:none;stroke-width:0" />
          </g>
        </g>
        <g
           id="id-801a767a-d4bd-4889-baf0-8b163f1666d1"
           style="fill:#000000;fill-opacity:1;stroke-width:0">
          <g
             transform="translate(297.359,150.61)"
             style="stroke-width:0"
             id="g218">
            <path
               id="id-f477123a-b992-4513-8887-09bba3d4b200"
               d="m 6.84375,-3.265625 c 0.15625,0 0.34375,0 0.34375,-0.1875 C 7.1875,-3.65625 7,-3.65625 6.859375,-3.65625 h -5.96875 c -0.140625,0 -0.328125,0 -0.328125,0.203125 0,0.1875 0.1875,0.1875 0.328125,0.1875 z m 0.015625,1.9375 c 0.140625,0 0.328125,0 0.328125,-0.203125 0,-0.1875 -0.1875,-0.1875 -0.34375,-0.1875 H 0.890625 c -0.140625,0 -0.328125,0 -0.328125,0.1875 0,0.203125 0.1875,0.203125 0.328125,0.203125 z m 0,0"
               style="stroke:none;stroke-width:0" />
          </g>
        </g>
        <g
           id="id-5fea87b9-8dbb-4642-aa6a-8ce4f3a50b11"
           style="fill:#000000;fill-opacity:1;stroke-width:0">
          <g
             transform="translate(307.875,150.61)"
             style="stroke-width:0"
             id="g222">
            <path
               id="id-52cac52a-952d-4602-a455-e3de002f5bb6"
               d="m 3.953125,-3.78125 c -0.171875,0 -0.296875,0 -0.4375,0.125 -0.171875,0.15625 -0.1875,0.328125 -0.1875,0.390625 0,0.25 0.1875,0.359375 0.375,0.359375 0.28125,0 0.546875,-0.25 0.546875,-0.640625 0,-0.484375 -0.46875,-0.859375 -1.171875,-0.859375 -1.34375,0 -2.671875,1.421875 -2.671875,2.828125 0,0.90625 0.578125,1.6875 1.625,1.6875 1.421875,0 2.25,-1.0625 2.25,-1.171875 0,-0.0625 -0.046875,-0.140625 -0.109375,-0.140625 -0.0625,0 -0.078125,0.03125 -0.140625,0.109375 -0.78125,0.984375 -1.875,0.984375 -1.984375,0.984375 -0.625,0 -0.90625,-0.484375 -0.90625,-1.09375 0,-0.40625 0.203125,-1.375 0.546875,-1.984375 0.3125,-0.578125 0.859375,-1 1.40625,-1 0.328125,0 0.71875,0.125 0.859375,0.40625 z m 0,0"
               style="stroke:none;stroke-width:0" />
          </g>
        </g>
        <g
           id="id-53b17925-e955-4b6b-bbff-749bc7d6d507"
           style="fill:#000000;fill-opacity:1;stroke-width:0">
          <g
             transform="translate(312.187,146.497)"
             style="stroke-width:0"
             id="g226">
            <path
               id="id-6ff3d3e1-8af4-4d3f-a8f1-6d581b0af0a3"
               d="M 3.515625,-1.265625 H 3.28125 c -0.015625,0.15625 -0.09375,0.5625 -0.1875,0.625 C 3.046875,-0.59375 2.515625,-0.59375 2.40625,-0.59375 H 1.125 c 0.734375,-0.640625 0.984375,-0.84375 1.390625,-1.171875 0.515625,-0.40625 1,-0.84375 1,-1.5 0,-0.84375 -0.734375,-1.359375 -1.625,-1.359375 -0.859375,0 -1.453125,0.609375 -1.453125,1.25 0,0.34375 0.296875,0.390625 0.375,0.390625 0.15625,0 0.359375,-0.125 0.359375,-0.375 0,-0.125 -0.046875,-0.375 -0.40625,-0.375 C 0.984375,-4.21875 1.453125,-4.375 1.78125,-4.375 c 0.703125,0 1.0625,0.546875 1.0625,1.109375 0,0.609375 -0.4375,1.078125 -0.65625,1.328125 L 0.515625,-0.265625 C 0.4375,-0.203125 0.4375,-0.1875 0.4375,0 h 2.875 z m 0,0"
               style="stroke:none;stroke-width:0" />
          </g>
        </g>
        <g
           id="id-4e61a833-8afb-442b-a91d-e23bdc04677e"
           style="fill:#000000;fill-opacity:1;stroke-width:0">
          <g
             transform="translate(317.852,143.87)"
             style="stroke-width:0"
             id="g230">
            <path
               id="id-cf7da179-92d5-480d-8828-e92ccd515597"
               d="m 4.609375,-3.375 c -0.09375,-0.625 -0.5,-1.1875 -1.28125,-1.1875 -0.609375,0 -1.25,0.171875 -2.03125,0.9375 -0.828125,0.828125 -0.890625,1.765625 -0.890625,2.0625 0,0.625 0.4375,1.78125 1.828125,1.78125 2.375,0 3.40625,-3.34375 3.40625,-4.78125 0,-1.578125 -0.921875,-2.578125 -2.15625,-2.578125 -1.4375,0 -1.90625,1.296875 -1.90625,1.578125 0,0.140625 0.09375,0.34375 0.390625,0.34375 0.328125,0 0.53125,-0.296875 0.53125,-0.515625 0,-0.359375 -0.3125,-0.359375 -0.46875,-0.359375 0.4375,-0.734375 1.15625,-0.796875 1.4375,-0.796875 0.734375,0 1.421875,0.515625 1.421875,1.8125 0,0.390625 -0.0625,0.890625 -0.265625,1.703125 z m -2.34375,3.3125 c -1.09375,0 -1.09375,-1.03125 -1.09375,-1.125 0,-0.265625 0.25,-1.65625 0.65625,-2.265625 0.390625,-0.5625 0.890625,-0.890625 1.5,-0.890625 1.09375,0 1.109375,1.125 1.109375,1.328125 0,0.71875 -0.640625,2.953125 -2.171875,2.953125 z m 0,0"
               style="stroke:none;stroke-width:0" />
          </g>
        </g>
        <g
           id="id-74fbde65-5ff8-4606-abca-60ef79220da0"
           style="fill:#000000;fill-opacity:1;stroke-width:0">
          <g
             transform="translate(323.694,140.255)"
             style="stroke-width:0"
             id="g234">
            <path
               id="id-40e466da-ed6a-4066-a374-6cdb746ddcc9"
               d="M 3.515625,-1.265625 H 3.28125 c -0.015625,0.15625 -0.09375,0.5625 -0.1875,0.625 C 3.046875,-0.59375 2.515625,-0.59375 2.40625,-0.59375 H 1.125 c 0.734375,-0.640625 0.984375,-0.84375 1.390625,-1.171875 0.515625,-0.40625 1,-0.84375 1,-1.5 0,-0.84375 -0.734375,-1.359375 -1.625,-1.359375 -0.859375,0 -1.453125,0.609375 -1.453125,1.25 0,0.34375 0.296875,0.390625 0.375,0.390625 0.15625,0 0.359375,-0.125 0.359375,-0.375 0,-0.125 -0.046875,-0.375 -0.40625,-0.375 C 0.984375,-4.21875 1.453125,-4.375 1.78125,-4.375 c 0.703125,0 1.0625,0.546875 1.0625,1.109375 0,0.609375 -0.4375,1.078125 -0.65625,1.328125 L 0.515625,-0.265625 C 0.4375,-0.203125 0.4375,-0.1875 0.4375,0 h 2.875 z m 0,0"
               style="stroke:none;stroke-width:0" />
          </g>
        </g>
        <g
           id="id-e11c03cd-8b2a-4390-bdf7-66f5f987fe33"
           style="fill:#000000;fill-opacity:1;stroke-width:0">
          <g
             transform="translate(328.164,143.87)"
             style="stroke-width:0"
             id="g238">
            <path
               id="id-5ae6ec69-85d9-4348-8a08-da774d83ad03"
               d="M 3.484375,-0.5625 C 3.59375,-0.15625 3.953125,0.109375 4.375,0.109375 4.71875,0.109375 4.953125,-0.125 5.109375,-0.4375 5.28125,-0.796875 5.40625,-1.40625 5.40625,-1.421875 c 0,-0.109375 -0.078125,-0.109375 -0.109375,-0.109375 -0.109375,0 -0.109375,0.046875 -0.140625,0.1875 -0.140625,0.5625 -0.328125,1.234375 -0.75,1.234375 -0.203125,0 -0.3125,-0.125 -0.3125,-0.453125 0,-0.21875 0.125,-0.6875 0.203125,-1.046875 L 4.578125,-2.6875 C 4.609375,-2.828125 4.703125,-3.203125 4.75,-3.359375 4.796875,-3.59375 4.890625,-3.96875 4.890625,-4.03125 c 0,-0.171875 -0.140625,-0.265625 -0.28125,-0.265625 -0.046875,0 -0.3125,0.015625 -0.390625,0.34375 -0.1875,0.734375 -0.625,2.484375 -0.75,3 -0.015625,0.046875 -0.40625,0.84375 -1.140625,0.84375 -0.515625,0 -0.609375,-0.453125 -0.609375,-0.8125 0,-0.5625 0.28125,-1.34375 0.53125,-2.03125 0.125,-0.3125 0.171875,-0.453125 0.171875,-0.640625 0,-0.4375 -0.3125,-0.8125 -0.8125,-0.8125 -0.953125,0 -1.3125,1.453125 -1.3125,1.53125 0,0.109375 0.09375,0.109375 0.109375,0.109375 0.109375,0 0.109375,-0.03125 0.15625,-0.1875 0.25,-0.859375 0.640625,-1.234375 1.015625,-1.234375 0.09375,0 0.25,0.015625 0.25,0.328125 0,0.234375 -0.109375,0.53125 -0.171875,0.671875 -0.375,1 -0.578125,1.609375 -0.578125,2.09375 0,0.953125 0.6875,1.203125 1.21875,1.203125 0.65625,0 1.015625,-0.453125 1.1875,-0.671875 z m 0,0"
               style="stroke:none;stroke-width:0" />
          </g>
        </g>
        <g
           id="id-6896f0f6-47a0-4a86-bb28-cd11471974e3"
           style="fill:#000000;fill-opacity:1;stroke-width:0">
          <g
             transform="translate(333.867,143.87)"
             style="stroke-width:0"
             id="g242">
            <path
               id="id-95564abd-b706-4c06-94ea-e40fddbad742"
               d="m 3.296875,2.390625 c 0,-0.03125 0,-0.046875 -0.171875,-0.21875 C 1.890625,0.921875 1.5625,-0.96875 1.5625,-2.5 c 0,-1.734375 0.375,-3.46875 1.609375,-4.703125 0.125,-0.125 0.125,-0.140625 0.125,-0.171875 0,-0.078125 -0.03125,-0.109375 -0.09375,-0.109375 -0.109375,0 -1,0.6875 -1.59375,1.953125 -0.5,1.09375 -0.625,2.203125 -0.625,3.03125 0,0.78125 0.109375,1.984375 0.65625,3.125 C 2.25,1.84375 3.09375,2.5 3.203125,2.5 c 0.0625,0 0.09375,-0.03125 0.09375,-0.109375 z m 0,0"
               style="stroke:none;stroke-width:0" />
          </g>
        </g>
        <g
           id="id-496829bd-cbf9-4a32-994b-b9ec6ec5baca"
           style="fill:#000000;fill-opacity:1;stroke-width:0">
          <g
             transform="translate(337.741,143.87)"
             style="stroke-width:0"
             id="g246">
            <path
               id="id-3253590b-af8d-41fd-84ed-3ddf1d4f307f"
               d="M 3.328125,-3.015625 C 3.390625,-3.265625 3.625,-4.1875 4.3125,-4.1875 c 0.046875,0 0.296875,0 0.5,0.125 C 4.53125,-4 4.34375,-3.765625 4.34375,-3.515625 c 0,0.15625 0.109375,0.34375 0.375,0.34375 0.21875,0 0.53125,-0.171875 0.53125,-0.578125 0,-0.515625 -0.578125,-0.65625 -0.921875,-0.65625 -0.578125,0 -0.921875,0.53125 -1.046875,0.75 -0.25,-0.65625 -0.78125,-0.75 -1.078125,-0.75 -1.03125,0 -1.609375,1.28125 -1.609375,1.53125 0,0.109375 0.109375,0.109375 0.125,0.109375 0.078125,0 0.109375,-0.03125 0.125,-0.109375 0.34375,-1.0625 1,-1.3125 1.34375,-1.3125 0.1875,0 0.53125,0.09375 0.53125,0.671875 0,0.3125 -0.171875,0.96875 -0.53125,2.375 -0.15625,0.609375 -0.515625,1.03125 -0.953125,1.03125 -0.0625,0 -0.28125,0 -0.5,-0.125 0.25,-0.0625 0.46875,-0.265625 0.46875,-0.546875 0,-0.265625 -0.21875,-0.34375 -0.359375,-0.34375 -0.3125,0 -0.546875,0.25 -0.546875,0.578125 0,0.453125 0.484375,0.65625 0.921875,0.65625 0.671875,0 1.03125,-0.703125 1.046875,-0.75 0.125,0.359375 0.484375,0.75 1.078125,0.75 1.03125,0 1.59375,-1.28125 1.59375,-1.53125 0,-0.109375 -0.078125,-0.109375 -0.109375,-0.109375 -0.09375,0 -0.109375,0.046875 -0.140625,0.109375 -0.328125,1.078125 -1,1.3125 -1.3125,1.3125 -0.390625,0 -0.546875,-0.3125 -0.546875,-0.65625 0,-0.21875 0.046875,-0.4375 0.15625,-0.875 z m 0,0"
               style="stroke:none;stroke-width:0" />
          </g>
          <g
             transform="translate(343.435,143.87)"
             style="stroke-width:0"
             id="g249">
            <path
               id="id-da3008ec-9fa8-4e2d-8c86-ad47797f6cbc"
               d="m 2.03125,-0.015625 c 0,-0.65625 -0.25,-1.046875 -0.640625,-1.046875 -0.328125,0 -0.53125,0.25 -0.53125,0.53125 C 0.859375,-0.265625 1.0625,0 1.390625,0 1.5,0 1.640625,-0.046875 1.734375,-0.125 1.765625,-0.15625 1.78125,-0.15625 1.78125,-0.15625 c 0.015625,0 0.015625,0 0.015625,0.140625 0,0.75 -0.34375,1.34375 -0.671875,1.671875 -0.109375,0.109375 -0.109375,0.125 -0.109375,0.15625 0,0.078125 0.046875,0.109375 0.09375,0.109375 0.109375,0 0.921875,-0.765625 0.921875,-1.9375 z m 0,0"
               style="stroke:none;stroke-width:0" />
          </g>
        </g>
        <g
           id="id-ba0bbceb-109e-4ece-9591-2ae7bc9bdcb2"
           style="fill:#000000;fill-opacity:1;stroke-width:0">
          <g
             transform="translate(347.866,143.87)"
             style="stroke-width:0"
             id="g253">
            <path
               id="id-b9978149-8758-44f7-afa7-b6215b317fd6"
               d="m 2.046875,-3.984375 h 0.9375 c 0.203125,0 0.3125,0 0.3125,-0.203125 0,-0.109375 -0.109375,-0.109375 -0.28125,-0.109375 h -0.875 C 2.5,-5.71875 2.546875,-5.90625 2.546875,-5.96875 c 0,-0.171875 -0.125,-0.265625 -0.296875,-0.265625 -0.03125,0 -0.3125,0 -0.390625,0.359375 L 1.46875,-4.296875 h -0.9375 c -0.203125,0 -0.296875,0 -0.296875,0.1875 0,0.125 0.078125,0.125 0.28125,0.125 h 0.875 C 0.671875,-1.15625 0.625,-0.984375 0.625,-0.8125 0.625,-0.265625 1,0.109375 1.546875,0.109375 2.5625,0.109375 3.125,-1.34375 3.125,-1.421875 3.125,-1.53125 3.046875,-1.53125 3.015625,-1.53125 2.921875,-1.53125 2.90625,-1.5 2.859375,-1.390625 2.4375,-0.34375 1.90625,-0.109375 1.5625,-0.109375 c -0.203125,0 -0.3125,-0.125 -0.3125,-0.453125 0,-0.25 0.03125,-0.3125 0.0625,-0.484375 z m 0,0"
               style="stroke:none;stroke-width:0" />
          </g>
        </g>
        <g
           id="id-994328cb-7374-42a4-91b6-c6c665771755"
           style="fill:#000000;fill-opacity:1;stroke-width:0">
          <g
             transform="translate(351.46,143.87)"
             style="stroke-width:0"
             id="g257">
            <path
               id="id-dc44c8fd-1b15-47fa-8bb0-741af6175216"
               d="m 2.875,-2.5 c 0,-0.765625 -0.109375,-1.96875 -0.65625,-3.109375 -0.59375,-1.21875 -1.453125,-1.875 -1.546875,-1.875 -0.0625,0 -0.109375,0.046875 -0.109375,0.109375 0,0.03125 0,0.046875 0.1875,0.234375 0.984375,0.984375 1.546875,2.5625 1.546875,4.640625 0,1.71875 -0.359375,3.46875 -1.59375,4.71875 C 0.5625,2.34375 0.5625,2.359375 0.5625,2.390625 0.5625,2.453125 0.609375,2.5 0.671875,2.5 0.765625,2.5 1.671875,1.8125 2.25,0.546875 2.765625,-0.546875 2.875,-1.65625 2.875,-2.5 Z m 0,0"
               style="stroke:none;stroke-width:0" />
          </g>
        </g>
        <path
           id="id-52710452-9b9a-47a0-b3bf-755dd14ebb82"
           transform="matrix(1,0,0,-1,317.851,148.12)"
           d="M 5.625e-4,-0.00109375 H 37.484938"
           style="fill:none;stroke:#000000;stroke-width:0.398;stroke-linecap:butt;stroke-linejoin:miter;stroke-miterlimit:10;stroke-opacity:1" />
        <g
           id="id-7075e3b3-603c-4fdb-8a71-c9bd35f770b0"
           style="fill:#000000;fill-opacity:1;stroke-width:0">
          <g
             transform="translate(328.59,157.444)"
             style="stroke-width:0"
             id="g262">
            <path
               id="id-b35f9760-349a-4a30-a8ed-a23cd53f3f68"
               d="m 4.609375,-3.375 c -0.09375,-0.625 -0.5,-1.1875 -1.28125,-1.1875 -0.609375,0 -1.25,0.171875 -2.03125,0.9375 -0.828125,0.828125 -0.890625,1.765625 -0.890625,2.0625 0,0.625 0.4375,1.78125 1.828125,1.78125 2.375,0 3.40625,-3.34375 3.40625,-4.78125 0,-1.578125 -0.921875,-2.578125 -2.15625,-2.578125 -1.4375,0 -1.90625,1.296875 -1.90625,1.578125 0,0.140625 0.09375,0.34375 0.390625,0.34375 0.328125,0 0.53125,-0.296875 0.53125,-0.515625 0,-0.359375 -0.3125,-0.359375 -0.46875,-0.359375 0.4375,-0.734375 1.15625,-0.796875 1.4375,-0.796875 0.734375,0 1.421875,0.515625 1.421875,1.8125 0,0.390625 -0.0625,0.890625 -0.265625,1.703125 z m -2.34375,3.3125 c -1.09375,0 -1.09375,-1.03125 -1.09375,-1.125 0,-0.265625 0.25,-1.65625 0.65625,-2.265625 0.390625,-0.5625 0.890625,-0.890625 1.5,-0.890625 1.09375,0 1.109375,1.125 1.109375,1.328125 0,0.71875 -0.640625,2.953125 -2.171875,2.953125 z m 0,0"
               style="stroke:none;stroke-width:0" />
          </g>
        </g>
        <g
           id="id-c74b8432-a726-4198-9f9a-0d082b0d18c0"
           style="fill:#000000;fill-opacity:1;stroke-width:0">
          <g
             transform="translate(334.437,157.444)"
             style="stroke-width:0"
             id="g266">
            <path
               id="id-7306ef8f-7c6e-413c-89bf-3e5f490f5711"
               d="M 3.328125,-3.015625 C 3.390625,-3.265625 3.625,-4.1875 4.3125,-4.1875 c 0.046875,0 0.296875,0 0.5,0.125 C 4.53125,-4 4.34375,-3.765625 4.34375,-3.515625 c 0,0.15625 0.109375,0.34375 0.375,0.34375 0.21875,0 0.53125,-0.171875 0.53125,-0.578125 0,-0.515625 -0.578125,-0.65625 -0.921875,-0.65625 -0.578125,0 -0.921875,0.53125 -1.046875,0.75 -0.25,-0.65625 -0.78125,-0.75 -1.078125,-0.75 -1.03125,0 -1.609375,1.28125 -1.609375,1.53125 0,0.109375 0.109375,0.109375 0.125,0.109375 0.078125,0 0.109375,-0.03125 0.125,-0.109375 0.34375,-1.0625 1,-1.3125 1.34375,-1.3125 0.1875,0 0.53125,0.09375 0.53125,0.671875 0,0.3125 -0.171875,0.96875 -0.53125,2.375 -0.15625,0.609375 -0.515625,1.03125 -0.953125,1.03125 -0.0625,0 -0.28125,0 -0.5,-0.125 0.25,-0.0625 0.46875,-0.265625 0.46875,-0.546875 0,-0.265625 -0.21875,-0.34375 -0.359375,-0.34375 -0.3125,0 -0.546875,0.25 -0.546875,0.578125 0,0.453125 0.484375,0.65625 0.921875,0.65625 0.671875,0 1.03125,-0.703125 1.046875,-0.75 0.125,0.359375 0.484375,0.75 1.078125,0.75 1.03125,0 1.59375,-1.28125 1.59375,-1.53125 0,-0.109375 -0.078125,-0.109375 -0.109375,-0.109375 -0.09375,0 -0.109375,0.046875 -0.140625,0.109375 -0.328125,1.078125 -1,1.3125 -1.3125,1.3125 -0.390625,0 -0.546875,-0.3125 -0.546875,-0.65625 0,-0.21875 0.046875,-0.4375 0.15625,-0.875 z m 0,0"
               style="stroke:none;stroke-width:0" />
          </g>
        </g>
        <g
           id="id-59086ae4-f62f-49e6-b6c6-9f62a2f46bc5"
           style="fill:#000000;fill-opacity:1;stroke-width:0">
          <g
             transform="translate(340.127,154.566)"
             style="stroke-width:0"
             id="g270">
            <path
               id="id-601b6317-bec3-4b7b-9cb8-2ee7af77e96d"
               d="M 3.515625,-1.265625 H 3.28125 c -0.015625,0.15625 -0.09375,0.5625 -0.1875,0.625 C 3.046875,-0.59375 2.515625,-0.59375 2.40625,-0.59375 H 1.125 c 0.734375,-0.640625 0.984375,-0.84375 1.390625,-1.171875 0.515625,-0.40625 1,-0.84375 1,-1.5 0,-0.84375 -0.734375,-1.359375 -1.625,-1.359375 -0.859375,0 -1.453125,0.609375 -1.453125,1.25 0,0.34375 0.296875,0.390625 0.375,0.390625 0.15625,0 0.359375,-0.125 0.359375,-0.375 0,-0.125 -0.046875,-0.375 -0.40625,-0.375 C 0.984375,-4.21875 1.453125,-4.375 1.78125,-4.375 c 0.703125,0 1.0625,0.546875 1.0625,1.109375 0,0.609375 -0.4375,1.078125 -0.65625,1.328125 L 0.515625,-0.265625 C 0.4375,-0.203125 0.4375,-0.1875 0.4375,0 h 2.875 z m 0,0"
               style="stroke:none;stroke-width:0" />
          </g>
        </g>
      </g>
    </g>
    <g
       id="g165"
       transform="matrix(0.20447881,0,0,0.20447881,-279.86293,96.233874)">
      <polyline
         id="polyline125"
         stroke="#000000"
         stroke-width="0.5"
         fill="none"
         points=" 211.0, 62.2  325.8, 62.2  " />
      <polyline
         id="polyline127"
         stroke="#000000"
         stroke-width="0"
         fill="#000000"
         points=" 325.8, 62.2  305.8, 58.2  305.8, 66.2  " />
      <text
         id="text129"
         font-size="15.0"
         y="52.200001"
         x="211">Direction of motion</text>
      <polyline
         id="polyline133"
         stroke="#ff0000"
         stroke-width="2"
         fill="none"
         points="  10.0,126.0   15.7,115.1   21.5,105.3   27.2, 96.7   33.0, 89.2   38.7, 82.8   44.5, 77.6   50.2, 73.5   55.9, 70.5   61.7, 68.7   67.4, 68.0   73.2, 68.5   78.9, 70.0   84.7, 72.8   90.4, 76.6   96.1, 81.6  101.9, 87.8  107.6, 95.1  113.4,102.9  119.1,109.5  124.9,115.1  130.6,119.5  136.3,122.8  142.1,124.9  147.8,125.9  153.6,126.0  159.3,126.0  165.0,126.0  170.8,126.0  176.5,126.0  182.3,126.0  188.0,126.0  193.8,126.0  199.5,126.0  205.2,126.0  211.0,126.0  216.7,126.0  222.5,126.0  228.2,126.0  234.0,126.0  239.7,126.0  245.4,126.0  251.2,126.0  256.9,126.0  262.7,126.0  268.4,126.0  274.2,126.0  279.9,126.0  285.6,126.0  291.4,126.0  297.1,126.0  302.9,126.0  308.6,126.0  314.4,126.0  320.1,126.0  325.8,126.0  331.6,126.0  337.3,126.0  343.1,126.0  348.8,126.0  354.6,126.0  360.3,126.0  366.0,126.0  371.8,126.0  377.5,126.0  383.3,126.0  389.0,126.0  394.8,126.0  400.5,126.0  406.2,126.0  412.0,126.0  417.7,126.0  423.5,126.0  429.2,126.0  435.0,126.0  440.7,126.0  446.4,126.0  452.2,126.0  457.9,126.0  463.7,126.0  469.4,126.0  475.1,126.0  480.9,126.0  486.6,126.0  492.4,126.0  498.1,126.0  503.9,126.0  509.6,126.0  515.3,126.0  521.1,126.0  526.8,126.0  532.6,126.0  538.3,126.0  544.1,126.0  549.8,126.0  555.5,126.0  561.3,126.0  567.0,126.0  572.8,126.0  578.5,126.0  584.3,126.0  590.0,126.0  " />
      <polyline
         id="polyline135"
         stroke="#000000"
         stroke-width="2"
         fill="none"
         points="  10.0,126.0   15.7,120.2   21.5,114.4   27.2,108.7   33.0,102.7   38.7, 96.9   44.5, 91.7   50.2, 87.7   55.9, 84.7   61.7, 82.9   67.4, 82.2   73.2, 82.7   78.9, 84.2   84.7, 86.5   90.4, 89.1   96.1, 91.5  101.9, 93.9  107.6, 96.4  113.4, 98.9  119.1,101.4  124.9,103.8  130.6,106.9  136.3,110.7  142.1,114.5  147.8,117.8  153.6,120.5  159.3,122.8  165.0,124.4  170.8,125.4  176.5,125.9  182.3,126.0  188.0,126.0  193.8,126.0  199.5,126.0  205.2,126.0  211.0,126.0  216.7,126.0  222.5,126.0  228.2,126.0  234.0,126.0  239.7,126.0  245.4,126.0  251.2,126.0  256.9,126.0  262.7,126.0  268.4,126.0  274.2,126.0  279.9,126.0  285.6,126.0  291.4,126.0  297.1,126.0  302.9,126.0  308.6,126.0  314.4,126.0  320.1,126.0  325.8,126.0  331.6,126.0  337.3,126.0  343.1,126.0  348.8,126.0  354.6,126.0  360.3,126.0  366.0,126.0  371.8,126.0  377.5,126.0  383.3,126.0  389.0,126.0  394.8,126.0  400.5,126.0  406.2,126.0  412.0,126.0  417.7,126.0  423.5,126.0  429.2,126.0  435.0,126.0  440.7,126.0  446.4,126.0  452.2,126.0  457.9,126.0  463.7,126.0  469.4,126.0  475.1,126.0  480.9,126.0  486.6,126.0  492.4,126.0  498.1,126.0  503.9,126.0  509.6,126.0  515.3,126.0  521.1,126.0  526.8,126.0  532.6,126.0  538.3,126.0  544.1,126.0  549.8,126.0  555.5,126.0  561.3,126.0  567.0,126.0  572.8,126.0  578.5,126.0  584.3,126.0  590.0,126.0  " />
      <polyline
         id="polyline137"
         stroke="#000000"
         stroke-width="2"
         fill="none"
         points="  10.0,126.0   15.7,125.9   21.5,125.8   27.2,125.7   33.0,125.6   38.7,125.4   44.5,125.2   50.2,125.1   55.9,124.5   61.7,122.9   67.4,120.4   73.2,117.2   78.9,114.0   84.7,110.8   90.4,107.6   96.1,104.5  101.9,101.8  107.6, 99.7  113.4, 98.3  119.1, 97.3  124.9, 97.0  130.6, 97.2  136.3, 98.0  142.1, 99.4  147.8,101.3  153.6,103.7  159.3,107.1  165.0,110.8  170.8,114.5  176.5,117.8  182.3,120.5  188.0,122.8  193.8,124.4  199.5,125.4  205.2,125.8  211.0,125.9  216.7,126.0  222.5,126.0  228.2,126.0  234.0,126.0  239.7,126.0  245.4,126.0  251.2,126.0  256.9,126.0  262.7,126.0  268.4,126.0  274.2,126.0  279.9,126.0  285.6,126.0  291.4,126.0  297.1,126.0  302.9,126.0  308.6,126.0  314.4,126.0  320.1,126.0  325.8,126.0  331.6,126.0  337.3,126.0  343.1,126.0  348.8,126.0  354.6,126.0  360.3,126.0  366.0,126.0  371.8,126.0  377.5,126.0  383.3,126.0  389.0,126.0  394.8,126.0  400.5,126.0  406.2,126.0  412.0,126.0  417.7,126.0  423.5,126.0  429.2,126.0  435.0,126.0  440.7,126.0  446.4,126.0  452.2,126.0  457.9,126.0  463.7,126.0  469.4,126.0  475.1,126.0  480.9,126.0  486.6,126.0  492.4,126.0  498.1,126.0  503.9,126.0  509.6,126.0  515.3,126.0  521.1,126.0  526.8,126.0  532.6,126.0  538.3,126.0  544.1,126.0  549.8,126.0  555.5,126.0  561.3,126.0  567.0,126.0  572.8,126.0  578.5,126.0  584.3,126.0  590.0,126.0  " />
      <polyline
         id="polyline139"
         stroke="#000000"
         stroke-width="2"
         fill="none"
         points="  10.0,126.0   15.7,131.5   21.5,136.9   27.2,142.0   33.0,146.4   38.7,149.7   44.5,151.5   50.2,152.0   55.9,151.8   61.7,150.3   67.4,147.8   73.2,144.6   78.9,140.8   84.7,136.2   90.4,131.2   96.1,125.7  101.9,120.4  107.6,115.6  113.4,111.3  119.1,107.6  124.9,104.4  130.6,101.8  136.3, 99.7  142.1, 98.2  147.8, 97.3  153.6, 97.0  159.3, 97.2  165.0, 98.1  170.8, 99.4  176.5,101.2  182.3,103.8  188.0,107.1  193.8,110.9  199.5,114.6  205.2,117.8  211.0,120.5  216.7,122.8  222.5,124.4  228.2,125.3  234.0,125.8  239.7,125.9  245.4,126.0  251.2,126.0  256.9,126.0  262.7,126.0  268.4,126.0  274.2,126.0  279.9,126.0  285.6,126.0  291.4,126.0  297.1,126.0  302.9,126.0  308.6,126.0  314.4,126.0  320.1,126.0  325.8,126.0  331.6,126.0  337.3,126.0  343.1,126.0  348.8,126.0  354.6,126.0  360.3,126.0  366.0,126.0  371.8,126.0  377.5,126.0  383.3,126.0  389.0,126.0  394.8,126.0  400.5,126.0  406.2,126.0  412.0,126.0  417.7,126.0  423.5,126.0  429.2,126.0  435.0,126.0  440.7,126.0  446.4,126.0  452.2,126.0  457.9,126.0  463.7,126.0  469.4,126.0  475.1,126.0  480.9,126.0  486.6,126.0  492.4,126.0  498.1,126.0  503.9,126.0  509.6,126.0  515.3,126.0  521.1,126.0  526.8,126.0  532.6,126.0  538.3,126.0  544.1,126.0  549.8,126.0  555.5,126.0  561.3,126.0  567.0,126.0  572.8,126.0  578.5,126.0  584.3,126.0  590.0,126.0  " />
      <polyline
         id="polyline141"
         stroke="#000000"
         stroke-width="2"
         fill="none"
         points="  10.0,126.0   15.7,131.3   21.5,136.4   27.2,141.1   33.0,145.3   38.7,148.5   44.5,150.8   50.2,152.6   55.9,153.9   61.7,154.8   67.4,155.1   73.2,154.7   78.9,153.7   84.7,152.3   90.4,150.2   96.1,147.6  101.9,144.6  107.6,140.8  113.4,136.2  119.1,131.0  124.9,125.6  130.6,120.4  136.3,115.6  142.1,111.3  147.8,107.6  153.6,104.4  159.3,101.8  165.0, 99.7  170.8, 98.3  176.5, 97.3  182.3, 96.9  188.0, 97.3  193.8, 98.1  199.5, 99.3  205.2,101.2  211.0,103.8  216.7,107.3  222.5,111.0  228.2,114.6  234.0,117.8  239.7,120.6  245.4,122.8  251.2,124.4  256.9,125.3  262.7,125.7  268.4,125.9  274.2,126.0  279.9,126.0  285.6,126.0  291.4,126.0  297.1,126.0  302.9,126.0  308.6,126.0  314.4,126.0  320.1,126.0  325.8,126.0  331.6,126.0  337.3,126.0  343.1,126.0  348.8,126.0  354.6,126.0  360.3,126.0  366.0,126.0  371.8,126.0  377.5,126.0  383.3,126.0  389.0,126.0  394.8,126.0  400.5,126.0  406.2,126.0  412.0,126.0  417.7,126.0  423.5,126.0  429.2,126.0  435.0,126.0  440.7,126.0  446.4,126.0  452.2,126.0  457.9,126.0  463.7,126.0  469.4,126.0  475.1,126.0  480.9,126.0  486.6,126.0  492.4,126.0  498.1,126.0  503.9,126.0  509.6,126.0  515.3,126.0  521.1,126.0  526.8,126.0  532.6,126.0  538.3,126.0  544.1,126.0  549.8,126.0  555.5,126.0  561.3,126.0  567.0,126.0  572.8,126.0  578.5,126.0  584.3,126.0  590.0,126.0  " />
      <polyline
         id="polyline143"
         stroke="#0000ff"
         stroke-width="2"
         fill="none"
         points="  10.0,126.0   15.7,126.2   21.5,126.5   27.2,127.4   33.0,129.1   38.7,131.5   44.5,134.6   50.2,138.1   55.9,141.8   61.7,145.3   67.4,148.2   73.2,150.7   78.9,152.6   84.7,154.0   90.4,154.8   96.1,154.9  101.9,154.7  107.6,153.8  113.4,152.3  119.1,150.1  124.9,147.6  130.6,144.6  136.3,140.8  142.1,136.1  147.8,130.9  153.6,125.5  159.3,120.4  165.0,115.6  170.8,111.3  176.5,107.6  182.3,104.4  188.0,101.8  193.8, 99.8  199.5, 98.3  205.2, 97.3  211.0, 97.0  216.7, 97.3  222.5, 98.0  228.2, 99.3  234.0,101.2  239.7,104.0  245.4,107.4  251.2,111.0  256.9,114.6  262.7,117.8  268.4,120.6  274.2,122.8  279.9,124.4  285.6,125.2  291.4,125.7  297.1,125.9  302.9,125.9  308.6,126.0  314.4,126.0  320.1,126.0  325.8,126.0  331.6,126.0  337.3,126.0  343.1,126.0  348.8,126.0  354.6,126.0  360.3,126.0  366.0,126.0  371.8,126.0  377.5,126.0  383.3,126.0  389.0,126.0  394.8,126.0  400.5,126.0  406.2,126.0  412.0,126.0  417.7,126.0  423.5,126.0  429.2,126.0  435.0,126.0  440.7,126.0  446.4,126.0  452.2,126.0  457.9,126.0  463.7,126.0  469.4,126.0  475.1,126.0  480.9,126.0  486.6,126.0  492.4,126.0  498.1,126.0  503.9,126.0  509.6,126.0  515.3,126.0  521.1,126.0  526.8,126.0  532.6,126.0  538.3,126.0  544.1,126.0  549.8,126.0  555.5,126.0  561.3,126.0  567.0,126.0  572.8,126.0  578.5,126.0  584.3,126.0  590.0,126.0  " />
    </g>
    <g
       id="g208"
       transform="matrix(0.20447881,0,0,0.20447881,-279.86293,147.76252)">
      <polyline
         id="polyline171"
         stroke="#000000"
         stroke-width="0.5"
         fill="none"
         points=" 211.0, 62.2  325.8, 62.2  " />
      <polyline
         id="polyline173"
         stroke="#000000"
         stroke-width="0"
         fill="#000000"
         points=" 325.8, 62.2  305.8, 58.2  305.8, 66.2  " />
      <text
         id="text175"
         font-size="15.0"
         y="52.200001"
         x="211">Direction of motion</text>
      <polyline
         id="polyline177"
         stroke="#ff0000"
         stroke-width="2"
         fill="none"
         points="  10.0,126.0   15.7,126.1   21.5,126.2   27.2,125.9   33.0,125.7   38.7,125.7   44.5,125.9   50.2,126.5   55.9,127.5   61.7,129.1   67.4,131.5   73.2,134.6   78.9,138.2   84.7,141.8   90.4,145.3   96.1,148.2  101.9,150.7  107.6,152.6  113.4,154.0  119.1,154.8  124.9,154.9  130.6,154.7  136.3,153.8  142.1,152.2  147.8,150.1  153.6,147.7  159.3,144.6  165.0,140.7  170.8,136.0  176.5,130.8  182.3,125.5  188.0,120.4  193.8,115.6  199.5,111.3  205.2,107.6  211.0,104.4  216.7,101.8  222.5, 99.8  228.2, 98.2  234.0, 97.3  239.7, 97.1  245.4, 97.3  251.2, 98.0  256.9, 99.2  262.7,101.2  268.4,104.0  274.2,107.5  279.9,111.1  285.6,114.6  291.4,117.8  297.1,120.7  302.9,122.8  308.6,124.3  314.4,125.2  320.1,125.7  325.8,125.9  331.6,125.9  337.3,126.0  343.1,126.0  348.8,126.0  354.6,126.0  360.3,126.0  366.0,126.0  371.8,126.0  377.5,126.0  383.3,126.0  389.0,126.0  394.8,126.0  400.5,126.0  406.2,126.0  412.0,126.0  417.7,126.0  423.5,126.0  429.2,126.0  435.0,126.0  440.7,126.0  446.4,126.0  452.2,126.0  457.9,126.0  463.7,126.0  469.4,126.0  475.1,126.0  480.9,126.0  486.6,126.0  492.4,126.0  498.1,126.0  503.9,126.0  509.6,126.0  515.3,126.0  521.1,126.0  526.8,126.0  532.6,126.0  538.3,126.0  544.1,126.0  549.8,126.0  555.5,126.0  561.3,126.0  567.0,126.0  572.8,126.0  578.5,126.0  584.3,126.0  590.0,126.0  " />
      <polyline
         id="polyline179"
         stroke="#000000"
         stroke-width="2"
         fill="none"
         points="  10.0,126.0   15.7,126.1   21.5,126.0   27.2,126.0   33.0,125.9   38.7,125.9   44.5,126.1   50.2,126.2   55.9,125.9   61.7,125.7   67.4,125.7   73.2,125.9   78.9,126.5   84.7,127.4   90.4,129.0   96.1,131.5  101.9,134.8  107.6,138.2  113.4,141.9  119.1,145.3  124.9,148.2  130.6,150.7  136.3,152.7  142.1,154.0  147.8,154.7  153.6,155.0  159.3,154.7  165.0,153.7  170.8,152.2  176.5,150.2  182.3,147.8  188.0,144.6  193.8,140.7  199.5,136.0  205.2,130.8  211.0,125.5  216.7,120.3  222.5,115.6  228.2,111.3  234.0,107.6  239.7,104.4  245.4,101.8  251.2, 99.7  256.9, 98.2  262.7, 97.3  268.4, 97.1  274.2, 97.3  279.9, 97.9  285.6, 99.1  291.4,101.2  297.1,104.1  302.9,107.6  308.6,111.2  314.4,114.6  320.1,117.9  325.8,120.7  331.6,122.8  337.3,124.3  343.1,125.1  348.8,125.7  354.6,125.8  360.3,125.9  366.0,126.0  371.8,126.0  377.5,126.0  383.3,126.0  389.0,126.0  394.8,126.0  400.5,126.0  406.2,126.0  412.0,126.0  417.7,126.0  423.5,126.0  429.2,126.0  435.0,126.0  440.7,126.0  446.4,126.0  452.2,126.0  457.9,126.0  463.7,126.0  469.4,126.0  475.1,126.0  480.9,126.0  486.6,126.0  492.4,126.0  498.1,126.0  503.9,126.0  509.6,126.0  515.3,126.0  521.1,126.0  526.8,126.0  532.6,126.0  538.3,126.0  544.1,126.0  549.8,126.0  555.5,126.0  561.3,126.0  567.0,126.0  572.8,126.0  578.5,126.0  584.3,126.0  590.0,126.0  " />
      <polyline
         id="polyline181"
         stroke="#000000"
         stroke-width="2"
         fill="none"
         points="  10.0,126.0   15.7,126.0   21.5,126.0   27.2,126.0   33.0,126.0   38.7,126.0   44.5,126.0   50.2,126.0   55.9,126.0   61.7,125.9   67.4,126.0   73.2,126.2   78.9,126.1   84.7,125.8   90.4,125.7   96.1,125.7  101.9,125.9  107.6,126.4  113.4,127.3  119.1,129.1  124.9,131.6  130.6,134.8  136.3,138.4  142.1,142.0  147.8,145.3  153.6,148.2  159.3,150.7  165.0,152.6  170.8,154.0  176.5,154.7  182.3,155.1  188.0,154.7  193.8,153.7  199.5,152.2  205.2,150.2  211.0,147.8  216.7,144.7  222.5,140.6  228.2,135.9  234.0,130.8  239.7,125.4  245.4,120.3  251.2,115.6  256.9,111.3  262.7,107.6  268.4,104.4  274.2,101.8  279.9, 99.7  285.6, 98.2  291.4, 97.3  297.1, 97.1  302.9, 97.3  308.6, 97.9  314.4, 99.1  320.1,101.3  325.8,104.2  331.6,107.6  337.3,111.2  343.1,114.7  348.8,117.9  354.6,120.7  360.3,122.8  366.0,124.3  371.8,125.1  377.5,125.6  383.3,125.8  389.0,125.9  394.8,126.0  400.5,126.0  406.2,126.0  412.0,126.0  417.7,126.0  423.5,126.0  429.2,126.0  435.0,126.0  440.7,126.0  446.4,126.0  452.2,126.0  457.9,126.0  463.7,126.0  469.4,126.0  475.1,126.0  480.9,126.0  486.6,126.0  492.4,126.0  498.1,126.0  503.9,126.0  509.6,126.0  515.3,126.0  521.1,126.0  526.8,126.0  532.6,126.0  538.3,126.0  544.1,126.0  549.8,126.0  555.5,126.0  561.3,126.0  567.0,126.0  572.8,126.0  578.5,126.0  584.3,126.0  590.0,126.0  " />
      <polyline
         id="polyline183"
         stroke="#000000"
         stroke-width="2"
         fill="none"
         points="  10.0,126.0   15.7,125.9   21.5,126.1   27.2,126.0   33.0,126.0   38.7,126.0   44.5,126.0   50.2,126.0   55.9,126.0   61.7,126.0   67.4,126.0   73.2,126.1   78.9,126.0   84.7,125.9   90.4,125.9   96.1,126.1  101.9,126.2  107.6,126.0  113.4,125.8  119.1,125.7  124.9,125.7  130.6,125.9  136.3,126.3  142.1,127.3  147.8,129.1  153.6,131.6  159.3,134.8  165.0,138.5  170.8,142.0  176.5,145.3  182.3,148.3  188.0,150.8  193.8,152.6  199.5,153.9  205.2,154.8  211.0,155.1  216.7,154.7  222.5,153.7  228.2,152.2  234.0,150.2  239.7,147.9  245.4,144.6  251.2,140.6  256.9,135.9  262.7,130.6  268.4,125.4  274.2,120.3  279.9,115.6  285.6,111.3  291.4,107.6  297.1,104.4  302.9,101.8  308.6, 99.7  314.4, 98.2  320.1, 97.4  325.8, 97.2  331.6, 97.2  337.3, 97.8  343.1, 99.1  348.8,101.4  354.6,104.3  360.3,107.7  366.0,111.2  371.8,114.7  377.5,118.0  383.3,120.7  389.0,122.8  394.8,124.2  400.5,125.1  406.2,125.6  412.0,125.8  417.7,125.9  423.5,125.9  429.2,126.0  435.0,126.0  440.7,126.0  446.4,126.0  452.2,126.0  457.9,126.0  463.7,126.0  469.4,126.0  475.1,126.0  480.9,126.0  486.6,126.0  492.4,126.0  498.1,126.0  503.9,126.0  509.6,126.0  515.3,126.0  521.1,126.0  526.8,126.0  532.6,126.0  538.3,126.0  544.1,126.0  549.8,126.0  555.5,126.0  561.3,126.0  567.0,126.0  572.8,126.0  578.5,126.0  584.3,126.0  590.0,126.0  " />
      <polyline
         id="polyline185"
         stroke="#000000"
         stroke-width="2"
         fill="none"
         points="  10.0,126.0   15.7,126.1   21.5,125.9   27.2,126.0   33.0,126.0   38.7,126.0   44.5,126.0   50.2,126.0   55.9,126.0   61.7,126.0   67.4,126.0   73.2,126.0   78.9,126.0   84.7,126.0   90.4,126.0   96.1,126.0  101.9,126.1  107.6,126.0  113.4,125.9  119.1,125.9  124.9,126.2  130.6,126.2  136.3,126.0  142.1,125.8  147.8,125.7  153.6,125.7  159.3,125.9  165.0,126.2  170.8,127.3  176.5,129.1  182.3,131.7  188.0,134.9  193.8,138.5  199.5,142.0  205.2,145.3  211.0,148.3  216.7,150.8  222.5,152.6  228.2,154.0  234.0,154.8  239.7,155.1  245.4,154.7  251.2,153.6  256.9,152.2  262.7,150.4  268.4,147.9  274.2,144.6  279.9,140.6  285.6,135.7  291.4,130.5  297.1,125.4  302.9,120.3  308.6,115.5  314.4,111.3  320.1,107.6  325.8,104.4  331.6,101.8  337.3, 99.6  343.1, 98.2  348.8, 97.5  354.6, 97.2  360.3, 97.2  366.0, 97.8  371.8, 99.1  377.5,101.4  383.3,104.3  389.0,107.7  394.8,111.3  400.5,114.8  406.2,118.1  412.0,120.7  417.7,122.8  423.5,124.2  429.2,125.1  435.0,125.5  440.7,125.8  446.4,125.9  452.2,125.9  457.9,126.0  463.7,126.0  469.4,126.0  475.1,126.0  480.9,126.0  486.6,126.0  492.4,126.0  498.1,126.0  503.9,126.0  509.6,126.0  515.3,126.0  521.1,126.0  526.8,126.0  532.6,126.0  538.3,126.0  544.1,126.0  549.8,126.0  555.5,126.0  561.3,126.0  567.0,126.0  572.8,126.0  578.5,126.0  584.3,126.0  590.0,126.0  " />
      <polyline
         id="polyline187"
         stroke="#0000ff"
         stroke-width="2"
         fill="none"
         points="  10.0,126.0   15.7,126.0   21.5,126.1   27.2,126.0   33.0,126.0   38.7,126.0   44.5,126.0   50.2,126.0   55.9,126.0   61.7,126.0   67.4,126.0   73.2,126.0   78.9,126.0   84.7,126.0   90.4,126.0   96.1,126.0  101.9,126.0  107.6,126.0  113.4,125.9  119.1,126.0  124.9,126.1  130.6,126.1  136.3,125.9  142.1,125.9  147.8,126.0  153.6,126.2  159.3,126.1  165.0,125.9  170.8,125.7  176.5,125.7  182.3,125.7  188.0,125.8  193.8,126.2  199.5,127.3  205.2,129.1  211.0,131.7  216.7,135.0  222.5,138.5  228.2,142.0  234.0,145.4  239.7,148.3  245.4,150.7  251.2,152.6  256.9,154.0  262.7,154.8  268.4,155.1  274.2,154.6  279.9,153.6  285.6,152.2  291.4,150.4  297.1,147.9  302.9,144.6  308.6,140.5  314.4,135.6  320.1,130.5  325.8,125.3  331.6,120.2  337.3,115.5  343.1,111.3  348.8,107.6  354.6,104.4  360.3,101.7  366.0, 99.6  371.8, 98.3  377.5, 97.5  383.3, 97.1  389.0, 97.1  394.8, 97.7  400.5, 99.1  406.2,101.5  412.0,104.4  417.7,107.7  423.5,111.3  429.2,114.9  435.0,118.1  440.7,120.7  446.4,122.8  452.2,124.1  457.9,125.0  463.7,125.5  469.4,125.8  475.1,125.9  480.9,125.9  486.6,126.0  492.4,126.0  498.1,126.0  503.9,126.0  509.6,126.0  515.3,126.0  521.1,126.0  526.8,126.0  532.6,126.0  538.3,126.0  544.1,126.0  549.8,126.0  555.5,126.0  561.3,126.0  567.0,126.0  572.8,126.0  578.5,126.0  584.3,126.0  590.0,126.0  " />
    </g>
    <g
       id="g251"
       transform="matrix(0.20447881,0,0,0.20447881,-279.86293,199.29118)">
      <polyline
         id="polyline214"
         stroke="#000000"
         stroke-width="0.5"
         fill="none"
         points=" 211.0, 62.2  325.8, 62.2  " />
      <polyline
         id="polyline216"
         stroke="#000000"
         stroke-width="0"
         fill="#000000"
         points=" 325.8, 62.2  305.8, 58.2  305.8, 66.2  " />
      <text
         id="text218"
         font-size="15.0"
         y="52.200001"
         x="211">Direction of motion</text>
      <polyline
         id="polyline220"
         stroke="#ff0000"
         stroke-width="2"
         fill="none"
         points="  10.0,126.0   15.7,126.0   21.5,126.0   27.2,126.0   33.0,126.0   38.7,126.0   44.5,126.0   50.2,126.0   55.9,126.0   61.7,126.0   67.4,126.0   73.2,126.0   78.9,126.1   84.7,126.0   90.4,126.0   96.1,126.0  101.9,126.0  107.6,126.0  113.4,126.0  119.1,126.0  124.9,126.0  130.6,126.0  136.3,126.0  142.1,125.9  147.8,126.1  153.6,126.1  159.3,126.0  165.0,125.9  170.8,125.9  176.5,126.1  182.3,126.2  188.0,126.1  193.8,125.9  199.5,125.8  205.2,125.7  211.0,125.7  216.7,125.7  222.5,126.2  228.2,127.2  234.0,129.1  239.7,131.9  245.4,135.1  251.2,138.5  256.9,142.1  262.7,145.4  268.4,148.3  274.2,150.7  279.9,152.6  285.6,154.0  291.4,154.9  297.1,155.1  302.9,154.5  308.6,153.6  314.4,152.2  320.1,150.4  325.8,147.9  331.6,144.6  337.3,140.4  343.1,135.6  348.8,130.5  354.6,125.2  360.3,120.2  366.0,115.4  371.8,111.3  377.5,107.6  383.3,104.4  389.0,101.7  394.8, 99.6  400.5, 98.3  406.2, 97.5  412.0, 97.1  417.7, 97.1  423.5, 97.7  429.2, 99.2  435.0,101.5  440.7,104.4  446.4,107.8  452.2,111.4  457.9,114.9  463.7,118.1  469.4,120.8  475.1,122.8  480.9,124.1  486.6,125.0  492.4,125.5  498.1,125.8  503.9,125.9  509.6,125.9  515.3,126.0  521.1,126.0  526.8,126.0  532.6,126.0  538.3,126.0  544.1,126.0  549.8,126.0  555.5,126.0  561.3,126.0  567.0,126.0  572.8,126.0  578.5,126.0  584.3,126.0  590.0,126.0  " />
      <polyline
         id="polyline222"
         stroke="#000000"
         stroke-width="2"
         fill="none"
         points="  10.0,126.0   15.7,126.0   21.5,126.0   27.2,126.0   33.0,126.0   38.7,126.0   44.5,126.0   50.2,126.0   55.9,126.0   61.7,126.0   67.4,126.0   73.2,126.0   78.9,126.0   84.7,126.0   90.4,126.0   96.1,126.0  101.9,126.0  107.6,126.0  113.4,126.0  119.1,126.0  124.9,126.0  130.6,126.0  136.3,126.0  142.1,126.0  147.8,126.0  153.6,126.1  159.3,126.0  165.0,125.9  170.8,125.9  176.5,126.1  182.3,126.1  188.0,125.9  193.8,125.9  199.5,125.9  205.2,126.2  211.0,126.2  216.7,126.1  222.5,125.9  228.2,125.8  234.0,125.7  239.7,125.6  245.4,125.7  251.2,126.1  256.9,127.2  262.7,129.2  268.4,131.9  274.2,135.1  279.9,138.6  285.6,142.2  291.4,145.5  297.1,148.3  302.9,150.7  308.6,152.6  314.4,154.1  320.1,154.9  325.8,155.0  331.6,154.5  337.3,153.6  343.1,152.3  348.8,150.5  354.6,148.0  360.3,144.6  366.0,140.3  371.8,135.5  377.5,130.4  383.3,125.2  389.0,120.1  394.8,115.4  400.5,111.3  406.2,107.6  412.0,104.4  417.7,101.6  423.5, 99.7  429.2, 98.4  435.0, 97.5  440.7, 97.1  446.4, 97.0  452.2, 97.7  457.9, 99.2  463.7,101.5  469.4,104.5  475.1,107.8  480.9,111.4  486.6,115.0  492.4,118.1  498.1,120.8  503.9,122.8  509.6,124.1  515.3,125.0  521.1,125.5  526.8,125.8  532.6,125.9  538.3,125.9  544.1,126.0  549.8,126.0  555.5,126.0  561.3,126.0  567.0,126.0  572.8,126.0  578.5,126.0  584.3,126.0  590.0,126.0  " />
      <polyline
         id="polyline224"
         stroke="#000000"
         stroke-width="2"
         fill="none"
         points="  10.0,126.0   15.7,126.0   21.5,126.0   27.2,126.0   33.0,126.0   38.7,126.0   44.5,126.0   50.2,126.0   55.9,126.0   61.7,126.0   67.4,126.0   73.2,126.0   78.9,126.0   84.7,126.0   90.4,126.0   96.1,126.0  101.9,126.0  107.6,126.0  113.4,126.0  119.1,126.0  124.9,126.0  130.6,126.0  136.3,126.0  142.1,126.0  147.8,126.0  153.6,126.0  159.3,126.0  165.0,126.0  170.8,125.9  176.5,126.0  182.3,126.1  188.0,126.0  193.8,125.9  199.5,126.0  205.2,126.1  211.0,126.1  216.7,125.9  222.5,125.8  228.2,126.0  234.0,126.2  239.7,126.2  245.4,126.1  251.2,125.9  256.9,125.8  262.7,125.7  268.4,125.6  274.2,125.7  279.9,126.0  285.6,127.2  291.4,129.2  297.1,131.9  302.9,135.2  308.6,138.6  314.4,142.2  320.1,145.5  325.8,148.3  331.6,150.7  337.3,152.6  343.1,154.1  348.8,154.8  354.6,154.9  360.3,154.5  366.0,153.6  371.8,152.3  377.5,150.5  383.3,148.0  389.0,144.6  394.8,140.3  400.5,135.5  406.2,130.4  412.0,125.1  417.7,120.1  423.5,115.4  429.2,111.3  435.0,107.6  440.7,104.3  446.4,101.6  452.2, 99.7  457.9, 98.4  463.7, 97.5  469.4, 97.0  475.1, 96.9  480.9, 97.7  486.6, 99.3  492.4,101.6  498.1,104.5  503.9,107.9  509.6,111.5  515.3,115.0  521.1,118.2  526.8,120.8  532.6,122.7  538.3,124.1  544.1,125.0  549.8,125.4  555.5,125.7  561.3,125.9  567.0,125.9  572.8,126.0  578.5,126.0  584.3,126.0  590.0,126.0  " />
      <polyline
         id="polyline226"
         stroke="#000000"
         stroke-width="2"
         fill="none"
         points="  10.0,126.0   15.7,126.0   21.5,126.0   27.2,126.0   33.0,126.0   38.7,126.0   44.5,126.0   50.2,126.0   55.9,126.0   61.7,126.0   67.4,126.0   73.2,126.0   78.9,126.0   84.7,126.0   90.4,126.0   96.1,126.0  101.9,126.0  107.6,126.0  113.4,126.0  119.1,126.0  124.9,126.0  130.6,126.0  136.3,126.0  142.1,126.0  147.8,126.0  153.6,126.0  159.3,126.0  165.0,126.0  170.8,126.0  176.5,126.0  182.3,126.0  188.0,126.0  193.8,125.9  199.5,125.9  205.2,126.1  211.0,126.1  216.7,125.9  222.5,125.9  228.2,126.1  234.0,126.1  239.7,126.0  245.4,125.8  251.2,125.9  256.9,126.1  262.7,126.2  268.4,126.1  274.2,126.0  279.9,125.9  285.6,125.8  291.4,125.7  297.1,125.6  302.9,125.5  308.6,125.9  314.4,127.2  320.1,129.2  325.8,132.0  331.6,135.2  337.3,138.7  343.1,142.3  348.8,145.5  354.6,148.3  360.3,150.7  366.0,152.7  371.8,154.1  377.5,154.8  383.3,154.9  389.0,154.5  394.8,153.6  400.5,152.3  406.2,150.6  412.0,148.0  417.7,144.5  423.5,140.3  429.2,135.5  435.0,130.3  440.7,125.1  446.4,120.0  452.2,115.4  457.9,111.4  463.7,107.6  469.4,104.3  475.1,101.6  480.9, 99.8  486.6, 98.4  492.4, 97.5  498.1, 96.9  503.9, 96.9  509.6, 97.7  515.3, 99.3  521.1,101.6  526.8,104.5  532.6,108.0  538.3,111.6  544.1,115.0  549.8,118.2  555.5,120.8  561.3,122.7  567.0,124.0  572.8,124.9  578.5,125.4  584.3,125.8  590.0,126.0  " />
      <polyline
         id="polyline228"
         stroke="#000000"
         stroke-width="2"
         fill="none"
         points="  10.0,126.0   15.7,126.0   21.5,126.0   27.2,126.0   33.0,126.0   38.7,126.0   44.5,126.0   50.2,126.0   55.9,126.0   61.7,126.0   67.4,126.0   73.2,126.0   78.9,126.0   84.7,126.0   90.4,126.0   96.1,126.0  101.9,126.0  107.6,126.0  113.4,125.9  119.1,126.0  124.9,126.0  130.6,126.0  136.3,126.0  142.1,126.0  147.8,126.0  153.6,126.0  159.3,126.0  165.0,126.0  170.8,126.0  176.5,126.0  182.3,126.0  188.0,126.0  193.8,126.0  199.5,126.0  205.2,126.0  211.0,126.1  216.7,126.0  222.5,125.9  228.2,126.1  234.0,126.1  239.7,126.0  245.4,125.9  251.2,125.9  256.9,126.1  262.7,126.1  268.4,125.9  274.2,125.8  279.9,125.9  285.6,126.1  291.4,126.2  297.1,126.1  302.9,126.1  308.6,125.9  314.4,125.8  320.1,125.7  325.8,125.5  331.6,125.4  337.3,125.9  343.1,127.2  348.8,129.3  354.6,132.0  360.3,135.2  366.0,138.8  371.8,142.4  377.5,145.5  383.3,148.3  389.0,150.7  394.8,152.7  400.5,154.1  406.2,154.8  412.0,154.9  417.7,154.4  423.5,153.6  429.2,152.4  435.0,150.6  440.7,148.0  446.4,144.4  452.2,140.2  457.9,135.5  463.7,130.2  469.4,125.0  475.1,120.0  480.9,115.5  486.6,111.3  492.4,107.5  498.1,104.2  503.9,101.7  509.6, 99.8  515.3, 98.5  521.1, 97.5  526.8, 96.9  532.6, 96.9  538.3, 97.7  544.1, 99.3  549.8,101.6  555.5,104.7  561.3,108.1  567.0,111.9  572.8,115.7  578.5,119.3  584.3,122.8  590.0,126.0  " />
      <polyline
         id="polyline230"
         stroke="#0000ff"
         stroke-width="2"
         fill="none"
         points="  10.0,126.0   15.7,126.0   21.5,126.0   27.2,126.0   33.0,126.0   38.7,126.0   44.5,126.0   50.2,126.0   55.9,126.0   61.7,126.0   67.4,126.0   73.2,126.0   78.9,126.0   84.7,126.0   90.4,126.0   96.1,126.0  101.9,126.0  107.6,126.0  113.4,126.0  119.1,126.0  124.9,126.0  130.6,126.0  136.3,126.0  142.1,126.0  147.8,126.0  153.6,125.9  159.3,126.0  165.0,126.0  170.8,126.0  176.5,126.0  182.3,126.0  188.0,126.0  193.8,126.0  199.5,126.0  205.2,126.0  211.0,126.0  216.7,126.0  222.5,126.0  228.2,125.9  234.0,126.1  239.7,126.0  245.4,125.9  251.2,126.0  256.9,126.1  262.7,126.1  268.4,125.9  274.2,125.9  279.9,126.0  285.6,126.1  291.4,126.1  297.1,125.9  302.9,125.8  308.6,126.0  314.4,126.1  320.1,126.1  325.8,126.1  331.6,126.0  337.3,125.9  343.1,125.8  348.8,125.7  354.6,125.4  360.3,125.4  366.0,125.9  371.8,127.3  377.5,129.4  383.3,132.0  389.0,135.3  394.8,138.9  400.5,142.4  406.2,145.5  412.0,148.3  417.7,150.8  423.5,152.7  429.2,154.1  435.0,154.8  440.7,154.9  446.4,154.4  452.2,153.7  457.9,152.5  463.7,150.7  469.4,147.9  475.1,144.4  480.9,140.2  486.6,135.4  492.4,130.2  498.1,125.0  503.9,120.0  509.6,115.6  515.3,111.3  521.1,107.5  526.8,104.3  532.6,101.9  538.3,100.2  544.1, 99.1  549.8, 98.6  555.5, 98.9  561.3,100.2  567.0,102.9  572.8,107.0  578.5,112.5  584.3,119.0  590.0,126.0  " />
    </g>
    <g
       id="g355"
       transform="matrix(0.2051991,0,0,0.2051991,-280.02997,250.79683)"
       style="display:inline">
      <polyline
         id="polyline321"
         stroke="#ff0000"
         stroke-width="2"
         fill="none"
         points="  10.0,126.0   15.7,126.0   21.5,126.0   27.2,126.0   33.0,126.0   38.7,126.0   44.5,126.0   50.2,126.0   55.9,126.0   61.7,126.0   67.4,126.0   73.2,126.0   78.9,126.0   84.7,126.0   90.4,126.0   96.1,126.0  101.9,126.0  107.6,126.0  113.4,126.0  119.1,126.0  124.9,126.0  130.6,126.0  136.3,126.0  142.1,126.0  147.8,126.0  153.6,126.1  159.3,125.9  165.0,126.0  170.8,126.0  176.5,126.0  182.3,126.0  188.0,126.0  193.8,126.0  199.5,126.0  205.2,126.0  211.0,126.0  216.7,126.0  222.5,126.0  228.2,126.0  234.0,126.0  239.7,126.0  245.4,126.0  251.2,125.9  256.9,126.0  262.7,126.1  268.4,125.9  274.2,125.9  279.9,126.0  285.6,126.1  291.4,126.1  297.1,125.9  302.9,125.9  308.6,126.1  314.4,126.1  320.1,126.0  325.8,125.8  331.6,125.9  337.3,126.0  343.1,126.1  348.8,126.2  354.6,126.1  360.3,126.0  366.0,125.9  371.8,125.8  377.5,125.6  383.3,125.3  389.0,125.3  394.8,125.9  400.5,127.3  406.2,129.3  412.0,132.1  417.7,135.5  423.5,139.0  429.2,142.4  435.0,145.5  440.7,148.3  446.4,150.8  452.2,152.7  457.9,154.1  463.7,154.8  469.4,154.8  475.1,154.4  480.9,153.7  486.6,152.6  492.4,150.7  498.1,148.0  503.9,144.6  509.6,140.5  515.3,135.9  521.1,131.2  526.8,126.9  532.6,123.4  538.3,120.8  544.1,119.0  549.8,118.2  555.5,118.5  561.3,119.6  567.0,121.2  572.8,122.8  578.5,124.1  584.3,125.1  590.0,126.0  " />
      <polyline
         id="polyline323"
         stroke="#008000"
         stroke-width="2"
         fill="none"
         points="  10.0,126.0   15.7,126.0   21.5,126.0   27.2,126.0   33.0,126.0   38.7,126.0   44.5,126.0   50.2,126.0   55.9,126.0   61.7,126.0   67.4,126.0   73.2,126.0   78.9,126.0   84.7,126.0   90.4,126.0   96.1,126.0  101.9,126.0  107.6,126.0  113.4,126.0  119.1,126.0  124.9,126.0  130.6,126.0  136.3,126.0  142.1,126.0  147.8,126.0  153.6,126.0  159.3,126.1  165.0,126.0  170.8,126.0  176.5,126.0  182.3,126.0  188.0,126.0  193.8,126.0  199.5,126.0  205.2,126.0  211.0,126.0  216.7,126.0  222.5,126.0  228.2,126.0  234.0,126.0  239.7,126.0  245.4,126.0  251.2,126.0  256.9,126.0  262.7,126.0  268.4,126.0  274.2,125.9  279.9,126.0  285.6,126.1  291.4,126.0  297.1,125.9  302.9,125.9  308.6,126.1  314.4,126.1  320.1,126.0  325.8,125.9  331.6,125.9  337.3,126.1  343.1,126.1  348.8,125.9  354.6,125.9  360.3,125.9  366.0,126.0  371.8,126.1  377.5,126.2  383.3,126.1  389.0,126.0  394.8,126.0  400.5,125.8  406.2,125.5  412.0,125.2  417.7,125.2  423.5,125.9  429.2,127.3  435.0,129.3  440.7,132.1  446.4,135.5  452.2,139.0  457.9,142.4  463.7,145.5  469.4,148.4  475.1,150.9  480.9,153.1  486.6,154.8  492.4,155.9  498.1,156.9  503.9,157.8  509.6,159.0  515.3,160.3  521.1,161.4  526.8,162.1  532.6,162.2  538.3,161.4  544.1,159.5  549.8,156.7  555.5,153.2  561.3,149.2  567.0,144.7  572.8,139.9  578.5,134.9  584.3,130.3  590.0,126.0  " />
      <polyline
         id="polyline325"
         stroke="#0000ff"
         stroke-width="2"
         fill="none"
         points="  10.0,126.0   15.7,126.0   21.5,126.0   27.2,126.0   33.0,126.0   38.7,126.0   44.5,126.0   50.2,126.0   55.9,126.0   61.7,126.0   67.4,126.0   73.2,126.0   78.9,126.0   84.7,126.0   90.4,126.0   96.1,126.0  101.9,126.0  107.6,126.0  113.4,126.0  119.1,126.0  124.9,126.0  130.6,126.0  136.3,126.0  142.1,126.0  147.8,126.0  153.6,126.0  159.3,126.0  165.0,126.0  170.8,126.0  176.5,126.0  182.3,126.1  188.0,126.0  193.8,126.0  199.5,126.0  205.2,126.0  211.0,126.0  216.7,126.0  222.5,126.0  228.2,126.0  234.0,126.0  239.7,126.0  245.4,126.0  251.2,126.0  256.9,126.0  262.7,126.0  268.4,126.0  274.2,126.0  279.9,125.9  285.6,126.0  291.4,126.1  297.1,126.0  302.9,125.9  308.6,126.0  314.4,126.1  320.1,126.0  325.8,125.9  331.6,126.0  337.3,126.1  343.1,126.1  348.8,125.9  354.6,125.9  360.3,126.1  366.0,126.2  371.8,126.1  377.5,125.9  383.3,125.9  389.0,125.9  394.8,126.1  400.5,126.1  406.2,126.1  412.0,126.1  417.7,126.1  423.5,126.0  429.2,125.9  435.0,125.5  440.7,125.2  446.4,125.5  452.2,126.3  457.9,127.9  463.7,130.6  469.4,134.4  475.1,139.0  480.9,144.3  486.6,150.1  492.4,156.2  498.1,162.5  503.9,168.6  509.6,174.0  515.3,178.4  521.1,181.3  526.8,183.0  532.6,183.6  538.3,183.1  544.1,181.3  549.8,178.2  555.5,174.0  561.3,168.5  567.0,161.8  572.8,153.8  578.5,144.8  584.3,135.4  590.0,126.0  " />
      <polyline
         id="polyline327"
         stroke="#000000"
         stroke-width="2"
         fill="none"
         points="  10.0,126.0   15.7,126.0   21.5,126.0   27.2,126.0   33.0,126.0   38.7,126.0   44.5,126.0   50.2,126.0   55.9,126.0   61.7,126.0   67.4,126.0   73.2,126.0   78.9,126.0   84.7,126.0   90.4,126.0   96.1,126.0  101.9,126.0  107.6,126.0  113.4,126.0  119.1,126.0  124.9,126.0  130.6,126.0  136.3,126.0  142.1,126.0  147.8,126.0  153.6,126.0  159.3,126.0  165.0,126.0  170.8,126.0  176.5,126.0  182.3,126.0  188.0,126.1  193.8,126.0  199.5,126.0  205.2,126.0  211.0,126.0  216.7,126.0  222.5,126.0  228.2,126.0  234.0,126.0  239.7,126.0  245.4,126.0  251.2,126.0  256.9,126.0  262.7,126.0  268.4,126.0  274.2,126.0  279.9,126.0  285.6,126.0  291.4,126.0  297.1,126.0  302.9,125.9  308.6,126.0  314.4,126.1  320.1,126.0  325.8,126.0  331.6,126.0  337.3,126.1  343.1,126.1  348.8,125.9  354.6,125.9  360.3,126.0  366.0,126.1  371.8,126.0  377.5,125.9  383.3,125.9  389.0,126.1  394.8,126.1  400.5,126.1  406.2,126.0  412.0,125.9  417.7,126.1  423.5,126.5  429.2,126.8  435.0,127.3  440.7,128.1  446.4,129.5  452.2,131.3  457.9,133.5  463.7,136.0  469.4,139.2  475.1,142.9  480.9,147.1  486.6,151.4  492.4,156.0  498.1,160.6  503.9,164.8  509.6,168.3  515.3,171.1  521.1,173.1  526.8,174.4  532.6,175.0  538.3,174.5  544.1,172.7  549.8,169.6  555.5,165.3  561.3,160.4  567.0,154.9  572.8,148.7  578.5,141.6  584.3,133.9  590.0,126.0  " />
      <polyline
         id="polyline329"
         stroke="#000000"
         stroke-width="2"
         fill="none"
         points="  10.0,126.0   15.7,126.0   21.5,126.0   27.2,126.0   33.0,126.0   38.7,126.0   44.5,126.0   50.2,126.0   55.9,126.0   61.7,126.0   67.4,126.0   73.2,126.0   78.9,126.0   84.7,126.0   90.4,126.0   96.1,126.0  101.9,126.0  107.6,126.0  113.4,126.0  119.1,126.0  124.9,126.0  130.6,126.0  136.3,126.0  142.1,126.0  147.8,126.0  153.6,126.0  159.3,126.0  165.0,126.0  170.8,126.0  176.5,126.0  182.3,126.0  188.0,125.9  193.8,126.0  199.5,126.0  205.2,126.0  211.0,126.0  216.7,126.0  222.5,126.0  228.2,126.0  234.0,126.0  239.7,126.0  245.4,126.0  251.2,126.0  256.9,126.0  262.7,126.0  268.4,126.0  274.2,126.0  279.9,126.0  285.6,126.0  291.4,126.0  297.1,126.0  302.9,126.0  308.6,126.0  314.4,126.0  320.1,126.1  325.8,126.0  331.6,126.0  337.3,126.0  343.1,126.0  348.8,126.0  354.6,125.9  360.3,126.0  366.0,126.1  371.8,126.1  377.5,126.0  383.3,126.1  389.0,126.3  394.8,126.5  400.5,126.6  406.2,127.2  412.0,128.1  417.7,129.5  423.5,131.3  429.2,133.7  435.0,136.5  440.7,139.9  446.4,143.6  452.2,147.2  457.9,150.3  463.7,152.7  469.4,154.4  475.1,155.3  480.9,155.3  486.6,154.5  492.4,152.9  498.1,151.2  503.9,149.3  509.6,147.5  515.3,145.9  521.1,144.4  526.8,143.1  532.6,141.6  538.3,140.2  544.1,138.5  549.8,136.6  555.5,134.5  561.3,132.6  567.0,130.9  572.8,129.4  578.5,128.0  584.3,126.8  590.0,126.0  " />
      <polyline
         id="polyline331"
         stroke="#000000"
         stroke-width="2"
         fill="none"
         points="  10.0,126.0   15.7,126.0   21.5,126.0   27.2,126.0   33.0,126.0   38.7,126.0   44.5,126.0   50.2,126.0   55.9,126.0   61.7,126.0   67.4,126.0   73.2,126.0   78.9,126.0   84.7,126.0   90.4,126.0   96.1,126.0  101.9,126.0  107.6,126.0  113.4,126.0  119.1,126.0  124.9,126.0  130.6,126.0  136.3,126.0  142.1,126.0  147.8,126.0  153.6,126.0  159.3,126.0  165.0,126.0  170.8,126.0  176.5,126.0  182.3,126.0  188.0,126.0  193.8,126.0  199.5,126.0  205.2,126.0  211.0,126.0  216.7,126.0  222.5,126.0  228.2,126.0  234.0,126.0  239.7,126.0  245.4,126.0  251.2,126.0  256.9,126.0  262.7,126.0  268.4,126.0  274.2,126.0  279.9,126.0  285.6,126.0  291.4,126.0  297.1,126.0  302.9,126.0  308.6,126.0  314.4,126.0  320.1,126.0  325.8,126.1  331.6,126.0  337.3,126.0  343.1,126.1  348.8,126.1  354.6,126.1  360.3,126.2  366.0,126.4  371.8,126.8  377.5,127.3  383.3,128.1  389.0,129.5  394.8,131.3  400.5,133.7  406.2,136.5  412.0,139.9  417.7,143.7  423.5,147.1  429.2,150.0  435.0,152.5  440.7,154.3  446.4,155.3  452.2,155.4  457.9,154.7  463.7,153.5  469.4,151.9  475.1,150.1  480.9,147.8  486.6,144.7  492.4,141.0  498.1,136.8  503.9,132.1  509.6,127.1  515.3,121.8  521.1,116.4  526.8,111.3  532.6,106.9  538.3,103.8  544.1,102.5  549.8,102.9  555.5,104.5  561.3,107.1  567.0,110.3  572.8,113.9  578.5,117.5  584.3,121.6  590.0,126.0  " />
    </g>
  </g>
  <style
     id="style1482">*{font-family:Noto Serif;font-style:italic;font-size:10px}</style>
</svg>
