<?xml version="1.0" encoding="ISO-8859-1" standalone="no" ?>
<!DOCTYPE svg PUBLIC "-//W3C//DTD SVG 20010904//EN"
 "http://www.w3.org/TR/2001/REC-SVG-20010904/DTD/svg10.dtd">
<svg xmlns="http://www.w3.org/2000/svg"
 xmlns:xlink="http://www.w3.org/1999/xlink"
 width= "600.0" height= "252.0">
<polyline points="
  0.0,  0.0 
  0.0,252.0 
600.0,252.0 
600.0,  0.0 
  0.0,  0.0 
" fill="none"   stroke-width=   "1.0" stroke="black"  />
<polyline points="
 10.0,242.0 
 10.0, 10.0 
590.0, 10.0 
590.0,242.0 
 10.0,242.0 
" fill="none"   stroke-width=   "1.0" stroke="black"  />
<polyline points="
211.0, 62.2 
325.8, 62.2 
" fill="none"   stroke-width=   "0.5" stroke="black"  />
<polyline points="
325.8, 62.2 
305.8, 58.2 
305.8, 66.2 
" fill="black"  stroke-width=   "0.0" stroke="black"  />
<text x =  "211.0" y =   "52.2"
 font-size =   "15.0">
Direction of motion                     </text>
<polyline points="
 10.0,126.0 
 15.7,126.1 
 21.5,126.2 
 27.2,125.9 
 33.0,125.7 
 38.7,125.7 
 44.5,125.9 
 50.2,126.5 
 55.9,127.5 
 61.7,129.1 
 67.4,131.5 
 73.2,134.6 
 78.9,138.2 
 84.7,141.8 
 90.4,145.3 
 96.1,148.2 
101.9,150.7 
107.6,152.6 
113.4,154.0 
119.1,154.8 
124.9,154.9 
130.6,154.7 
136.3,153.8 
142.1,152.2 
147.8,150.1 
153.6,147.7 
159.3,144.6 
165.0,140.7 
170.8,136.0 
176.5,130.8 
182.3,125.5 
188.0,120.4 
193.8,115.6 
199.5,111.3 
205.2,107.6 
211.0,104.4 
216.7,101.8 
222.5, 99.8 
228.2, 98.2 
234.0, 97.3 
239.7, 97.1 
245.4, 97.3 
251.2, 98.0 
256.9, 99.2 
262.7,101.2 
268.4,104.0 
274.2,107.5 
279.9,111.1 
285.6,114.6 
291.4,117.8 
297.1,120.7 
302.9,122.8 
308.6,124.3 
314.4,125.2 
320.1,125.7 
325.8,125.9 
331.6,125.9 
337.3,126.0 
343.1,126.0 
348.8,126.0 
354.6,126.0 
360.3,126.0 
366.0,126.0 
371.8,126.0 
377.5,126.0 
383.3,126.0 
389.0,126.0 
394.8,126.0 
400.5,126.0 
406.2,126.0 
412.0,126.0 
417.7,126.0 
423.5,126.0 
429.2,126.0 
435.0,126.0 
440.7,126.0 
446.4,126.0 
452.2,126.0 
457.9,126.0 
463.7,126.0 
469.4,126.0 
475.1,126.0 
480.9,126.0 
486.6,126.0 
492.4,126.0 
498.1,126.0 
503.9,126.0 
509.6,126.0 
515.3,126.0 
521.1,126.0 
526.8,126.0 
532.6,126.0 
538.3,126.0 
544.1,126.0 
549.8,126.0 
555.5,126.0 
561.3,126.0 
567.0,126.0 
572.8,126.0 
578.5,126.0 
584.3,126.0 
590.0,126.0 
" fill="none"   stroke-width=   "2.0" stroke="red"    />
<polyline points="
 10.0,126.0 
 15.7,126.1 
 21.5,126.0 
 27.2,126.0 
 33.0,125.9 
 38.7,125.9 
 44.5,126.1 
 50.2,126.2 
 55.9,125.9 
 61.7,125.7 
 67.4,125.7 
 73.2,125.9 
 78.9,126.5 
 84.7,127.4 
 90.4,129.0 
 96.1,131.5 
101.9,134.8 
107.6,138.2 
113.4,141.9 
119.1,145.3 
124.9,148.2 
130.6,150.7 
136.3,152.7 
142.1,154.0 
147.8,154.7 
153.6,155.0 
159.3,154.7 
165.0,153.7 
170.8,152.2 
176.5,150.2 
182.3,147.8 
188.0,144.6 
193.8,140.7 
199.5,136.0 
205.2,130.8 
211.0,125.5 
216.7,120.3 
222.5,115.6 
228.2,111.3 
234.0,107.6 
239.7,104.4 
245.4,101.8 
251.2, 99.7 
256.9, 98.2 
262.7, 97.3 
268.4, 97.1 
274.2, 97.3 
279.9, 97.9 
285.6, 99.1 
291.4,101.2 
297.1,104.1 
302.9,107.6 
308.6,111.2 
314.4,114.6 
320.1,117.9 
325.8,120.7 
331.6,122.8 
337.3,124.3 
343.1,125.1 
348.8,125.7 
354.6,125.8 
360.3,125.9 
366.0,126.0 
371.8,126.0 
377.5,126.0 
383.3,126.0 
389.0,126.0 
394.8,126.0 
400.5,126.0 
406.2,126.0 
412.0,126.0 
417.7,126.0 
423.5,126.0 
429.2,126.0 
435.0,126.0 
440.7,126.0 
446.4,126.0 
452.2,126.0 
457.9,126.0 
463.7,126.0 
469.4,126.0 
475.1,126.0 
480.9,126.0 
486.6,126.0 
492.4,126.0 
498.1,126.0 
503.9,126.0 
509.6,126.0 
515.3,126.0 
521.1,126.0 
526.8,126.0 
532.6,126.0 
538.3,126.0 
544.1,126.0 
549.8,126.0 
555.5,126.0 
561.3,126.0 
567.0,126.0 
572.8,126.0 
578.5,126.0 
584.3,126.0 
590.0,126.0 
" fill="none"   stroke-width=   "2.0" stroke="black"  />
<polyline points="
 10.0,126.0 
 15.7,126.0 
 21.5,126.0 
 27.2,126.0 
 33.0,126.0 
 38.7,126.0 
 44.5,126.0 
 50.2,126.0 
 55.9,126.0 
 61.7,125.9 
 67.4,126.0 
 73.2,126.2 
 78.9,126.1 
 84.7,125.8 
 90.4,125.7 
 96.1,125.7 
101.9,125.9 
107.6,126.4 
113.4,127.3 
119.1,129.1 
124.9,131.6 
130.6,134.8 
136.3,138.4 
142.1,142.0 
147.8,145.3 
153.6,148.2 
159.3,150.7 
165.0,152.6 
170.8,154.0 
176.5,154.7 
182.3,155.1 
188.0,154.7 
193.8,153.7 
199.5,152.2 
205.2,150.2 
211.0,147.8 
216.7,144.7 
222.5,140.6 
228.2,135.9 
234.0,130.8 
239.7,125.4 
245.4,120.3 
251.2,115.6 
256.9,111.3 
262.7,107.6 
268.4,104.4 
274.2,101.8 
279.9, 99.7 
285.6, 98.2 
291.4, 97.3 
297.1, 97.1 
302.9, 97.3 
308.6, 97.9 
314.4, 99.1 
320.1,101.3 
325.8,104.2 
331.6,107.6 
337.3,111.2 
343.1,114.7 
348.8,117.9 
354.6,120.7 
360.3,122.8 
366.0,124.3 
371.8,125.1 
377.5,125.6 
383.3,125.8 
389.0,125.9 
394.8,126.0 
400.5,126.0 
406.2,126.0 
412.0,126.0 
417.7,126.0 
423.5,126.0 
429.2,126.0 
435.0,126.0 
440.7,126.0 
446.4,126.0 
452.2,126.0 
457.9,126.0 
463.7,126.0 
469.4,126.0 
475.1,126.0 
480.9,126.0 
486.6,126.0 
492.4,126.0 
498.1,126.0 
503.9,126.0 
509.6,126.0 
515.3,126.0 
521.1,126.0 
526.8,126.0 
532.6,126.0 
538.3,126.0 
544.1,126.0 
549.8,126.0 
555.5,126.0 
561.3,126.0 
567.0,126.0 
572.8,126.0 
578.5,126.0 
584.3,126.0 
590.0,126.0 
" fill="none"   stroke-width=   "2.0" stroke="black"  />
<polyline points="
 10.0,126.0 
 15.7,125.9 
 21.5,126.1 
 27.2,126.0 
 33.0,126.0 
 38.7,126.0 
 44.5,126.0 
 50.2,126.0 
 55.9,126.0 
 61.7,126.0 
 67.4,126.0 
 73.2,126.1 
 78.9,126.0 
 84.7,125.9 
 90.4,125.9 
 96.1,126.1 
101.9,126.2 
107.6,126.0 
113.4,125.8 
119.1,125.7 
124.9,125.7 
130.6,125.9 
136.3,126.3 
142.1,127.3 
147.8,129.1 
153.6,131.6 
159.3,134.8 
165.0,138.5 
170.8,142.0 
176.5,145.3 
182.3,148.3 
188.0,150.8 
193.8,152.6 
199.5,153.9 
205.2,154.8 
211.0,155.1 
216.7,154.7 
222.5,153.7 
228.2,152.2 
234.0,150.2 
239.7,147.9 
245.4,144.6 
251.2,140.6 
256.9,135.9 
262.7,130.6 
268.4,125.4 
274.2,120.3 
279.9,115.6 
285.6,111.3 
291.4,107.6 
297.1,104.4 
302.9,101.8 
308.6, 99.7 
314.4, 98.2 
320.1, 97.4 
325.8, 97.2 
331.6, 97.2 
337.3, 97.8 
343.1, 99.1 
348.8,101.4 
354.6,104.3 
360.3,107.7 
366.0,111.2 
371.8,114.7 
377.5,118.0 
383.3,120.7 
389.0,122.8 
394.8,124.2 
400.5,125.1 
406.2,125.6 
412.0,125.8 
417.7,125.9 
423.5,125.9 
429.2,126.0 
435.0,126.0 
440.7,126.0 
446.4,126.0 
452.2,126.0 
457.9,126.0 
463.7,126.0 
469.4,126.0 
475.1,126.0 
480.9,126.0 
486.6,126.0 
492.4,126.0 
498.1,126.0 
503.9,126.0 
509.6,126.0 
515.3,126.0 
521.1,126.0 
526.8,126.0 
532.6,126.0 
538.3,126.0 
544.1,126.0 
549.8,126.0 
555.5,126.0 
561.3,126.0 
567.0,126.0 
572.8,126.0 
578.5,126.0 
584.3,126.0 
590.0,126.0 
" fill="none"   stroke-width=   "2.0" stroke="black"  />
<polyline points="
 10.0,126.0 
 15.7,126.1 
 21.5,125.9 
 27.2,126.0 
 33.0,126.0 
 38.7,126.0 
 44.5,126.0 
 50.2,126.0 
 55.9,126.0 
 61.7,126.0 
 67.4,126.0 
 73.2,126.0 
 78.9,126.0 
 84.7,126.0 
 90.4,126.0 
 96.1,126.0 
101.9,126.1 
107.6,126.0 
113.4,125.9 
119.1,125.9 
124.9,126.2 
130.6,126.2 
136.3,126.0 
142.1,125.8 
147.8,125.7 
153.6,125.7 
159.3,125.9 
165.0,126.2 
170.8,127.3 
176.5,129.1 
182.3,131.7 
188.0,134.9 
193.8,138.5 
199.5,142.0 
205.2,145.3 
211.0,148.3 
216.7,150.8 
222.5,152.6 
228.2,154.0 
234.0,154.8 
239.7,155.1 
245.4,154.7 
251.2,153.6 
256.9,152.2 
262.7,150.4 
268.4,147.9 
274.2,144.6 
279.9,140.6 
285.6,135.7 
291.4,130.5 
297.1,125.4 
302.9,120.3 
308.6,115.5 
314.4,111.3 
320.1,107.6 
325.8,104.4 
331.6,101.8 
337.3, 99.6 
343.1, 98.2 
348.8, 97.5 
354.6, 97.2 
360.3, 97.2 
366.0, 97.8 
371.8, 99.1 
377.5,101.4 
383.3,104.3 
389.0,107.7 
394.8,111.3 
400.5,114.8 
406.2,118.1 
412.0,120.7 
417.7,122.8 
423.5,124.2 
429.2,125.1 
435.0,125.5 
440.7,125.8 
446.4,125.9 
452.2,125.9 
457.9,126.0 
463.7,126.0 
469.4,126.0 
475.1,126.0 
480.9,126.0 
486.6,126.0 
492.4,126.0 
498.1,126.0 
503.9,126.0 
509.6,126.0 
515.3,126.0 
521.1,126.0 
526.8,126.0 
532.6,126.0 
538.3,126.0 
544.1,126.0 
549.8,126.0 
555.5,126.0 
561.3,126.0 
567.0,126.0 
572.8,126.0 
578.5,126.0 
584.3,126.0 
590.0,126.0 
" fill="none"   stroke-width=   "2.0" stroke="black"  />
<polyline points="
 10.0,126.0 
 15.7,126.0 
 21.5,126.1 
 27.2,126.0 
 33.0,126.0 
 38.7,126.0 
 44.5,126.0 
 50.2,126.0 
 55.9,126.0 
 61.7,126.0 
 67.4,126.0 
 73.2,126.0 
 78.9,126.0 
 84.7,126.0 
 90.4,126.0 
 96.1,126.0 
101.9,126.0 
107.6,126.0 
113.4,125.9 
119.1,126.0 
124.9,126.1 
130.6,126.1 
136.3,125.9 
142.1,125.9 
147.8,126.0 
153.6,126.2 
159.3,126.1 
165.0,125.9 
170.8,125.7 
176.5,125.7 
182.3,125.7 
188.0,125.8 
193.8,126.2 
199.5,127.3 
205.2,129.1 
211.0,131.7 
216.7,135.0 
222.5,138.5 
228.2,142.0 
234.0,145.4 
239.7,148.3 
245.4,150.7 
251.2,152.6 
256.9,154.0 
262.7,154.8 
268.4,155.1 
274.2,154.6 
279.9,153.6 
285.6,152.2 
291.4,150.4 
297.1,147.9 
302.9,144.6 
308.6,140.5 
314.4,135.6 
320.1,130.5 
325.8,125.3 
331.6,120.2 
337.3,115.5 
343.1,111.3 
348.8,107.6 
354.6,104.4 
360.3,101.7 
366.0, 99.6 
371.8, 98.3 
377.5, 97.5 
383.3, 97.1 
389.0, 97.1 
394.8, 97.7 
400.5, 99.1 
406.2,101.5 
412.0,104.4 
417.7,107.7 
423.5,111.3 
429.2,114.9 
435.0,118.1 
440.7,120.7 
446.4,122.8 
452.2,124.1 
457.9,125.0 
463.7,125.5 
469.4,125.8 
475.1,125.9 
480.9,125.9 
486.6,126.0 
492.4,126.0 
498.1,126.0 
503.9,126.0 
509.6,126.0 
515.3,126.0 
521.1,126.0 
526.8,126.0 
532.6,126.0 
538.3,126.0 
544.1,126.0 
549.8,126.0 
555.5,126.0 
561.3,126.0 
567.0,126.0 
572.8,126.0 
578.5,126.0 
584.3,126.0 
590.0,126.0 
" fill="none"   stroke-width=   "2.0" stroke="blue"   />
</svg>
