<?xml version="1.0" encoding="ISO-8859-1" standalone="no" ?>
<!DOCTYPE svg PUBLIC "-//W3C//DTD SVG 20010904//EN"
 "http://www.w3.org/TR/2001/REC-SVG-20010904/DTD/svg10.dtd">
<svg xmlns="http://www.w3.org/2000/svg"
 xmlns:xlink="http://www.w3.org/1999/xlink"
 width= "600.0" height= "252.0">
<polyline points="
  0.0,  0.0 
  0.0,252.0 
600.0,252.0 
600.0,  0.0 
  0.0,  0.0 
" fill="none"   stroke-width=   "1.0" stroke="black"  />
<polyline points="
 10.0,242.0 
 10.0, 10.0 
590.0, 10.0 
590.0,242.0 
 10.0,242.0 
" fill="none"   stroke-width=   "1.0" stroke="black"  />
<text x =   "61.0" y =   "52.2"
 font-size =   "15.0">
Red - Time 1                            </text>
<text x =  "211.0" y =   "52.2"
 font-size =   "15.0">
Green - Time 2                          </text>
<text x =  "361.0" y =   "52.2"
 font-size =   "15.0">
Blue - Time 3                           </text>
<text x =   "61.0" y =   "72.2"
 font-size =   "15.0">
Black - Time 4                          </text>
<text x =  "211.0" y =   "72.2"
 font-size =   "15.0">
Black - Time 5                          </text>
<text x =  "361.0" y =   "72.2"
 font-size =   "15.0">
Black - Time 6                          </text>
<polyline points="
 10.0,126.0 
 15.7,126.0 
 21.5,126.0 
 27.2,126.0 
 33.0,126.0 
 38.7,126.0 
 44.5,126.0 
 50.2,126.0 
 55.9,126.0 
 61.7,126.0 
 67.4,126.0 
 73.2,126.0 
 78.9,126.0 
 84.7,126.0 
 90.4,126.0 
 96.1,126.0 
101.9,126.0 
107.6,126.0 
113.4,126.0 
119.1,126.0 
124.9,126.0 
130.6,126.0 
136.3,126.0 
142.1,126.0 
147.8,126.0 
153.6,126.1 
159.3,125.9 
165.0,126.0 
170.8,126.0 
176.5,126.0 
182.3,126.0 
188.0,126.0 
193.8,126.0 
199.5,126.0 
205.2,126.0 
211.0,126.0 
216.7,126.0 
222.5,126.0 
228.2,126.0 
234.0,126.0 
239.7,126.0 
245.4,126.0 
251.2,125.9 
256.9,126.0 
262.7,126.1 
268.4,125.9 
274.2,125.9 
279.9,126.0 
285.6,126.1 
291.4,126.1 
297.1,125.9 
302.9,125.9 
308.6,126.1 
314.4,126.1 
320.1,126.0 
325.8,125.8 
331.6,125.9 
337.3,126.0 
343.1,126.1 
348.8,126.2 
354.6,126.1 
360.3,126.0 
366.0,125.9 
371.8,125.8 
377.5,125.6 
383.3,125.3 
389.0,125.3 
394.8,125.9 
400.5,127.3 
406.2,129.3 
412.0,132.1 
417.7,135.5 
423.5,139.0 
429.2,142.4 
435.0,145.5 
440.7,148.3 
446.4,150.8 
452.2,152.7 
457.9,154.1 
463.7,154.8 
469.4,154.8 
475.1,154.4 
480.9,153.7 
486.6,152.6 
492.4,150.7 
498.1,148.0 
503.9,144.6 
509.6,140.5 
515.3,135.9 
521.1,131.2 
526.8,126.9 
532.6,123.4 
538.3,120.8 
544.1,119.0 
549.8,118.2 
555.5,118.5 
561.3,119.6 
567.0,121.2 
572.8,122.8 
578.5,124.1 
584.3,125.1 
590.0,126.0 
" fill="none"   stroke-width=   "2.0" stroke="red"    />
<polyline points="
 10.0,126.0 
 15.7,126.0 
 21.5,126.0 
 27.2,126.0 
 33.0,126.0 
 38.7,126.0 
 44.5,126.0 
 50.2,126.0 
 55.9,126.0 
 61.7,126.0 
 67.4,126.0 
 73.2,126.0 
 78.9,126.0 
 84.7,126.0 
 90.4,126.0 
 96.1,126.0 
101.9,126.0 
107.6,126.0 
113.4,126.0 
119.1,126.0 
124.9,126.0 
130.6,126.0 
136.3,126.0 
142.1,126.0 
147.8,126.0 
153.6,126.0 
159.3,126.1 
165.0,126.0 
170.8,126.0 
176.5,126.0 
182.3,126.0 
188.0,126.0 
193.8,126.0 
199.5,126.0 
205.2,126.0 
211.0,126.0 
216.7,126.0 
222.5,126.0 
228.2,126.0 
234.0,126.0 
239.7,126.0 
245.4,126.0 
251.2,126.0 
256.9,126.0 
262.7,126.0 
268.4,126.0 
274.2,125.9 
279.9,126.0 
285.6,126.1 
291.4,126.0 
297.1,125.9 
302.9,125.9 
308.6,126.1 
314.4,126.1 
320.1,126.0 
325.8,125.9 
331.6,125.9 
337.3,126.1 
343.1,126.1 
348.8,125.9 
354.6,125.9 
360.3,125.9 
366.0,126.0 
371.8,126.1 
377.5,126.2 
383.3,126.1 
389.0,126.0 
394.8,126.0 
400.5,125.8 
406.2,125.5 
412.0,125.2 
417.7,125.2 
423.5,125.9 
429.2,127.3 
435.0,129.3 
440.7,132.1 
446.4,135.5 
452.2,139.0 
457.9,142.4 
463.7,145.5 
469.4,148.4 
475.1,150.9 
480.9,153.1 
486.6,154.8 
492.4,155.9 
498.1,156.9 
503.9,157.8 
509.6,159.0 
515.3,160.3 
521.1,161.4 
526.8,162.1 
532.6,162.2 
538.3,161.4 
544.1,159.5 
549.8,156.7 
555.5,153.2 
561.3,149.2 
567.0,144.7 
572.8,139.9 
578.5,134.9 
584.3,130.3 
590.0,126.0 
" fill="none"   stroke-width=   "2.0" stroke="green"  />
<polyline points="
 10.0,126.0 
 15.7,126.0 
 21.5,126.0 
 27.2,126.0 
 33.0,126.0 
 38.7,126.0 
 44.5,126.0 
 50.2,126.0 
 55.9,126.0 
 61.7,126.0 
 67.4,126.0 
 73.2,126.0 
 78.9,126.0 
 84.7,126.0 
 90.4,126.0 
 96.1,126.0 
101.9,126.0 
107.6,126.0 
113.4,126.0 
119.1,126.0 
124.9,126.0 
130.6,126.0 
136.3,126.0 
142.1,126.0 
147.8,126.0 
153.6,126.0 
159.3,126.0 
165.0,126.0 
170.8,126.0 
176.5,126.0 
182.3,126.1 
188.0,126.0 
193.8,126.0 
199.5,126.0 
205.2,126.0 
211.0,126.0 
216.7,126.0 
222.5,126.0 
228.2,126.0 
234.0,126.0 
239.7,126.0 
245.4,126.0 
251.2,126.0 
256.9,126.0 
262.7,126.0 
268.4,126.0 
274.2,126.0 
279.9,125.9 
285.6,126.0 
291.4,126.1 
297.1,126.0 
302.9,125.9 
308.6,126.0 
314.4,126.1 
320.1,126.0 
325.8,125.9 
331.6,126.0 
337.3,126.1 
343.1,126.1 
348.8,125.9 
354.6,125.9 
360.3,126.1 
366.0,126.2 
371.8,126.1 
377.5,125.9 
383.3,125.9 
389.0,125.9 
394.8,126.1 
400.5,126.1 
406.2,126.1 
412.0,126.1 
417.7,126.1 
423.5,126.0 
429.2,125.9 
435.0,125.5 
440.7,125.2 
446.4,125.5 
452.2,126.3 
457.9,127.9 
463.7,130.6 
469.4,134.4 
475.1,139.0 
480.9,144.3 
486.6,150.1 
492.4,156.2 
498.1,162.5 
503.9,168.6 
509.6,174.0 
515.3,178.4 
521.1,181.3 
526.8,183.0 
532.6,183.6 
538.3,183.1 
544.1,181.3 
549.8,178.2 
555.5,174.0 
561.3,168.5 
567.0,161.8 
572.8,153.8 
578.5,144.8 
584.3,135.4 
590.0,126.0 
" fill="none"   stroke-width=   "2.0" stroke="blue"   />
<polyline points="
 10.0,126.0 
 15.7,126.0 
 21.5,126.0 
 27.2,126.0 
 33.0,126.0 
 38.7,126.0 
 44.5,126.0 
 50.2,126.0 
 55.9,126.0 
 61.7,126.0 
 67.4,126.0 
 73.2,126.0 
 78.9,126.0 
 84.7,126.0 
 90.4,126.0 
 96.1,126.0 
101.9,126.0 
107.6,126.0 
113.4,126.0 
119.1,126.0 
124.9,126.0 
130.6,126.0 
136.3,126.0 
142.1,126.0 
147.8,126.0 
153.6,126.0 
159.3,126.0 
165.0,126.0 
170.8,126.0 
176.5,126.0 
182.3,126.0 
188.0,126.1 
193.8,126.0 
199.5,126.0 
205.2,126.0 
211.0,126.0 
216.7,126.0 
222.5,126.0 
228.2,126.0 
234.0,126.0 
239.7,126.0 
245.4,126.0 
251.2,126.0 
256.9,126.0 
262.7,126.0 
268.4,126.0 
274.2,126.0 
279.9,126.0 
285.6,126.0 
291.4,126.0 
297.1,126.0 
302.9,125.9 
308.6,126.0 
314.4,126.1 
320.1,126.0 
325.8,126.0 
331.6,126.0 
337.3,126.1 
343.1,126.1 
348.8,125.9 
354.6,125.9 
360.3,126.0 
366.0,126.1 
371.8,126.0 
377.5,125.9 
383.3,125.9 
389.0,126.1 
394.8,126.1 
400.5,126.1 
406.2,126.0 
412.0,125.9 
417.7,126.1 
423.5,126.5 
429.2,126.8 
435.0,127.3 
440.7,128.1 
446.4,129.5 
452.2,131.3 
457.9,133.5 
463.7,136.0 
469.4,139.2 
475.1,142.9 
480.9,147.1 
486.6,151.4 
492.4,156.0 
498.1,160.6 
503.9,164.8 
509.6,168.3 
515.3,171.1 
521.1,173.1 
526.8,174.4 
532.6,175.0 
538.3,174.5 
544.1,172.7 
549.8,169.6 
555.5,165.3 
561.3,160.4 
567.0,154.9 
572.8,148.7 
578.5,141.6 
584.3,133.9 
590.0,126.0 
" fill="none"   stroke-width=   "2.0" stroke="black"  />
<polyline points="
 10.0,126.0 
 15.7,126.0 
 21.5,126.0 
 27.2,126.0 
 33.0,126.0 
 38.7,126.0 
 44.5,126.0 
 50.2,126.0 
 55.9,126.0 
 61.7,126.0 
 67.4,126.0 
 73.2,126.0 
 78.9,126.0 
 84.7,126.0 
 90.4,126.0 
 96.1,126.0 
101.9,126.0 
107.6,126.0 
113.4,126.0 
119.1,126.0 
124.9,126.0 
130.6,126.0 
136.3,126.0 
142.1,126.0 
147.8,126.0 
153.6,126.0 
159.3,126.0 
165.0,126.0 
170.8,126.0 
176.5,126.0 
182.3,126.0 
188.0,125.9 
193.8,126.0 
199.5,126.0 
205.2,126.0 
211.0,126.0 
216.7,126.0 
222.5,126.0 
228.2,126.0 
234.0,126.0 
239.7,126.0 
245.4,126.0 
251.2,126.0 
256.9,126.0 
262.7,126.0 
268.4,126.0 
274.2,126.0 
279.9,126.0 
285.6,126.0 
291.4,126.0 
297.1,126.0 
302.9,126.0 
308.6,126.0 
314.4,126.0 
320.1,126.1 
325.8,126.0 
331.6,126.0 
337.3,126.0 
343.1,126.0 
348.8,126.0 
354.6,125.9 
360.3,126.0 
366.0,126.1 
371.8,126.1 
377.5,126.0 
383.3,126.1 
389.0,126.3 
394.8,126.5 
400.5,126.6 
406.2,127.2 
412.0,128.1 
417.7,129.5 
423.5,131.3 
429.2,133.7 
435.0,136.5 
440.7,139.9 
446.4,143.6 
452.2,147.2 
457.9,150.3 
463.7,152.7 
469.4,154.4 
475.1,155.3 
480.9,155.3 
486.6,154.5 
492.4,152.9 
498.1,151.2 
503.9,149.3 
509.6,147.5 
515.3,145.9 
521.1,144.4 
526.8,143.1 
532.6,141.6 
538.3,140.2 
544.1,138.5 
549.8,136.6 
555.5,134.5 
561.3,132.6 
567.0,130.9 
572.8,129.4 
578.5,128.0 
584.3,126.8 
590.0,126.0 
" fill="none"   stroke-width=   "2.0" stroke="black"  />
<polyline points="
 10.0,126.0 
 15.7,126.0 
 21.5,126.0 
 27.2,126.0 
 33.0,126.0 
 38.7,126.0 
 44.5,126.0 
 50.2,126.0 
 55.9,126.0 
 61.7,126.0 
 67.4,126.0 
 73.2,126.0 
 78.9,126.0 
 84.7,126.0 
 90.4,126.0 
 96.1,126.0 
101.9,126.0 
107.6,126.0 
113.4,126.0 
119.1,126.0 
124.9,126.0 
130.6,126.0 
136.3,126.0 
142.1,126.0 
147.8,126.0 
153.6,126.0 
159.3,126.0 
165.0,126.0 
170.8,126.0 
176.5,126.0 
182.3,126.0 
188.0,126.0 
193.8,126.0 
199.5,126.0 
205.2,126.0 
211.0,126.0 
216.7,126.0 
222.5,126.0 
228.2,126.0 
234.0,126.0 
239.7,126.0 
245.4,126.0 
251.2,126.0 
256.9,126.0 
262.7,126.0 
268.4,126.0 
274.2,126.0 
279.9,126.0 
285.6,126.0 
291.4,126.0 
297.1,126.0 
302.9,126.0 
308.6,126.0 
314.4,126.0 
320.1,126.0 
325.8,126.1 
331.6,126.0 
337.3,126.0 
343.1,126.1 
348.8,126.1 
354.6,126.1 
360.3,126.2 
366.0,126.4 
371.8,126.8 
377.5,127.3 
383.3,128.1 
389.0,129.5 
394.8,131.3 
400.5,133.7 
406.2,136.5 
412.0,139.9 
417.7,143.7 
423.5,147.1 
429.2,150.0 
435.0,152.5 
440.7,154.3 
446.4,155.3 
452.2,155.4 
457.9,154.7 
463.7,153.5 
469.4,151.9 
475.1,150.1 
480.9,147.8 
486.6,144.7 
492.4,141.0 
498.1,136.8 
503.9,132.1 
509.6,127.1 
515.3,121.8 
521.1,116.4 
526.8,111.3 
532.6,106.9 
538.3,103.8 
544.1,102.5 
549.8,102.9 
555.5,104.5 
561.3,107.1 
567.0,110.3 
572.8,113.9 
578.5,117.5 
584.3,121.6 
590.0,126.0 
" fill="none"   stroke-width=   "2.0" stroke="black"  />
</svg>
