<?xml version="1.0" encoding="ISO-8859-1" standalone="no" ?>
<!DOCTYPE svg PUBLIC "-//W3C//DTD SVG 20010904//EN"
 "http://www.w3.org/TR/2001/REC-SVG-20010904/DTD/svg10.dtd">
<svg xmlns="http://www.w3.org/2000/svg"
 xmlns:xlink="http://www.w3.org/1999/xlink"
 width= "600.0" height= "252.0">
<polyline points="
  0.0,  0.0 
  0.0,252.0 
600.0,252.0 
600.0,  0.0 
  0.0,  0.0 
" fill="none"   stroke-width=   "1.0" stroke="black"  />
<polyline points="
 10.0,242.0 
 10.0, 10.0 
590.0, 10.0 
590.0,242.0 
 10.0,242.0 
" fill="none"   stroke-width=   "1.0" stroke="black"  />
<polyline points="
211.0, 62.2 
325.8, 62.2 
" fill="none"   stroke-width=   "0.5" stroke="black"  />
<polyline points="
325.8, 62.2 
305.8, 58.2 
305.8, 66.2 
" fill="black"  stroke-width=   "0.0" stroke="black"  />
<text x =  "211.0" y =   "52.2"
 font-size =   "15.0">
Direction of motion                     </text>
<polyline points="
 10.0,126.0 
 15.7,126.0 
 21.5,126.0 
 27.2,126.0 
 33.0,126.0 
 38.7,126.0 
 44.5,126.0 
 50.2,126.0 
 55.9,126.0 
 61.7,126.0 
 67.4,126.0 
 73.2,126.0 
 78.9,126.1 
 84.7,126.0 
 90.4,126.0 
 96.1,126.0 
101.9,126.0 
107.6,126.0 
113.4,126.0 
119.1,126.0 
124.9,126.0 
130.6,126.0 
136.3,126.0 
142.1,125.9 
147.8,126.1 
153.6,126.1 
159.3,126.0 
165.0,125.9 
170.8,125.9 
176.5,126.1 
182.3,126.2 
188.0,126.1 
193.8,125.9 
199.5,125.8 
205.2,125.7 
211.0,125.7 
216.7,125.7 
222.5,126.2 
228.2,127.2 
234.0,129.1 
239.7,131.9 
245.4,135.1 
251.2,138.5 
256.9,142.1 
262.7,145.4 
268.4,148.3 
274.2,150.7 
279.9,152.6 
285.6,154.0 
291.4,154.9 
297.1,155.1 
302.9,154.5 
308.6,153.6 
314.4,152.2 
320.1,150.4 
325.8,147.9 
331.6,144.6 
337.3,140.4 
343.1,135.6 
348.8,130.5 
354.6,125.2 
360.3,120.2 
366.0,115.4 
371.8,111.3 
377.5,107.6 
383.3,104.4 
389.0,101.7 
394.8, 99.6 
400.5, 98.3 
406.2, 97.5 
412.0, 97.1 
417.7, 97.1 
423.5, 97.7 
429.2, 99.2 
435.0,101.5 
440.7,104.4 
446.4,107.8 
452.2,111.4 
457.9,114.9 
463.7,118.1 
469.4,120.8 
475.1,122.8 
480.9,124.1 
486.6,125.0 
492.4,125.5 
498.1,125.8 
503.9,125.9 
509.6,125.9 
515.3,126.0 
521.1,126.0 
526.8,126.0 
532.6,126.0 
538.3,126.0 
544.1,126.0 
549.8,126.0 
555.5,126.0 
561.3,126.0 
567.0,126.0 
572.8,126.0 
578.5,126.0 
584.3,126.0 
590.0,126.0 
" fill="none"   stroke-width=   "2.0" stroke="red"    />
<polyline points="
 10.0,126.0 
 15.7,126.0 
 21.5,126.0 
 27.2,126.0 
 33.0,126.0 
 38.7,126.0 
 44.5,126.0 
 50.2,126.0 
 55.9,126.0 
 61.7,126.0 
 67.4,126.0 
 73.2,126.0 
 78.9,126.0 
 84.7,126.0 
 90.4,126.0 
 96.1,126.0 
101.9,126.0 
107.6,126.0 
113.4,126.0 
119.1,126.0 
124.9,126.0 
130.6,126.0 
136.3,126.0 
142.1,126.0 
147.8,126.0 
153.6,126.1 
159.3,126.0 
165.0,125.9 
170.8,125.9 
176.5,126.1 
182.3,126.1 
188.0,125.9 
193.8,125.9 
199.5,125.9 
205.2,126.2 
211.0,126.2 
216.7,126.1 
222.5,125.9 
228.2,125.8 
234.0,125.7 
239.7,125.6 
245.4,125.7 
251.2,126.1 
256.9,127.2 
262.7,129.2 
268.4,131.9 
274.2,135.1 
279.9,138.6 
285.6,142.2 
291.4,145.5 
297.1,148.3 
302.9,150.7 
308.6,152.6 
314.4,154.1 
320.1,154.9 
325.8,155.0 
331.6,154.5 
337.3,153.6 
343.1,152.3 
348.8,150.5 
354.6,148.0 
360.3,144.6 
366.0,140.3 
371.8,135.5 
377.5,130.4 
383.3,125.2 
389.0,120.1 
394.8,115.4 
400.5,111.3 
406.2,107.6 
412.0,104.4 
417.7,101.6 
423.5, 99.7 
429.2, 98.4 
435.0, 97.5 
440.7, 97.1 
446.4, 97.0 
452.2, 97.7 
457.9, 99.2 
463.7,101.5 
469.4,104.5 
475.1,107.8 
480.9,111.4 
486.6,115.0 
492.4,118.1 
498.1,120.8 
503.9,122.8 
509.6,124.1 
515.3,125.0 
521.1,125.5 
526.8,125.8 
532.6,125.9 
538.3,125.9 
544.1,126.0 
549.8,126.0 
555.5,126.0 
561.3,126.0 
567.0,126.0 
572.8,126.0 
578.5,126.0 
584.3,126.0 
590.0,126.0 
" fill="none"   stroke-width=   "2.0" stroke="black"  />
<polyline points="
 10.0,126.0 
 15.7,126.0 
 21.5,126.0 
 27.2,126.0 
 33.0,126.0 
 38.7,126.0 
 44.5,126.0 
 50.2,126.0 
 55.9,126.0 
 61.7,126.0 
 67.4,126.0 
 73.2,126.0 
 78.9,126.0 
 84.7,126.0 
 90.4,126.0 
 96.1,126.0 
101.9,126.0 
107.6,126.0 
113.4,126.0 
119.1,126.0 
124.9,126.0 
130.6,126.0 
136.3,126.0 
142.1,126.0 
147.8,126.0 
153.6,126.0 
159.3,126.0 
165.0,126.0 
170.8,125.9 
176.5,126.0 
182.3,126.1 
188.0,126.0 
193.8,125.9 
199.5,126.0 
205.2,126.1 
211.0,126.1 
216.7,125.9 
222.5,125.8 
228.2,126.0 
234.0,126.2 
239.7,126.2 
245.4,126.1 
251.2,125.9 
256.9,125.8 
262.7,125.7 
268.4,125.6 
274.2,125.7 
279.9,126.0 
285.6,127.2 
291.4,129.2 
297.1,131.9 
302.9,135.2 
308.6,138.6 
314.4,142.2 
320.1,145.5 
325.8,148.3 
331.6,150.7 
337.3,152.6 
343.1,154.1 
348.8,154.8 
354.6,154.9 
360.3,154.5 
366.0,153.6 
371.8,152.3 
377.5,150.5 
383.3,148.0 
389.0,144.6 
394.8,140.3 
400.5,135.5 
406.2,130.4 
412.0,125.1 
417.7,120.1 
423.5,115.4 
429.2,111.3 
435.0,107.6 
440.7,104.3 
446.4,101.6 
452.2, 99.7 
457.9, 98.4 
463.7, 97.5 
469.4, 97.0 
475.1, 96.9 
480.9, 97.7 
486.6, 99.3 
492.4,101.6 
498.1,104.5 
503.9,107.9 
509.6,111.5 
515.3,115.0 
521.1,118.2 
526.8,120.8 
532.6,122.7 
538.3,124.1 
544.1,125.0 
549.8,125.4 
555.5,125.7 
561.3,125.9 
567.0,125.9 
572.8,126.0 
578.5,126.0 
584.3,126.0 
590.0,126.0 
" fill="none"   stroke-width=   "2.0" stroke="black"  />
<polyline points="
 10.0,126.0 
 15.7,126.0 
 21.5,126.0 
 27.2,126.0 
 33.0,126.0 
 38.7,126.0 
 44.5,126.0 
 50.2,126.0 
 55.9,126.0 
 61.7,126.0 
 67.4,126.0 
 73.2,126.0 
 78.9,126.0 
 84.7,126.0 
 90.4,126.0 
 96.1,126.0 
101.9,126.0 
107.6,126.0 
113.4,126.0 
119.1,126.0 
124.9,126.0 
130.6,126.0 
136.3,126.0 
142.1,126.0 
147.8,126.0 
153.6,126.0 
159.3,126.0 
165.0,126.0 
170.8,126.0 
176.5,126.0 
182.3,126.0 
188.0,126.0 
193.8,125.9 
199.5,125.9 
205.2,126.1 
211.0,126.1 
216.7,125.9 
222.5,125.9 
228.2,126.1 
234.0,126.1 
239.7,126.0 
245.4,125.8 
251.2,125.9 
256.9,126.1 
262.7,126.2 
268.4,126.1 
274.2,126.0 
279.9,125.9 
285.6,125.8 
291.4,125.7 
297.1,125.6 
302.9,125.5 
308.6,125.9 
314.4,127.2 
320.1,129.2 
325.8,132.0 
331.6,135.2 
337.3,138.7 
343.1,142.3 
348.8,145.5 
354.6,148.3 
360.3,150.7 
366.0,152.7 
371.8,154.1 
377.5,154.8 
383.3,154.9 
389.0,154.5 
394.8,153.6 
400.5,152.3 
406.2,150.6 
412.0,148.0 
417.7,144.5 
423.5,140.3 
429.2,135.5 
435.0,130.3 
440.7,125.1 
446.4,120.0 
452.2,115.4 
457.9,111.4 
463.7,107.6 
469.4,104.3 
475.1,101.6 
480.9, 99.8 
486.6, 98.4 
492.4, 97.5 
498.1, 96.9 
503.9, 96.9 
509.6, 97.7 
515.3, 99.3 
521.1,101.6 
526.8,104.5 
532.6,108.0 
538.3,111.6 
544.1,115.0 
549.8,118.2 
555.5,120.8 
561.3,122.7 
567.0,124.0 
572.8,124.9 
578.5,125.4 
584.3,125.8 
590.0,126.0 
" fill="none"   stroke-width=   "2.0" stroke="black"  />
<polyline points="
 10.0,126.0 
 15.7,126.0 
 21.5,126.0 
 27.2,126.0 
 33.0,126.0 
 38.7,126.0 
 44.5,126.0 
 50.2,126.0 
 55.9,126.0 
 61.7,126.0 
 67.4,126.0 
 73.2,126.0 
 78.9,126.0 
 84.7,126.0 
 90.4,126.0 
 96.1,126.0 
101.9,126.0 
107.6,126.0 
113.4,125.9 
119.1,126.0 
124.9,126.0 
130.6,126.0 
136.3,126.0 
142.1,126.0 
147.8,126.0 
153.6,126.0 
159.3,126.0 
165.0,126.0 
170.8,126.0 
176.5,126.0 
182.3,126.0 
188.0,126.0 
193.8,126.0 
199.5,126.0 
205.2,126.0 
211.0,126.1 
216.7,126.0 
222.5,125.9 
228.2,126.1 
234.0,126.1 
239.7,126.0 
245.4,125.9 
251.2,125.9 
256.9,126.1 
262.7,126.1 
268.4,125.9 
274.2,125.8 
279.9,125.9 
285.6,126.1 
291.4,126.2 
297.1,126.1 
302.9,126.1 
308.6,125.9 
314.4,125.8 
320.1,125.7 
325.8,125.5 
331.6,125.4 
337.3,125.9 
343.1,127.2 
348.8,129.3 
354.6,132.0 
360.3,135.2 
366.0,138.8 
371.8,142.4 
377.5,145.5 
383.3,148.3 
389.0,150.7 
394.8,152.7 
400.5,154.1 
406.2,154.8 
412.0,154.9 
417.7,154.4 
423.5,153.6 
429.2,152.4 
435.0,150.6 
440.7,148.0 
446.4,144.4 
452.2,140.2 
457.9,135.5 
463.7,130.2 
469.4,125.0 
475.1,120.0 
480.9,115.5 
486.6,111.3 
492.4,107.5 
498.1,104.2 
503.9,101.7 
509.6, 99.8 
515.3, 98.5 
521.1, 97.5 
526.8, 96.9 
532.6, 96.9 
538.3, 97.7 
544.1, 99.3 
549.8,101.6 
555.5,104.7 
561.3,108.1 
567.0,111.9 
572.8,115.7 
578.5,119.3 
584.3,122.8 
590.0,126.0 
" fill="none"   stroke-width=   "2.0" stroke="black"  />
<polyline points="
 10.0,126.0 
 15.7,126.0 
 21.5,126.0 
 27.2,126.0 
 33.0,126.0 
 38.7,126.0 
 44.5,126.0 
 50.2,126.0 
 55.9,126.0 
 61.7,126.0 
 67.4,126.0 
 73.2,126.0 
 78.9,126.0 
 84.7,126.0 
 90.4,126.0 
 96.1,126.0 
101.9,126.0 
107.6,126.0 
113.4,126.0 
119.1,126.0 
124.9,126.0 
130.6,126.0 
136.3,126.0 
142.1,126.0 
147.8,126.0 
153.6,125.9 
159.3,126.0 
165.0,126.0 
170.8,126.0 
176.5,126.0 
182.3,126.0 
188.0,126.0 
193.8,126.0 
199.5,126.0 
205.2,126.0 
211.0,126.0 
216.7,126.0 
222.5,126.0 
228.2,125.9 
234.0,126.1 
239.7,126.0 
245.4,125.9 
251.2,126.0 
256.9,126.1 
262.7,126.1 
268.4,125.9 
274.2,125.9 
279.9,126.0 
285.6,126.1 
291.4,126.1 
297.1,125.9 
302.9,125.8 
308.6,126.0 
314.4,126.1 
320.1,126.1 
325.8,126.1 
331.6,126.0 
337.3,125.9 
343.1,125.8 
348.8,125.7 
354.6,125.4 
360.3,125.4 
366.0,125.9 
371.8,127.3 
377.5,129.4 
383.3,132.0 
389.0,135.3 
394.8,138.9 
400.5,142.4 
406.2,145.5 
412.0,148.3 
417.7,150.8 
423.5,152.7 
429.2,154.1 
435.0,154.8 
440.7,154.9 
446.4,154.4 
452.2,153.7 
457.9,152.5 
463.7,150.7 
469.4,147.9 
475.1,144.4 
480.9,140.2 
486.6,135.4 
492.4,130.2 
498.1,125.0 
503.9,120.0 
509.6,115.6 
515.3,111.3 
521.1,107.5 
526.8,104.3 
532.6,101.9 
538.3,100.2 
544.1, 99.1 
549.8, 98.6 
555.5, 98.9 
561.3,100.2 
567.0,102.9 
572.8,107.0 
578.5,112.5 
584.3,119.0 
590.0,126.0 
" fill="none"   stroke-width=   "2.0" stroke="blue"   />
</svg>
