<?xml version="1.0" encoding="ISO-8859-1" standalone="no" ?>
<!DOCTYPE svg PUBLIC "-//W3C//DTD SVG 20010904//EN"
 "http://www.w3.org/TR/2001/REC-SVG-20010904/DTD/svg10.dtd">
<svg xmlns="http://www.w3.org/2000/svg"
 xmlns:xlink="http://www.w3.org/1999/xlink"
 width= "600.0" height= "252.0">
<polyline points="
  0.0,  0.0 
  0.0,252.0 
600.0,252.0 
600.0,  0.0 
  0.0,  0.0 
" fill="none"   stroke-width=   "1.0" stroke="black"  />
<polyline points="
 10.0,242.0 
 10.0, 10.0 
590.0, 10.0 
590.0,242.0 
 10.0,242.0 
" fill="none"   stroke-width=   "1.0" stroke="black"  />
<polyline points="
211.0, 62.2 
325.8, 62.2 
" fill="none"   stroke-width=   "0.5" stroke="black"  />
<polyline points="
325.8, 62.2 
305.8, 58.2 
305.8, 66.2 
" fill="black"  stroke-width=   "0.0" stroke="black"  />
<text x =  "211.0" y =   "52.2"
 font-size =   "15.0">
Direction of motion                     </text>
<text x =   "38.7" y =   "52.2"
 font-size =   "15.0">
Red - Initial state                     </text>
<polyline points="
 10.0,126.0 
 15.7,115.1 
 21.5,105.3 
 27.2, 96.7 
 33.0, 89.2 
 38.7, 82.8 
 44.5, 77.6 
 50.2, 73.5 
 55.9, 70.5 
 61.7, 68.7 
 67.4, 68.0 
 73.2, 68.5 
 78.9, 70.0 
 84.7, 72.8 
 90.4, 76.6 
 96.1, 81.6 
101.9, 87.8 
107.6, 95.1 
113.4,102.9 
119.1,109.5 
124.9,115.1 
130.6,119.5 
136.3,122.8 
142.1,124.9 
147.8,125.9 
153.6,126.0 
159.3,126.0 
165.0,126.0 
170.8,126.0 
176.5,126.0 
182.3,126.0 
188.0,126.0 
193.8,126.0 
199.5,126.0 
205.2,126.0 
211.0,126.0 
216.7,126.0 
222.5,126.0 
228.2,126.0 
234.0,126.0 
239.7,126.0 
245.4,126.0 
251.2,126.0 
256.9,126.0 
262.7,126.0 
268.4,126.0 
274.2,126.0 
279.9,126.0 
285.6,126.0 
291.4,126.0 
297.1,126.0 
302.9,126.0 
308.6,126.0 
314.4,126.0 
320.1,126.0 
325.8,126.0 
331.6,126.0 
337.3,126.0 
343.1,126.0 
348.8,126.0 
354.6,126.0 
360.3,126.0 
366.0,126.0 
371.8,126.0 
377.5,126.0 
383.3,126.0 
389.0,126.0 
394.8,126.0 
400.5,126.0 
406.2,126.0 
412.0,126.0 
417.7,126.0 
423.5,126.0 
429.2,126.0 
435.0,126.0 
440.7,126.0 
446.4,126.0 
452.2,126.0 
457.9,126.0 
463.7,126.0 
469.4,126.0 
475.1,126.0 
480.9,126.0 
486.6,126.0 
492.4,126.0 
498.1,126.0 
503.9,126.0 
509.6,126.0 
515.3,126.0 
521.1,126.0 
526.8,126.0 
532.6,126.0 
538.3,126.0 
544.1,126.0 
549.8,126.0 
555.5,126.0 
561.3,126.0 
567.0,126.0 
572.8,126.0 
578.5,126.0 
584.3,126.0 
590.0,126.0 
" fill="none"   stroke-width=   "2.0" stroke="red"    />
<polyline points="
 10.0,126.0 
 15.7,120.2 
 21.5,114.4 
 27.2,108.7 
 33.0,102.7 
 38.7, 96.9 
 44.5, 91.7 
 50.2, 87.7 
 55.9, 84.7 
 61.7, 82.9 
 67.4, 82.2 
 73.2, 82.7 
 78.9, 84.2 
 84.7, 86.5 
 90.4, 89.1 
 96.1, 91.5 
101.9, 93.9 
107.6, 96.4 
113.4, 98.9 
119.1,101.4 
124.9,103.8 
130.6,106.9 
136.3,110.7 
142.1,114.5 
147.8,117.8 
153.6,120.5 
159.3,122.8 
165.0,124.4 
170.8,125.4 
176.5,125.9 
182.3,126.0 
188.0,126.0 
193.8,126.0 
199.5,126.0 
205.2,126.0 
211.0,126.0 
216.7,126.0 
222.5,126.0 
228.2,126.0 
234.0,126.0 
239.7,126.0 
245.4,126.0 
251.2,126.0 
256.9,126.0 
262.7,126.0 
268.4,126.0 
274.2,126.0 
279.9,126.0 
285.6,126.0 
291.4,126.0 
297.1,126.0 
302.9,126.0 
308.6,126.0 
314.4,126.0 
320.1,126.0 
325.8,126.0 
331.6,126.0 
337.3,126.0 
343.1,126.0 
348.8,126.0 
354.6,126.0 
360.3,126.0 
366.0,126.0 
371.8,126.0 
377.5,126.0 
383.3,126.0 
389.0,126.0 
394.8,126.0 
400.5,126.0 
406.2,126.0 
412.0,126.0 
417.7,126.0 
423.5,126.0 
429.2,126.0 
435.0,126.0 
440.7,126.0 
446.4,126.0 
452.2,126.0 
457.9,126.0 
463.7,126.0 
469.4,126.0 
475.1,126.0 
480.9,126.0 
486.6,126.0 
492.4,126.0 
498.1,126.0 
503.9,126.0 
509.6,126.0 
515.3,126.0 
521.1,126.0 
526.8,126.0 
532.6,126.0 
538.3,126.0 
544.1,126.0 
549.8,126.0 
555.5,126.0 
561.3,126.0 
567.0,126.0 
572.8,126.0 
578.5,126.0 
584.3,126.0 
590.0,126.0 
" fill="none"   stroke-width=   "2.0" stroke="black"  />
<polyline points="
 10.0,126.0 
 15.7,125.9 
 21.5,125.8 
 27.2,125.7 
 33.0,125.6 
 38.7,125.4 
 44.5,125.2 
 50.2,125.1 
 55.9,124.5 
 61.7,122.9 
 67.4,120.4 
 73.2,117.2 
 78.9,114.0 
 84.7,110.8 
 90.4,107.6 
 96.1,104.5 
101.9,101.8 
107.6, 99.7 
113.4, 98.3 
119.1, 97.3 
124.9, 97.0 
130.6, 97.2 
136.3, 98.0 
142.1, 99.4 
147.8,101.3 
153.6,103.7 
159.3,107.1 
165.0,110.8 
170.8,114.5 
176.5,117.8 
182.3,120.5 
188.0,122.8 
193.8,124.4 
199.5,125.4 
205.2,125.8 
211.0,125.9 
216.7,126.0 
222.5,126.0 
228.2,126.0 
234.0,126.0 
239.7,126.0 
245.4,126.0 
251.2,126.0 
256.9,126.0 
262.7,126.0 
268.4,126.0 
274.2,126.0 
279.9,126.0 
285.6,126.0 
291.4,126.0 
297.1,126.0 
302.9,126.0 
308.6,126.0 
314.4,126.0 
320.1,126.0 
325.8,126.0 
331.6,126.0 
337.3,126.0 
343.1,126.0 
348.8,126.0 
354.6,126.0 
360.3,126.0 
366.0,126.0 
371.8,126.0 
377.5,126.0 
383.3,126.0 
389.0,126.0 
394.8,126.0 
400.5,126.0 
406.2,126.0 
412.0,126.0 
417.7,126.0 
423.5,126.0 
429.2,126.0 
435.0,126.0 
440.7,126.0 
446.4,126.0 
452.2,126.0 
457.9,126.0 
463.7,126.0 
469.4,126.0 
475.1,126.0 
480.9,126.0 
486.6,126.0 
492.4,126.0 
498.1,126.0 
503.9,126.0 
509.6,126.0 
515.3,126.0 
521.1,126.0 
526.8,126.0 
532.6,126.0 
538.3,126.0 
544.1,126.0 
549.8,126.0 
555.5,126.0 
561.3,126.0 
567.0,126.0 
572.8,126.0 
578.5,126.0 
584.3,126.0 
590.0,126.0 
" fill="none"   stroke-width=   "2.0" stroke="black"  />
<polyline points="
 10.0,126.0 
 15.7,131.5 
 21.5,136.9 
 27.2,142.0 
 33.0,146.4 
 38.7,149.7 
 44.5,151.5 
 50.2,152.0 
 55.9,151.8 
 61.7,150.3 
 67.4,147.8 
 73.2,144.6 
 78.9,140.8 
 84.7,136.2 
 90.4,131.2 
 96.1,125.7 
101.9,120.4 
107.6,115.6 
113.4,111.3 
119.1,107.6 
124.9,104.4 
130.6,101.8 
136.3, 99.7 
142.1, 98.2 
147.8, 97.3 
153.6, 97.0 
159.3, 97.2 
165.0, 98.1 
170.8, 99.4 
176.5,101.2 
182.3,103.8 
188.0,107.1 
193.8,110.9 
199.5,114.6 
205.2,117.8 
211.0,120.5 
216.7,122.8 
222.5,124.4 
228.2,125.3 
234.0,125.8 
239.7,125.9 
245.4,126.0 
251.2,126.0 
256.9,126.0 
262.7,126.0 
268.4,126.0 
274.2,126.0 
279.9,126.0 
285.6,126.0 
291.4,126.0 
297.1,126.0 
302.9,126.0 
308.6,126.0 
314.4,126.0 
320.1,126.0 
325.8,126.0 
331.6,126.0 
337.3,126.0 
343.1,126.0 
348.8,126.0 
354.6,126.0 
360.3,126.0 
366.0,126.0 
371.8,126.0 
377.5,126.0 
383.3,126.0 
389.0,126.0 
394.8,126.0 
400.5,126.0 
406.2,126.0 
412.0,126.0 
417.7,126.0 
423.5,126.0 
429.2,126.0 
435.0,126.0 
440.7,126.0 
446.4,126.0 
452.2,126.0 
457.9,126.0 
463.7,126.0 
469.4,126.0 
475.1,126.0 
480.9,126.0 
486.6,126.0 
492.4,126.0 
498.1,126.0 
503.9,126.0 
509.6,126.0 
515.3,126.0 
521.1,126.0 
526.8,126.0 
532.6,126.0 
538.3,126.0 
544.1,126.0 
549.8,126.0 
555.5,126.0 
561.3,126.0 
567.0,126.0 
572.8,126.0 
578.5,126.0 
584.3,126.0 
590.0,126.0 
" fill="none"   stroke-width=   "2.0" stroke="black"  />
<polyline points="
 10.0,126.0 
 15.7,131.3 
 21.5,136.4 
 27.2,141.1 
 33.0,145.3 
 38.7,148.5 
 44.5,150.8 
 50.2,152.6 
 55.9,153.9 
 61.7,154.8 
 67.4,155.1 
 73.2,154.7 
 78.9,153.7 
 84.7,152.3 
 90.4,150.2 
 96.1,147.6 
101.9,144.6 
107.6,140.8 
113.4,136.2 
119.1,131.0 
124.9,125.6 
130.6,120.4 
136.3,115.6 
142.1,111.3 
147.8,107.6 
153.6,104.4 
159.3,101.8 
165.0, 99.7 
170.8, 98.3 
176.5, 97.3 
182.3, 96.9 
188.0, 97.3 
193.8, 98.1 
199.5, 99.3 
205.2,101.2 
211.0,103.8 
216.7,107.3 
222.5,111.0 
228.2,114.6 
234.0,117.8 
239.7,120.6 
245.4,122.8 
251.2,124.4 
256.9,125.3 
262.7,125.7 
268.4,125.9 
274.2,126.0 
279.9,126.0 
285.6,126.0 
291.4,126.0 
297.1,126.0 
302.9,126.0 
308.6,126.0 
314.4,126.0 
320.1,126.0 
325.8,126.0 
331.6,126.0 
337.3,126.0 
343.1,126.0 
348.8,126.0 
354.6,126.0 
360.3,126.0 
366.0,126.0 
371.8,126.0 
377.5,126.0 
383.3,126.0 
389.0,126.0 
394.8,126.0 
400.5,126.0 
406.2,126.0 
412.0,126.0 
417.7,126.0 
423.5,126.0 
429.2,126.0 
435.0,126.0 
440.7,126.0 
446.4,126.0 
452.2,126.0 
457.9,126.0 
463.7,126.0 
469.4,126.0 
475.1,126.0 
480.9,126.0 
486.6,126.0 
492.4,126.0 
498.1,126.0 
503.9,126.0 
509.6,126.0 
515.3,126.0 
521.1,126.0 
526.8,126.0 
532.6,126.0 
538.3,126.0 
544.1,126.0 
549.8,126.0 
555.5,126.0 
561.3,126.0 
567.0,126.0 
572.8,126.0 
578.5,126.0 
584.3,126.0 
590.0,126.0 
" fill="none"   stroke-width=   "2.0" stroke="black"  />
<polyline points="
 10.0,126.0 
 15.7,126.2 
 21.5,126.5 
 27.2,127.4 
 33.0,129.1 
 38.7,131.5 
 44.5,134.6 
 50.2,138.1 
 55.9,141.8 
 61.7,145.3 
 67.4,148.2 
 73.2,150.7 
 78.9,152.6 
 84.7,154.0 
 90.4,154.8 
 96.1,154.9 
101.9,154.7 
107.6,153.8 
113.4,152.3 
119.1,150.1 
124.9,147.6 
130.6,144.6 
136.3,140.8 
142.1,136.1 
147.8,130.9 
153.6,125.5 
159.3,120.4 
165.0,115.6 
170.8,111.3 
176.5,107.6 
182.3,104.4 
188.0,101.8 
193.8, 99.8 
199.5, 98.3 
205.2, 97.3 
211.0, 97.0 
216.7, 97.3 
222.5, 98.0 
228.2, 99.3 
234.0,101.2 
239.7,104.0 
245.4,107.4 
251.2,111.0 
256.9,114.6 
262.7,117.8 
268.4,120.6 
274.2,122.8 
279.9,124.4 
285.6,125.2 
291.4,125.7 
297.1,125.9 
302.9,125.9 
308.6,126.0 
314.4,126.0 
320.1,126.0 
325.8,126.0 
331.6,126.0 
337.3,126.0 
343.1,126.0 
348.8,126.0 
354.6,126.0 
360.3,126.0 
366.0,126.0 
371.8,126.0 
377.5,126.0 
383.3,126.0 
389.0,126.0 
394.8,126.0 
400.5,126.0 
406.2,126.0 
412.0,126.0 
417.7,126.0 
423.5,126.0 
429.2,126.0 
435.0,126.0 
440.7,126.0 
446.4,126.0 
452.2,126.0 
457.9,126.0 
463.7,126.0 
469.4,126.0 
475.1,126.0 
480.9,126.0 
486.6,126.0 
492.4,126.0 
498.1,126.0 
503.9,126.0 
509.6,126.0 
515.3,126.0 
521.1,126.0 
526.8,126.0 
532.6,126.0 
538.3,126.0 
544.1,126.0 
549.8,126.0 
555.5,126.0 
561.3,126.0 
567.0,126.0 
572.8,126.0 
578.5,126.0 
584.3,126.0 
590.0,126.0 
" fill="none"   stroke-width=   "2.0" stroke="blue"   />
</svg>
